<?xml version="1.0" standalone="no"?>
<!DOCTYPE svg PUBLIC "-//W3C//DTD SVG 1.1//EN" "http://www.w3.org/Graphics/SVG/1.1/DTD/svg11.dtd" >
<svg xmlns="http://www.w3.org/2000/svg">
<metadata>
This is a custom SVG font generated by IcoMoon.
<iconset grid="14"></iconset>
</metadata>
<defs>
<font id="toaster-icons" horiz-adv-x="448" >
<font-face units-per-em="448" ascent="384" descent="-64" />
<missing-glyph horiz-adv-x="448" />
<glyph class="hidden" unicode="&#xf000;" d="M0,384L 448 -64L0 -64 z" horiz-adv-x="0" />
<glyph unicode="&#xe003;" d="M 448,132L 364,216L 364,300L 308,300L 308,272L 224,356L0,132L 56,132L 56-36L 196-36L 196,76L 252,76L 252-36L 392-36L 392,132 	z"  />
<glyph unicode="&#xe000;" d="M 224,356L0,132L 56,132L 224,300L 392,132L 448,132 		zM 84,104L 84-36L 196-36L 196,76L 252,76L 252-36L 364-36L 364,104L 224,244 		z"  />
<glyph unicode="&#xe014;" d="M 418.552,2.862c-12.392,0-22.448,10.056-22.448,22.448l0,269.38 C 396.104,307.082, 406.16,317.138, 418.552,317.138
	S 441,307.082, 441,294.69l0-269.38 C 441,12.918, 430.944,2.862, 418.552,2.862z M 306.31,32.794c0-16.522-13.41-29.932-29.932-29.932l-134.69,0 c-16.522,0-29.932,13.41-29.932,29.932l0,59.248 l-59.728,13.29l0,108.186 
	l 329.6,72.628l0-254.174 L 306.31,48.716L 306.31,32.794 z M 291.344,52.054L 126.724,88.704L 126.724,32.794 c0-8.26, 6.704-14.966, 14.966-14.966l 134.69,0 c 8.276,0, 14.966,6.704, 14.966,14.966L 291.344,52.054 z M 21.966,92.656
	c-8.26,0-14.966,6.704-14.966,14.966l0,104.758 c0,8.276, 6.704,14.966, 14.966,14.966s 14.966-6.69, 14.966-14.966l0-104.758 C 36.932,99.36, 30.226,92.656, 21.966,92.656z"  />
<glyph unicode="&#xe009;" d="M 404.584,128.304l0-117.998 c0-8.25-4.662-14.93-14.914-14.93
	c-2.48,0-8.622,5.29-16.17,13.256L 373.5,325.356 c 7.546,7.966, 13.688,13.256, 16.17,13.256c 11.178,0, 14.914-6.68, 14.914-14.914l0-120.988 
	c 20.22-0.568, 39.048-16.962, 39.048-37.196C 443.632,145.266, 424.802,128.872, 404.584,128.304z M 164.58,99.536c 0.926,0,0,134.93,0,134.93
	c 102.472,0, 163.22,44.982, 195.23,75.826L 359.81,23.71 C 327.8,54.54, 267.052,99.536, 164.58,99.536z M 104.894-18.612l-29.844,118.462L 45.192,99.85 
	c0,0-8.876,20.144-12.912,44.772c-7.606,0-14.256,0-16.946,0c-8.234,0-14.914,6.68-14.914,14.93l0,14.914 c0,8.25, 6.68,14.93, 14.914,14.93
	c 2.69,0, 9.34,0, 16.946,0c 4.050,24.628, 12.912,44.758, 12.912,44.758l 104.46,0 l0-134.302 L 119.808,99.85 l 3.766-14.914l 14.9,0 l 7.458-29.858L 131.076,55.078 l 18.576-73.69
	L 104.894-18.612 z"  />
<glyph unicode="&#xe00a;" d="M 98.229,348.829c 3.077-0.941, 11.691-5.015, 24.75-16.047c 12.796-10.81, 24.889-24.091, 33.18-36.439
	c 9.104-13.559, 10.642-21.565, 10.485-23.994c-8.8-8.674-17.647-14.142-26.21-19.434c-8.36-5.167-16.257-10.047-22.756-17.174
	C 109.266,226.515, 105,215.163, 105,202c0-36.698, 31.595-68.294, 62.15-98.85C 197.706,72.595, 229.302,41, 266,41
	c 13.164,0, 24.515,4.266, 33.74,12.679c 7.128,6.5, 12.008,14.395, 17.175,22.756c 5.288,8.556, 10.753,17.4, 19.417,26.195
	c 0.084,0.004, 0.18,0.007, 0.291,0.007c 7.602,0, 25.043-8.774, 45.37-28.038c 8.669-8.215, 16.679-17.304, 22.557-25.595
	c 5.436-7.669, 7.627-12.673, 8.277-14.78c-1.173-2.837-7.39-14.55-36.658-38.565c-12.773-10.481-25.358-19.538-32.307-24.397
	c-23.4,1.895-58.944,13.958-97.010,33.079c-42.136,21.165-81.763,48.27-106.003,72.509
	c-24.24,24.239-51.346,63.866-72.51,106.003c-19.119,38.066-31.182,73.614-33.077,97.013c 4.816,6.891, 13.767,19.331, 24.198,32.062
	C 83.624,341.419, 95.393,347.658, 98.229,348.829 M 98,370c-28,0-84-84-84-84c0-56, 57.531-169.531, 112-224s 168-112, 224-112c0,0, 84,56, 84,84
	c0,24.090-62.179,89.634-97.378,89.634c-5.713,0-10.712-1.726-14.622-5.634c-28-28-28-56-56-56s-56,28-84,56s-56,56-56,84
	s 28,28, 56,56S 126,370, 98,370L 98,370z"  />
<glyph unicode="&#xe016;" d="M 322,118c-28-28-28-56-56-56s-56,28-84,56s-56,56-56,84s 28,28, 56,56S 126,370, 98,370S 14,286, 14,286c0-56, 57.531-169.531, 112-224
	s 168-112, 224-112c0,0, 84,56, 84,84S 350,146, 322,118z"  />
<glyph unicode="&#xe00b;" d="M 281.565,59.247c-9.79-5.457-17.653-1.806-28.669,4c-10.027,7.654-39.727,31.008-71.073,62.29
		c-22.886,28.949-40.392,56.252-48.453,69.381c-0.547,1.452-0.826,2.303-0.826,2.303c-4.722,11.792-7.675,20.055-1.159,29.331
		c 5.997,8.511, 8.313,10.835, 15.96,17.595L 70.529,358.006c-9.278-6.762-23.641-21.968-35.445-38.831
		c-10.971-16.027-20.26-33.764-22.793-46.423c 13.383-48.227, 45.726-138.159, 105.51-202.409l-0.018-0.27
		C 175.297-0.827, 266.677-44.928, 315.158-64c 12.844,1.212, 31.446,8.614, 48.524,17.854c 18.023,9.988, 34.621,22.702, 42.288,31.224
		L 300.717,73.303C 293.195,66.382, 290.657,64.331, 281.565,59.247zM 179.909,271.424c 6.336,4.639, 4.649,13.076, 1.685,17.714L 123.337,378.312c-3.801,4.63-11.722,7.056-18.595,4.882L 80.738,367.111
		l 77.030-113.644L 179.909,271.424zM 431.33,35.885l-82.664,67.189c-4.314,3.428-12.524,5.983-17.784,0.165l-20.165-20.169l 105.041-88.388l 18.494,22.187
		C 437.126,23.488, 435.536,31.619, 431.33,35.885z"  />
<glyph unicode="&#xe00e;" d="M 215.609,100.676c-0.415,0.287-48.452,81.046-48.612,82.084c-9.933,21.703-17.95,43.901-1.246,53.754l-69.324,116.898
			C 78.461,339.982, 27.646,267.096, 122.761,101.922c 100.194-174.070, 195.549-166.835, 214.664-155.050l-67.552,114.103
			C 253.904,51.585, 240.458,67.060, 215.609,100.676z M 383.786-8.828l 0.016,0.096c0,0-52.748,88.887-52.78,88.919
			c-4.184,7.043-13.175,9.262-20.186,5.174l-32.323-19.116l 67.743-114.439c0,0, 32.323,19.020, 32.307,19.084l 0.064,0 
			C 386.053-24.702, 387.762-15.599, 383.786-8.828z M 206.906,260.756L 206.906,260.82 c 7.426,4.392, 9.167,13.494, 5.19,20.202l 0.032,0.096
			c0,0-54.265,91.49-54.297,91.506c-4.168,7.075-13.191,9.262-20.17,5.174L 105.338,358.682l 69.245-116.962C 174.583,241.72, 206.89,260.708, 206.906,260.756
			z"  />
<glyph unicode="&#xe019;" d="M 400.009,293.308C 344.578,324.82, 265.32,328, 224.062,328c-0.024-0.021-0.042-0.049-0.058-0.068
		c-0.025,0.020-0.043,0.046-0.067,0.068c-41.257,0-120.514-3.183-175.945-34.692C 1.383,266.81, 0.001,238.438, 0.001,218.628l0-2.972 
		c0-4.534, 3.91-8.241, 8.685-8.241l 105.128,0 c 4.775,0, 8.685,3.706, 8.685,8.241l0,10.021 c0,25.031, 23.937,29.031, 37.143,31.154
		s 46.041,4.18, 64.295,4.18c 0.025,0, 0.042,0, 0.067,0c 0.018,0, 0.035,0, 0.058,0c 18.255,0, 51.086-2.057, 64.295-4.18
		c 13.207-2.126, 37.143-6.125, 37.143-31.154l0-10.021 c0-4.534, 3.91-8.241, 8.687-8.241l 105.127,0 c 4.777,0, 8.687,3.706, 8.687,8.241l0,2.972 
		C 448,238.438, 446.618,266.81, 400.009,293.308zM 224.005,210.568c-24.827,0-76.517,3.572-102.778-28.272C 94.958,150.46, 29.273-8, 87.848-8
		c 58.587,0, 109.776,0, 136.155,0c 26.369,0, 77.567,0, 136.146,0c 58.577,0-7.109,158.46-33.37,190.296
		C 300.514,214.14, 248.821,210.568, 224.005,210.568z M 224,34c-38.66,0-70,31.34-70,70s 31.34,70, 70,70s 70-31.34, 70-70
		S 262.66,34, 224,34z"  />
<glyph unicode="&#xe01c;" d="M 371-64L 77-64 C 61.53-64, 49-51.456, 49-36L 49,300 C 49,315.47, 61.53,328, 77,328l0-336 c0-15.456, 12.544-28, 28-28L 161-36 
	C 176.47-36, 189-23.456, 189-8L 189,328 l 182,0 c 15.47,0, 28-12.544, 28-28l0-336 C 399-51.456, 386.47-64, 371-64z M 301-22l 28,0 l0,28 l-28,0 L 301-22 z M 301,20l 28,0 l0,28 l-28,0 L 301,20 z M 301,62
	l 28,0 l0,28 l-28,0 L 301,62 z M 301,104l 28,0 l0,28 l-28,0 L 301,104 z M 259-22l 28,0 l0,28 l-28,0 L 259-22 z M 259,20l 28,0 l0,28 l-28,0 L 259,20 z M 259,62l 28,0 l0,28 l-28,0 L 259,62 z M 259,104l 28,0 l0,28 l-28,0 L 259,104 z M 371,286
	c0,7.742-6.258,14-14,14l-126,0 c-7.728,0-14-6.258-14-14l0-56 c0-7.728, 6.272-14, 14-14l 126,0 c 7.742,0, 14,6.272, 14,14L 371,286 z M 371,132l-28,0 l0-28 l 28,0 L 371,132 z M 371,90l-28,0 l0-28 l 28,0 L 371,90 z
	 M 371,48l-28,0 l0-28 l 28,0 L 371,48 z M 371,6l-28,0 l0-28 l 28,0 L 371,6 z M 161-22L 105-22 c-7.728,0-14,6.258-14,14L 91,342 c0,7.742, 6.272,14, 14,14l 27.132,0 L 132.132,384 L 147,384 l0-28 l 14,0 C 168.728,356, 175,349.742, 175,342
	l0-350 C 175-15.742, 168.728-22, 161-22z"  />
<glyph unicode="&#xe008;" d="M 308,384c-7.732,0-14-6.268-14-14l0-42 L 140,328 c-7.732,0-14-6.268-14-14l0-364 c0-7.732, 6.268-14, 14-14l 168,0 c 7.732,0, 14,6.268, 14,14L 322,370 
	C 322,377.732, 315.732,384, 308,384z M 182-36l-28,0 l0,28 l 28,0 L 182-36 z M 182,20l-28,0 l0,28 l 28,0 L 182,20 z M 182,76l-28,0 l0,28 l 28,0 L 182,76 z M 238-36l-28,0 l0,28 l 28,0 L 238-36 z
	 M 238,20l-28,0 l0,28 l 28,0 L 238,20 z M 238,76l-28,0 l0,28 l 28,0 L 238,76 z M 294-36l-28,0 l0,28 l 28,0 L 294-36 z M 294,20l-28,0 l0,28 l 28,0 L 294,20 z M 294,76l-28,0 l0,28 l 28,0 L 294,76 z
	 M 294,146c0-7.732-6.268-14-14-14L 168,132 c-7.732,0-14,6.268-14,14L 154,286 c0,7.732, 6.268,14, 14,14l 112,0 c 7.732,0, 14-6.268, 14-14L 294,146 z"  />
<glyph unicode="&#xe001;" d="M 335.982,384l-224,0 C 91.374,384, 74.666,367.274, 74.666,346.666l0-373.334 c0-20.608, 16.706-37.334, 37.314-37.334l 224,0 
			C 356.608-64, 373.334-47.274, 373.334-26.666L 373.334,346.666 C 373.334,367.274, 356.608,384, 335.982,384z M 168,365.334l 93.334,0 l 1.158-18.666L 168,346.666 L 168,365.334 z M 223.608-36c-10.304,0-18.666,8.344-18.666,18.666s 8.362,18.666, 18.666,18.666
			c 10.322,0, 18.666-8.344, 18.666-18.666S 233.912-36, 223.608-36z M 335.982,29.334l-224,0 l 0.392,298.666l 223.608,0 L 335.982,29.334 z"  />
<glyph unicode="&#xe028;" d="M 352.017,376l-270,0 C 62.128,376, 45.999,359.871, 45.999,339.999l0-360.001 c0-19.872, 16.129-36.001, 36.018-36.001l 270,0 
			C 371.889-56, 388.001-39.871, 388.001-19.999L 388.001,339.999 C 388.001,359.871, 371.889,376, 352.017,376z M 217-38.001c-9.936,0-17.982,8.046-17.982,17.999s 8.046,17.999, 17.982,17.999
			c 9.953,0, 18.019-8.046, 18.019-17.999S 226.953-38.001, 217-38.001z M 351.838,17.116L 81.369,17.116 L 81.369,339.533 l 270.469,0 L 351.838,17.116 z"  />
<glyph unicode="&#xe029;" d="M 350,384L 98,384 C 82.6,384, 70,371.401, 70,356l0-392 c0-15.4, 12.599-28, 28-28l 252,0 c 15.4,0, 28,12.6, 28,28L 378,356 C 378,371.401, 365.4,384, 350,384z
	 M 224-43.78c-12.028,0-21.78,9.752-21.78,21.78s 9.752,21.78, 21.78,21.78s 21.78-9.752, 21.78-21.78
	S 236.028-43.78, 224-43.78z M 350,20L 98,20 L 98,328 l 252,0 L 350,20 z"  />
<glyph unicode="&#xe031;" d="M 248.889,11.695l-49.778,0 L 199.111-14.222 L 149.334-22.519l0-16.593 l 148.305,0 l0,15.563 L 248.889-14.222L 248.889,11.695 z M 414.815,359.111L 33.185,359.111 
			C 14.85,359.111, 0,344.261, 0,325.926l0-232.296 C 0,75.311, 14.85,60.445, 33.185,60.445l 381.63,0 c 18.335,0, 33.185,14.867, 33.185,33.185L 448,325.926 C 448,344.261, 433.15,359.111, 414.815,359.111z M 221.926,85.334
			c-9.159,0-16.593,7.433-16.593,16.593c0,9.176, 7.433,16.593, 16.593,16.593c 9.176,0, 16.593-7.417, 16.593-16.593C 238.519,92.767, 231.085,85.334, 221.926,85.334z M 414.815,143.407L 33.185,143.407 L 33.185,325.926 l 381.63,0 L 414.815,143.407 z"  />
<glyph unicode="&#xe002;" d="M 448,20L 448,356 L0,356 l0-336 l 196,0 l0-28 l-84,0 l0-28 l 224,0 l0,28 l-84,0 l0,28 L 448,20 z M 56,300l 336,0 l0-224 L 56,76 L 56,300 z"  />
<glyph unicode="&#xe033;" d="M 284.907,151.966L 448,39.481L 448,298.435 	zM0,298.435L0,39.481L 163.090,151.982 	zM 224,97.27L 185.062,132.231L0,20L 448,20L 262.933,132.231 	zM 434.56,300L 13.44,300L 224,141.69 	z"  />
<glyph unicode="&#xe034;" d="M 224.24,114.222l-65.154,53.49L 17.289,0.298l 414.031,0 l-141.813,169.078L 224.24,114.222z
			 M 446.824,319.702L 1.768,319.702 l 222.536-187.175L 446.824,319.702z M 299.283,177.809l 148.661-177.35L 447.944,303.701 L 299.283,177.809z M 0.056,303.701l0-303.243 
			l 148.661,177.35L 0.056,303.701z"  />
<glyph unicode="&#xe035;" d="M0,300l0-280 l 448,0 L 448,300 L0,300 z M 387.334,272L 224,149.5L 60.666,272L 387.334,272 z M 28,48L 28,261.5 l 196-147l 196,147l0-213.5 L 28,48 z"  />
<glyph unicode="&#xe00c;" d="M0,300l0-280 l 448,0 L 448,300 L0,300 z M 392,272L 280,160L 168,160 L 56,272L 392,272 z M 28,272l 112-112L 28,48L 28,272 z M 56,48l 84,84l 168,0 l 84-84L 56,48 z M 420,48
	L 308,160l 112,112L 420,48 z"  />
<glyph unicode="&#xe055;" d="M 160,320A64,64 8460 1 0 288,320A64,64 8460 1 0 160,320zM 160,160A64,64 8460 1 0 288,160A64,64 8460 1 0 160,160zM 160,0A64,64 8460 1 0 288,0A64,64 8460 1 0 160,0z"  />
<glyph unicode="&#xe056;" d="M 392,48L 56,48 c-30.8,0-56-25.2-56-56s 25.2-56, 56-56l 336,0 c 30.8,0, 56,25.2, 56,56S 422.8,48, 392,48zM 392,216L 56,216 c-30.8,0-56-25.2-56-56s 25.2-56, 56-56l 336,0 c 30.8,0, 56,25.2, 56,56S 422.8,216, 392,216zM 56,272l 336,0 c 30.8,0, 56,25.2, 56,56S 422.8,384, 392,384L 56,384 C 25.2,384,0,358.8,0,328S 25.2,272, 56,272z"  />
<glyph unicode="&#xe057;" d="M 160,384L 288,384L 288,256L 160,256zM 160,224L 288,224L 288,96L 160,96zM 160,64L 288,64L 288-64L 160-64z"  />
<glyph unicode="&#xe010;" d="M0,384L 112,384L 112,272L0,272zM 168,384L 448,384L 448,272L 168,272zM0,216L 112,216L 112,104L0,104zM 168,216L 448,216L 448,104L 168,104zM0,48L 112,48L 112-64L0-64zM 168,48L 448,48L 448-64L 168-64z"  />
<glyph unicode="&#xe012;" d="M0,384L 112,384L 112,272L0,272zM 168,384L 280,384L 280,272L 168,272zM 336,384L 448,384L 448,272L 336,272zM0,216L 112,216L 112,104L0,104zM 168,216L 280,216L 280,104L 168,104zM 336,216L 448,216L 448,104L 336,104zM0,48L 112,48L 112-64L0-64zM 168,48L 280,48L 280-64L 168-64zM 336,48L 448,48L 448-64L 336-64z"  />
<glyph unicode="&#xe058;" d="M 0,384l0-112 l 448,0 L 448,384 L 0,384 z M 0,104l 448,0 l0,112 L 0,216 L 0,104 z M 0-64l 448,0 l0,112 L 0,48 L 0-64 z"  />
<glyph unicode="&#xe018;" d="M 336,104L 224,216L 112,104 z"  />
<glyph unicode="&#xe01a;" d="M 168.001,48L 280.001,160L 168.001,272 z"  />
<glyph unicode="&#xe01b;" d="M 112,216L 224,104L 336,216 z"  />
<glyph unicode="&#xe01d;" d="M 280.001,272L 168.001,160L 280.001,47.999 z"  />
<glyph unicode="&#xe01e;" d="M 112-64L 336,160L 112,384L 224,160 z"  />
<glyph unicode="&#xe01f;" d="M 448,48L 224,272L0,48L 224,160 z"  />
<glyph unicode="&#xe020;" d="M0,272L 224,48L 448,272L 224,160 z"  />
<glyph unicode="&#xe02c;" d="M 336,384L 112,160L 336-64L 224.001,160 z"  />
<glyph unicode="&#xe02d;" d="M 338.78-33.549c 6.993-7.070, 6.993-18.473,0-25.544s-18.29-7.070-25.284,0l-204.298,206.307c-6.993,7.070-6.993,18.5,0,25.544
	l 204.298,206.333c 6.993,7.070, 18.29,7.070, 25.284,0s 6.993-18.473,0-25.544L 152.484,160L 338.78-33.549z"  />
<glyph unicode="&#xe022;" d="M 109.191-33.549c -6.993-7.070, -6.993-18.473,0-25.544s 18.29-7.070 25.284,0l 204.298,206.307c 6.993,7.070 6.993,18.5,0,25.544
	l -204.298,206.333c -6.993,7.070, -18.29,7.070, -25.284,0s -6.993-18.473,0-25.544L 295.487,160L 109.191-33.549z"  />
<glyph unicode="&#xf107;" d="M 285.749,207.086q0-3.692 -2.839-6.534l-132.375-132.375q-2.839-2.839 -6.534-2.839t-6.534,2.839l-132.375,132.375q-2.839,2.839 -2.839,6.534t 2.839,6.534l 14.205,14.205q 2.839,2.839 6.534,2.839t 6.534-2.839l 111.639-111.639l 111.639,111.639q 2.839,2.839 6.534,2.839t 6.534-2.839l 14.205-14.205q 2.839-2.839 2.839-6.534z" horiz-adv-x="288"  />
<glyph unicode="&#xf054;" d="M 286.659,160q0-15.002 -10.674-26.255l-188.11-187.821q-10.674-10.674 -25.967-10.674t-25.967,10.674l-21.927,21.638q-10.674,11.251 -10.674,26.255q0,15.291 10.674,25.967l 140.216,140.216l-140.216,139.927q-10.674,11.251 -10.674,26.255q0,15.291 10.674,25.967l 21.927,21.638q 10.385,10.962 25.967,10.962t 25.967-10.962l 188.11-187.821q 10.674-10.674 10.674-25.967z" horiz-adv-x="288"  />
<glyph unicode="&#xf053;" d="M 200.129-53.824l-188.126,187.838q-10.676,10.676 -10.676,26.113t 10.676,26.113l 188.126,187.838q 10.676,10.676 26.113,10.676t 26.113-10.676l 21.639-21.639q 10.676-10.676 10.676-26.113t-10.676-26.113l-140.228-140.228l 140.228-139.94q 10.676-10.965 10.676-26.256t-10.676-25.968l-21.639-21.639q-10.676-10.676 -26.113-10.676t-26.113,10.676z" horiz-adv-x="288"  />
<glyph unicode="&#xf0dc;" d="M 256,112q0-6.5 -4.75-11.25l-112-112q-4.75-4.75 -11.25-4.75t-11.25,4.75l-112,112q-4.75,4.75 -4.75,11.25t 4.75,11.25t 11.25,4.75l 224,0 q 6.5,0 11.25-4.75t 4.75-11.25zM 256,208q0-6.5 -4.75-11.25t-11.25-4.75l-224,0 q-6.5,0 -11.25,4.75t-4.75,11.25t 4.75,11.25l 112,112q 4.75,4.75 11.25,4.75t 11.25-4.75l 112-112q 4.75-4.75 4.75-11.25z" horiz-adv-x="256"  />
<glyph unicode="&#xf0dd;" d="M 256,112q0-6.5 -4.75-11.25l-112-112q-4.75-4.75 -11.25-4.75t-11.25,4.75l-112,112q-4.75,4.75 -4.75,11.25t 4.75,11.25t 11.25,4.75l 224,0 q 6.5,0 11.25-4.75t 4.75-11.25z" horiz-adv-x="256"  />
<glyph unicode="&#xf0de;" d="M 256,208q0-6.5 -4.75-11.25t-11.25-4.75l-224,0 q-6.5,0 -11.25,4.75t-4.75,11.25t 4.75,11.25l 112,112q 4.75,4.75 11.25,4.75t 11.25-4.75l 112-112q 4.75-4.75 4.75-11.25z" horiz-adv-x="256"  />
<glyph unicode="&#xe023;" d="M 175.1,384.154L 0.791,383.123l 0.066-173.189l 57.992,58.012l 77.336-77.336l 59.669,59.669
			L 118.541,327.618L 175.1,384.154z M 136.208,129.778l-77.336-77.359l-57.992,58.035l-0.066-174.622l 174.309,0.402l-56.559,56.536l 77.336,77.313
			L 136.208,129.778z M 311.815,190.613l 77.313,77.336l 57.992-58.012l 0.089,173.189l-174.309,1.031l 56.559-56.536l-77.336-77.336L 311.815,190.613z
			 M 389.128,52.419l-77.313,77.359l-59.692-59.692l 77.336-77.313l-56.559-56.536l 174.309-0.402l-0.089,174.622L 389.128,52.419z"  />
<glyph unicode="&#xe024;" d="M 130.984,309.482L 59.7,380.744L 4.702,325.742l 71.284-71.262l-53.451-53.451l 160.913-0.083
			l-0.349,160.646L 130.984,309.482z M 372.014,254.48l 71.284,71.262l-55.002,55.002l-71.284-71.262l-52.11,52.11l-0.349-160.646l 160.913,0.083
			L 372.014,254.48z M 75.987,65.52l-71.284-71.262l 55.002-55.002l 71.284,71.262l 52.133-52.11l 0.349,160.646l-160.913-0.083L 75.987,65.52z
			 M 425.469,118.971l-160.913,0.083l 0.349-160.646l 52.11,52.11l 71.284-71.262l 55.002,55.002l-71.284,71.262L 425.469,118.971z"  />
<glyph unicode="&#xe005;" d="M 252,104L 252,20L 308,20L 224-64L 140,20L 196,20L 196,104 		zM 196,216L 196,300L 140,300L 224,384L 308,300L 252,300L 252,216 		zM 168,132L 84,132L 84,76L0,160L 84,244L 84,188L 168,188 		zM 280,188L 364,188L 364,244L 448,160L 364,76L 364,132L 280,132 		z"  />
<glyph unicode="&#xe026;" d="M 443.915,24.086c-0.002,0.002-0.004,0.004-0.005,0.004L 308.003,160l 135.907,135.909c 0.002,0.002, 0.004,0.003, 0.005,0.004
		c 1.463,1.464, 2.521,3.174, 3.199,4.995c 1.858,4.977, 0.798,10.798-3.204,14.801L 379.708,379.91c-4.002,4.001-9.822,5.060-14.8,3.203
		c-1.82-0.678-3.531-1.736-4.995-3.198c0-0.002-0.002-0.003-0.004-0.004L 224.001,244L 88.092,379.909
		c-0.002,0.002-0.003,0.003-0.004,0.004c-1.464,1.462-3.174,2.52-4.994,3.198c-4.979,1.859-10.798,0.799-14.801-3.203L 4.091,315.707
		c-4.002-4.002-5.061-9.823-3.203-14.8c 0.679-1.82, 1.737-3.531, 3.199-4.995c 0.002-0.001, 0.003-0.003, 0.004-0.004L 140.001,160
		L 4.091,24.090c-0.001-0.002-0.003-0.003-0.004-0.004c-1.462-1.464-2.52-3.174-3.2-4.994c-1.859-4.977-0.799-10.798, 3.203-14.801
		l 64.202-64.201c 4.003-4.002, 9.823-5.061, 14.801-3.203c 1.82,0.679, 3.531,1.737, 4.995,3.199c 0.001,0.002, 0.003,0.003, 0.004,0.004
		l 135.909,135.909l 135.909-135.909c 0.002-0.001, 0.004-0.003, 0.005-0.004c 1.465-1.463, 3.174-2.521, 4.994-3.2
		c 4.978-1.858, 10.799-0.799, 14.8,3.203l 64.201,64.202c 4.002,4.002, 5.062,9.824, 3.204,14.801
		C 446.435,20.913, 445.378,22.622, 443.915,24.086z"  />
<glyph unicode="&#xe027;" d="M0,202l0-84 c0-7.732, 6.268-14, 14-14l 420,0 c 7.732,0, 14,6.268, 14,14l0,84 c0,7.732-6.268,14-14,14L 14,216 C 6.268,216,0,209.732,0,202z"  />
<glyph unicode="&#xe02f;" d="M 434,216L 280,216 L 280,370 c0,7.732-6.268,14-14,14l-84,0 c-7.732,0-14-6.268-14-14l0-154 L 14,216 c-7.732,0-14-6.268-14-14l0-84 
	c0-7.732, 6.268-14, 14-14l 154,0 l0-154 c0-7.732, 6.268-14, 14-14l 84,0 c 7.732,0, 14,6.268, 14,14L 280,104 l 154,0 c 7.732,0, 14,6.268, 14,14l0,84 
	C 448,209.732, 441.731,216, 434,216z"  />
<glyph unicode="&#xe030;" d="M 437.032,282.415l-34.976,34.976c-6.458,6.442-16.882,6.442-23.322,0L 169.028,107.684
	L 69.28,208.154c-6.442,6.442-16.866,6.442-23.322,0l-34.976-34.976c-6.442-6.458-6.442-16.882,0-23.322l 146.262-147.246
	c 6.442-6.442, 16.882-6.442, 23.322,0L 437.032,259.092C 443.474,265.518, 443.474,275.974, 437.032,282.415z"  />
<glyph unicode="&#xe02e;" d="M 430.088,356c-146.344-110.76-286.695-258.912-286.695-258.912L 42.252,188L0,144.96
			C 41.57,105.89, 137.883,2.685, 170.464-36C 262.16,117.204, 357.486,231.459, 448,335.942L 430.088,356z"  />
<glyph unicode="&#xe013;" d="M 308,370L 140,62L 84,146L0,146L 140-50L 448,370 z"  />
<glyph unicode="&#xe015;" d="M 438.774-65l-61.365,0 c-5.644,0-10.226,4.583-10.226,10.226s 4.583,10.226, 10.226,10.226L 428.544-44.544 l0,51.135 
	c0,5.644, 4.583,10.226, 10.226,10.226c 5.625,0, 10.226-4.583, 10.226-10.226l0-61.365 C 449-60.417, 444.399-65, 438.774-65z M 438.774,57.726c-5.644,0-10.226,4.583-10.226,10.226l0,61.365 
	c0,5.644, 4.583,10.226, 10.226,10.226c 5.625,0, 10.226-4.583, 10.226-10.226l0-61.365 C 449,62.309, 444.399,57.726, 438.774,57.726z M 438.774,180.456c-5.644,0-10.226,4.583-10.226,10.226l0,61.365 
	c0,5.644, 4.583,10.226, 10.226,10.226c 5.625,0, 10.226-4.583, 10.226-10.226l0-61.365 C 449,185.035, 444.399,180.456, 438.774,180.456z M 438.774,303.183C 433.126,303.183, 428.544,307.765, 428.544,313.409L 428.544,364.544 l-51.135,0 
	C 371.765,364.544, 367.183,369.126, 367.183,374.774S 371.765,385, 377.409,385l 61.365,0 C 444.399,385, 449,380.417, 449,374.774l0-61.365 C 449,307.765, 444.399,303.183, 438.774,303.183z M 196.715,56.642
	c-3.765-3.784-9.881-3.784-13.665,0l-3.026,3.026l0,0l-3.233,3.233l-14.235,14.235c-0.041,0.060-0.019,0.142-0.060,0.184L 97.284,143.024
	c-3.784,3.765-3.784,9.881,0,13.665l 20.494,20.516c 3.784,3.784, 9.9,3.784, 13.684,0l 58.5-58.931l 123.015,122.992
	c 3.765,3.784, 9.881,3.784, 13.665,0l 20.494-20.516c 3.806-3.784, 3.806-9.9,0-13.684L 196.715,56.642z M 316.044,364.544l-61.365,0 C 249.035,364.544, 244.456,369.126, 244.456,374.774
	S 249.035,385, 254.683,385l 61.365,0 C 321.669,385, 326.274,380.417, 326.274,374.774S 321.669,364.544, 316.044,364.544z M 193.317,364.544l-61.365,0 C 126.309,364.544, 121.726,369.126, 121.726,374.774S 126.309,385, 131.956,385l 61.365,0 
	C 198.942,385, 203.544,380.417, 203.544,374.774S 198.942,364.544, 193.317,364.544z M 70.591-65l-61.365,0 C 3.583-65, -1-60.417, -1-54.774l0,61.365 C -1,12.235, 3.583,16.817, 9.226,16.817
	C 14.874,16.817, 19.456,12.235, 19.456,6.591L 19.456-44.544 l 51.135,0 C 76.235-44.544, 80.817-49.126, 80.817-54.774S 76.235-65, 70.591-65z M 70.591,364.544L 19.456,364.544 l0-51.135 C 19.456,307.765, 14.874,303.183, 9.226,303.183
	C 3.583,303.183, -1,307.765, -1,313.409l0,61.365 C -1,380.417, 3.583,385, 9.226,385l 61.365,0 C 76.235,385, 80.817,380.417, 80.817,374.774S 76.235,364.544, 70.591,364.544z M 9.226,262.274C 14.874,262.274, 19.456,257.691, 19.456,252.044l0-61.365 
	C 19.456,185.035, 14.874,180.456, 9.226,180.456C 3.583,180.456, -1,185.035, -1,190.683l0,61.365 C -1,257.691, 3.583,262.274, 9.226,262.274z M 9.226,139.544C 14.874,139.544, 19.456,134.965, 19.456,129.317l0-61.365 
	C 19.456,62.309, 14.874,57.726, 9.226,57.726C 3.583,57.726, -1,62.309, -1,67.956l0,61.365 C -1,134.965, 3.583,139.544, 9.226,139.544z M 131.956-44.544l 61.365,0 c 5.625,0, 10.226-4.583, 10.226-10.226
	S 198.942-65, 193.317-65l-61.365,0 c-5.644,0-10.226,4.583-10.226,10.226S 126.309-44.544, 131.956-44.544z M 254.683-44.544l 61.365,0 c 5.625,0, 10.226-4.583, 10.226-10.226S 321.669-65, 316.044-65l-61.365,0 
	c-5.644,0-10.226,4.583-10.226,10.226S 249.035-44.544, 254.683-44.544z"  />
<glyph unicode="&#xe032;" d="M 438.774-65l-61.365,0 c-5.644,0-10.226,4.583-10.226,10.226s 4.583,10.226, 10.226,10.226L 428.544-44.544 l0,51.135 
	c0,5.644, 4.583,10.226, 10.226,10.226c 5.625,0, 10.226-4.583, 10.226-10.226l0-61.365 C 449-60.417, 444.399-65, 438.774-65z M 438.774,57.726c-5.644,0-10.226,4.583-10.226,10.226l0,61.365 
	c0,5.644, 4.583,10.226, 10.226,10.226c 5.625,0, 10.226-4.583, 10.226-10.226l0-61.365 C 449,62.309, 444.399,57.726, 438.774,57.726z M 438.774,180.456c-5.644,0-10.226,4.583-10.226,10.226l0,61.365 
	c0,5.644, 4.583,10.226, 10.226,10.226c 5.625,0, 10.226-4.583, 10.226-10.226l0-61.365 C 449,185.035, 444.399,180.456, 438.774,180.456z M 438.774,303.183C 433.126,303.183, 428.544,307.765, 428.544,313.409L 428.544,364.544 l-51.135,0 
	C 371.765,364.544, 367.183,369.126, 367.183,374.774S 371.765,385, 377.409,385l 61.365,0 C 444.399,385, 449,380.417, 449,374.774l0-61.365 C 449,307.765, 444.399,303.183, 438.774,303.183z M 316.044-65l-61.365,0 
	c-5.644,0-10.226,4.583-10.226,10.226s 4.583,10.226, 10.226,10.226l 61.365,0 c 5.625,0, 10.226-4.583, 10.226-10.226S 321.669-65, 316.044-65z M 316.044,364.544l-61.365,0 
	C 249.035,364.544, 244.456,369.126, 244.456,374.774S 249.035,385, 254.683,385l 61.365,0 C 321.669,385, 326.274,380.417, 326.274,374.774S 321.669,364.544, 316.044,364.544z M 193.317,364.544l-61.365,0 C 126.309,364.544, 121.726,369.126, 121.726,374.774
	S 126.309,385, 131.956,385l 61.365,0 C 198.942,385, 203.544,380.417, 203.544,374.774S 198.942,364.544, 193.317,364.544z M 70.591-65l-61.365,0 C 3.583-65, -1-60.417, -1-54.774l0,61.365 C -1,12.235, 3.583,16.817, 9.226,16.817
	C 14.874,16.817, 19.456,12.235, 19.456,6.591L 19.456-44.544 l 51.135,0 C 76.235-44.544, 80.817-49.126, 80.817-54.774S 76.235-65, 70.591-65z M 70.591,364.544L 19.456,364.544 l0-51.135 C 19.456,307.765, 14.874,303.183, 9.226,303.183
	C 3.583,303.183, -1,307.765, -1,313.409l0,61.365 C -1,380.417, 3.583,385, 9.226,385l 61.365,0 C 76.235,385, 80.817,380.417, 80.817,374.774S 76.235,364.544, 70.591,364.544z M 9.226,262.274C 14.874,262.274, 19.456,257.691, 19.456,252.044l0-61.365 
	C 19.456,185.035, 14.874,180.456, 9.226,180.456C 3.583,180.456, -1,185.035, -1,190.683l0,61.365 C -1,257.691, 3.583,262.274, 9.226,262.274z M 9.226,139.544C 14.874,139.544, 19.456,134.965, 19.456,129.317l0-61.365 
	C 19.456,62.309, 14.874,57.726, 9.226,57.726C 3.583,57.726, -1,62.309, -1,67.956l0,61.365 C -1,134.965, 3.583,139.544, 9.226,139.544z M 320.874,83.849l-20.741-20.741
	c-3.806-3.825-9.983-3.825-13.808,0l-58.706,58.706l-58.706-58.706c-3.825-3.825-9.983-3.825-13.808,0l-20.719,20.741
	c-3.825,3.825-3.825,9.983,0,13.808l 58.725,58.706l-58.725,58.706c-3.825,3.806-3.825,9.983,0,13.808l 20.719,20.719
	c 3.825,3.825, 9.983,3.825, 13.808,0l 58.706-58.706l 58.706,58.706c 3.825,3.825, 10.001,3.825, 13.808,0l 20.741-20.719
	c 3.806-3.825, 3.806-10.001,0-13.808l-58.725-58.706l 58.725-58.706C 324.676,93.85, 324.676,87.674, 320.874,83.849z M 131.956-44.544l 61.365,0 
	c 5.625,0, 10.226-4.583, 10.226-10.226S 198.942-65, 193.317-65l-61.365,0 c-5.644,0-10.226,4.583-10.226,10.226S 126.309-44.544, 131.956-44.544z"  />
<glyph unicode="&#xe03a;" d="M 70.591,385l-61.365,0 C 3.583,385, -1,380.417, -1,374.774l0-61.365 C -1,307.765, 3.583,303.183, 9.226,303.183C 14.874,303.183, 19.456,307.765, 19.456,313.409
			L 19.456,364.544 l 51.135,0 C 76.235,364.544, 80.817,369.126, 80.817,374.774S 76.235,385, 70.591,385z M 131.956,364.544l 61.365,0 C 198.942,364.544, 203.544,369.126, 203.544,374.774S 198.942,385, 193.317,385l-61.365,0 C 126.309,385, 121.726,380.417, 121.726,374.774
			S 126.309,364.544, 131.956,364.544z M 316.044,385l-61.365,0 C 249.035,385, 244.456,380.417, 244.456,374.774S 249.035,364.544, 254.683,364.544l 61.365,0 C 321.669,364.544, 326.274,369.126, 326.274,374.774S 321.669,385, 316.044,385z M 438.774,385l-61.365,0 
			C 371.765,385, 367.183,380.417, 367.183,374.774S 371.765,364.544, 377.409,364.544L 428.544,364.544 l0-51.135 C 428.544,307.765, 433.126,303.183, 438.774,303.183C 444.399,303.183, 449,307.765, 449,313.409l0,61.365 
			C 449,380.417, 444.399,385, 438.774,385z M 438.774,262.274c-5.644,0-10.226-4.583-10.226-10.226l0-61.365 c0-5.644, 4.583-10.226, 10.226-10.226c 5.625,0, 10.226,4.583, 10.226,10.226l0,61.365 
			C 449,257.691, 444.399,262.274, 438.774,262.274z M 438.774,139.544c-5.644,0-10.226-4.583-10.226-10.226l0-61.365 c0-5.644, 4.583-10.226, 10.226-10.226c 5.625,0, 10.226,4.583, 10.226,10.226l0,61.365 
			C 449,134.965, 444.399,139.544, 438.774,139.544z M 438.774,16.817c-5.644,0-10.226-4.583-10.226-10.226L 428.544-44.544 l-51.135,0 c-5.644,0-10.226-4.583-10.226-10.226s 4.583-10.226, 10.226-10.226l 61.365,0 
			c 5.625,0, 10.226,4.583, 10.226,10.226l0,61.365 C 449,12.235, 444.399,16.817, 438.774,16.817z M 316.044-44.544l-61.365,0 c-5.644,0-10.226-4.583-10.226-10.226s 4.583-10.226, 10.226-10.226l 61.365,0 
			c 5.625,0, 10.226,4.583, 10.226,10.226S 321.669-44.544, 316.044-44.544z M 193.317-44.544l-61.365,0 c-5.644,0-10.226-4.583-10.226-10.226s 4.583-10.226, 10.226-10.226l 61.365,0 
			c 5.625,0, 10.226,4.583, 10.226,10.226S 198.942-44.544, 193.317-44.544z M 70.591-44.544L 19.456-44.544 l0,51.135 C 19.456,12.235, 14.874,16.817, 9.226,16.817C 3.583,16.817, -1,12.235, -1,6.591l0-61.365 
			C -1-60.417, 3.583-65, 9.226-65l 61.365,0 C 76.235-65, 80.817-60.417, 80.817-54.774S 76.235-44.544, 70.591-44.544z M 9.226,57.726C 14.874,57.726, 19.456,62.309, 19.456,67.956l0,61.365 
			C 19.456,134.965, 14.874,139.544, 9.226,139.544C 3.583,139.544, -1,134.965, -1,129.317l0-61.365 C -1,62.309, 3.583,57.726, 9.226,57.726z M 9.226,180.456C 14.874,180.456, 19.456,185.035, 19.456,190.683l0,61.365 
			C 19.456,257.691, 14.874,262.274, 9.226,262.274C 3.583,262.274, -1,257.691, -1,252.044l0-61.365 C -1,185.035, 3.583,180.456, 9.226,180.456z M 140.915,139.544l 163.635,0 c 11.31,0, 20.456,9.165, 20.456,20.456
			c0,11.31-9.142,20.456-20.456,20.456l-163.635,0 c-11.31,0-20.456-9.142-20.456-20.456C 120.459,148.709, 129.601,139.544, 140.915,139.544z"  />
<glyph unicode="&#xe03b;" d="M 438.774-65l-61.365,0 c-5.644,0-10.226,4.583-10.226,10.226s 4.583,10.226, 10.226,10.226L 428.544-44.544 l0,51.135 
	c0,5.644, 4.583,10.226, 10.226,10.226c 5.625,0, 10.226-4.583, 10.226-10.226l0-61.365 C 449-60.417, 444.399-65, 438.774-65z M 438.774,57.726c-5.644,0-10.226,4.583-10.226,10.226l0,61.365 
	c0,5.644, 4.583,10.226, 10.226,10.226c 5.625,0, 10.226-4.583, 10.226-10.226l0-61.365 C 449,62.309, 444.399,57.726, 438.774,57.726z M 438.774,180.456c-5.644,0-10.226,4.583-10.226,10.226l0,61.365 
	c0,5.644, 4.583,10.226, 10.226,10.226c 5.625,0, 10.226-4.583, 10.226-10.226l0-61.365 C 449,185.035, 444.399,180.456, 438.774,180.456z M 438.774,303.183C 433.126,303.183, 428.544,307.765, 428.544,313.409L 428.544,364.544 l-51.135,0 
	C 371.765,364.544, 367.183,369.126, 367.183,374.774S 371.765,385, 377.409,385l 61.365,0 C 444.399,385, 449,380.417, 449,374.774l0-61.365 C 449,307.765, 444.399,303.183, 438.774,303.183z M 316.044-65l-61.365,0 
	c-5.644,0-10.226,4.583-10.226,10.226s 4.583,10.226, 10.226,10.226l 61.365,0 c 5.625,0, 10.226-4.583, 10.226-10.226S 321.669-65, 316.044-65z M 316.044,364.544l-61.365,0 
	C 249.035,364.544, 244.456,369.126, 244.456,374.774S 249.035,385, 254.683,385l 61.365,0 C 321.669,385, 326.274,380.417, 326.274,374.774S 321.669,364.544, 316.044,364.544z M 304.55,180.456c 11.291,0, 20.456-9.142, 20.456-20.456
	c0-11.291-9.165-20.456-20.456-20.456l-61.365,0 l0-61.365 c0-11.291-9.165-20.456-20.456-20.456c-11.31,0-20.456,9.165-20.456,20.456l0,61.365 l-61.365,0 c-11.291,0-20.456,9.165-20.456,20.456c0,11.31, 9.142,20.456, 20.456,20.456l 61.365,0 l0,61.365 
	c0,11.31, 9.142,20.456, 20.456,20.456c 11.291,0, 20.456-9.142, 20.456-20.456l0-61.365 L 304.55,180.456 z M 193.317,364.544l-61.365,0 C 126.309,364.544, 121.726,369.126, 121.726,374.774S 126.309,385, 131.956,385l 61.365,0 
	C 198.942,385, 203.544,380.417, 203.544,374.774S 198.942,364.544, 193.317,364.544z M 70.591-65l-61.365,0 C 3.583-65, -1-60.417, -1-54.774l0,61.365 C -1,12.235, 3.583,16.817, 9.226,16.817
	C 14.874,16.817, 19.456,12.235, 19.456,6.591L 19.456-44.544 l 51.135,0 C 76.235-44.544, 80.817-49.126, 80.817-54.774S 76.235-65, 70.591-65z M 70.591,364.544L 19.456,364.544 l0-51.135 C 19.456,307.765, 14.874,303.183, 9.226,303.183
	C 3.583,303.183, -1,307.765, -1,313.409l0,61.365 C -1,380.417, 3.583,385, 9.226,385l 61.365,0 C 76.235,385, 80.817,380.417, 80.817,374.774S 76.235,364.544, 70.591,364.544z M 9.226,262.274C 14.874,262.274, 19.456,257.691, 19.456,252.044l0-61.365 
	C 19.456,185.035, 14.874,180.456, 9.226,180.456C 3.583,180.456, -1,185.035, -1,190.683l0,61.365 C -1,257.691, 3.583,262.274, 9.226,262.274z M 9.226,139.544C 14.874,139.544, 19.456,134.965, 19.456,129.317l0-61.365 
	C 19.456,62.309, 14.874,57.726, 9.226,57.726C 3.583,57.726, -1,62.309, -1,67.956l0,61.365 C -1,134.965, 3.583,139.544, 9.226,139.544z M 131.956-44.544l 61.365,0 c 5.625,0, 10.226-4.583, 10.226-10.226
	S 198.942-65, 193.317-65l-61.365,0 c-5.644,0-10.226,4.583-10.226,10.226S 126.309-44.544, 131.956-44.544z"  />
<glyph unicode="&#xe03c;" d="M 224,381C 101.94,381, 3,282.060, 3,160s 98.94-221, 221-221s 221,98.94, 221,221S 346.060,381, 224,381z
			 M 258.664,78.689c-16.676-25.041-33.644-44.336-62.186-44.336c-19.481,3.179-27.489,17.137-23.273,31.365l 36.719,121.618
			c 0.901,2.974-0.595,6.155-3.315,7.124c-2.704,0.952-8.008-2.567-12.597-7.599l-22.201-26.708c-0.595,4.488-0.068,11.901-0.068,14.892
			c 16.676,25.041, 44.080,44.795, 62.663,44.795c 17.663-1.801, 26.026-15.929, 22.951-31.45l-36.975-122.213c-0.494-2.753, 0.969-5.558, 3.468-6.442
			c 2.72-0.952, 8.431,2.567, 13.039,7.599l 22.185,26.689C 259.666,89.534, 258.664,81.681, 258.664,78.689z M 253.715,237.538
			c-14.043,0-25.432,10.234-25.432,25.295c0,15.061, 11.391,25.279, 25.432,25.279s 25.432-10.234, 25.432-25.279
			C 279.149,247.754, 267.758,237.538, 253.715,237.538z"  />
<glyph unicode="&#xe03d;" d="M 228.093,336.126c0-26.324, 19.868-44.16, 44.395-44.16c 24.526,0, 44.426,17.851, 44.426,44.16
	c0,26.34-19.884,44.176-44.426,44.176C 247.977,380.302, 228.093,362.466, 228.093,336.126z M 131.941,185.402c0-5.221-0.953-18.18, 0.125-25.98
	l 38.751,46.631c 8.019,8.785, 17.289,14.928, 22.026,13.272c 4.752-1.657, 7.347-7.238, 5.799-12.428L 134.505-5.542
	c-7.394-24.824, 6.581-49.21, 40.628-54.774c 49.85,0, 79.473,33.734, 108.611,77.456c0,5.221, 1.735,18.961, 0.688,26.778l-38.751-46.614
	c-8.035-8.785-17.993-14.928-22.745-13.287c-4.377,1.532-6.941,6.409-6.081,11.271l 64.591,213.423c 5.378,27.106-9.223,51.773-40.081,54.93
	C 208.913,263.625, 161.079,229.11, 131.941,185.402z"  />
<glyph unicode="&#xe03e;" d="M 224,381C 101.94,381, 3,282.060, 3,160s 98.94-221, 221-221s 221,98.94, 221,221S 346.060,381, 224,381z M 224-10.001
			c-93.873,0-170.001,76.125-170.001,170.001c0,93.892, 76.125,170.001, 170.001,170.001c 93.892,0, 170.001-76.109, 170.001-170.001C 394.001,66.127, 317.892-10.001, 224-10.001z M 287.547,177l-136,0 
			c-9.402,0-17-7.615-17-17c0-9.402, 7.599-17, 17-17l 136,0 c 9.402,0, 17,7.599, 17,17C 304.545,169.383, 296.947,177, 287.547,177z"  />
<glyph unicode="&#xe03f;" d="M 224-61c 122.060,0 221,98.94 221,221s -98.94,221, -221,221c -122.060,0, -221-98.94, -221-221
			S 101.94-61, 224-61z M 113.5,166.376c0,9.402 7.615,17 17,17L 317.5,183.374 c 9.402,0 17-7.599 17-17l 0-17 c 0-9.383, -7.599-17, -17-17l -186.999,0 c -9.383,0, -17,7.615, -17,17
			L 113.5,166.376 z"  />
<glyph unicode="&#xe040;" d="M 224-61C 101.94-61, 3,37.94, 3,160S 101.94,381, 224,381s 221-98.94, 221-221S 346.060-61, 224-61z M 224,330.001
	C 130.127,330.001, 53.999,253.892, 53.999,160c0-93.873, 76.125-170.001, 170.001-170.001c 93.892,0, 170.001,76.125, 170.001,170.001C 394.001,253.892, 317.892,330.001, 224,330.001z M 291.795,143l-50.999,0 l0-50.999 
	c0-9.402-7.615-17-17-17c-9.402,0-17,7.599-17,17l0,50.999 l-50.999,0 c-9.402,0-17,7.615-17,17c0,9.383, 7.599,17, 17,17l 50.999,0 l0,50.999 c0,9.402, 7.599,17, 17,17
	c 9.383,0, 17-7.599, 17-17l0-50.999 l 50.999,0 c 9.383,0, 17-7.615, 17-17C 308.796,150.617, 301.181,143, 291.795,143z"  />
<glyph unicode="&#xe041;" d="M 224-61c-122.060,0-221,98.94-221,221s 98.94,221, 221,221s 221-98.94, 221-221
	S 346.060-61, 224-61z M 333.447,169.555c0,9.383-7.615,17-17,17l-68,0 l0,68 c0,9.383-7.599,17-17,17l-17,0 c-9.402,0-17-7.615-17-17l0-68 l-68,0 
	c-9.402,0-17-7.615-17-17l0-17 c0-9.402, 7.599-17, 17-17l 68,0 l0-68 c0-9.402, 7.599-17, 17-17l 17,0 c 9.402,0, 17,7.599, 17,17l0,68 l 68,0 c 9.383,0, 17,7.599, 17,17L 333.447,169.555 z"  />
<glyph unicode="&#xe042;" d="M 224-57C 104.15-57, 7,40.15, 7,160S 104.15,377, 224,377s 217-97.15, 217-217S 343.85-57, 224-57z M 224,326.925
	C 131.827,326.925, 57.075,252.173, 57.075,160s 74.747-166.925, 166.925-166.925c 92.192,0, 166.925,74.747, 166.925,166.925S 316.192,326.925, 224,326.925z M 299.733,100.995l-16.926-16.926
	c-3.104-3.104-8.147-3.104-11.265,0l-47.905,47.905l-47.905-47.905c-3.123-3.104-8.147-3.104-11.265,0l-16.926,16.926
	c-3.104,3.104-3.104,8.147,0,11.265l 47.924,47.891l-47.924,47.905c-3.104,3.123-3.104,8.161,0,11.284l 16.926,16.907
	c 3.123,3.123, 8.147,3.123, 11.265,0l 47.905-47.905l 47.905,47.905c 3.123,3.123, 8.161,3.123, 11.265,0l 16.926-16.907
	c 3.104-3.123, 3.104-8.161,0-11.284l-47.924-47.905l 47.924-47.891C 302.837,109.137, 302.837,104.080, 299.733,100.995z"  />
<glyph unicode="&#xe043;" d="M 224-61C 101.94-61, 3,37.94, 3,160S 101.94,381, 224,381s 221-98.94, 221-221S 346.060-61, 224-61z
	 M 325.338,224.447c 4.147,4.147, 4.147,10.897,0,15.045l-22.575,22.559c-4.147,4.147-10.897,4.147-15.045,0l-63.937-63.937l-63.937,63.937
	c-4.147,4.147-10.897,4.147-15.045,0l-22.575-22.559c-4.147-4.147-4.147-10.897,0-15.045l 63.954-63.954l-63.954-63.921
	c-4.147-4.147-4.147-10.897,0-15.045l 22.575-22.575c 4.147-4.147, 10.897-4.147, 15.045,0l 63.937,63.954l 63.937-63.954
	c 4.147-4.147, 10.897-4.147, 15.045,0l 22.575,22.575c 4.147,4.147, 4.147,10.897,0,15.045l-63.954,63.921L 325.338,224.447z"  />
<glyph unicode="&#xe044;" d="M 321.15,209.575l-16.728,16.728c-3.090,3.090-8.081,3.090-11.152,0l-100.386-100.372l-47.721,48.108c-3.104,3.090-8.081,3.090-11.185,0
		l-16.728-16.742c-3.090-3.090-3.090-8.081,0-11.152l 69.992-70.492c 3.090-3.071, 8.081-3.071, 11.152,0l 122.756,122.756
		C 324.254,201.499, 324.254,206.49, 321.15,209.575zM 224,377C 104.15,377, 7,279.85, 7,160s 97.15-217, 217-217s 217,97.15, 217,217S 343.85,377, 224,377z M 224-6.925c-92.173,0-166.925,74.747-166.925,166.925
		c0,92.192, 74.747,166.925, 166.925,166.925c 92.192,0, 166.925-74.733, 166.925-166.925C 390.925,67.827, 316.192-6.925, 224-6.925z"  />
<glyph unicode="&#xe045;" d="M 224,381C 101.94,381, 3,282.060, 3,160s 98.94-221, 221-221s 221,98.94, 221,221S 346.060,381, 224,381z
	 M 347.386,222.781l-161.262-161.245c-4.046-4.030-10.591-4.030-14.638,0l-3.247,3.247l-0.017-0.017L 79.499,154.118
	c-4.046,4.046-4.046,10.608,0,14.654l 21.999,21.98c 4.046,4.046, 10.608,4.046, 14.654,0l 62.712-63.173l 131.852,131.852
	c 4.046,4.046, 10.608,4.046, 14.654,0l 21.999-21.999C 351.432,233.405, 351.432,226.843, 347.386,222.781z"  />
<glyph unicode="&#xe046;" d="M 224,377C 104.152,377, 7,279.848, 7,160S 104.152-57, 224-57S 441,40.152, 441,160
			S 343.848,377, 224,377z M 224-8.776C 130.786-8.776, 55.224,66.786, 55.224,160S 130.786,328.776, 224,328.776S 392.776,253.214, 392.776,160S 317.214-8.776, 224-8.776z M 224,264.48
			c-13.308,0-24.112-10.786-24.112-24.112l0-81.368 c0-13.308, 10.8-24.112, 24.112-24.112s 24.112,10.8, 24.112,24.112L 248.112,240.372 C 248.112,253.694, 237.308,264.48, 224,264.48z M 224,103.74
			c-13.308,0-24.112-10.8-24.112-24.112s 10.8-24.112, 24.112-24.112s 24.112,10.8, 24.112,24.112S 237.308,103.74, 224,103.74z"  />
<glyph unicode="&#xe048;" d="M 224,377c-119.85,0-217-97.15-217-217s 97.15-217, 217-217s 217,97.15, 217,217
			S 343.85,377, 224,377z M 224,36.895c-13.836,0-25.040,11.218-25.040,25.040s 11.199,25.040, 25.040,25.040c 13.822,0, 25.040-11.218, 25.040-25.040
			S 237.822,36.895, 224,36.895z M 249.040,145.395c0-13.822-11.218-25.040-25.040-25.040c-13.836,0-25.040,11.218-25.040,25.040l0,116.845 c0,13.836, 11.199,25.040, 25.040,25.040
			c 13.822,0, 25.040-11.199, 25.040-25.040L 249.040,145.395 z"  />
<glyph unicode="&#xf056;" d="M 301.667,144.333l0,31.333 q0,6.364 -4.651,11.016t-11.016,4.651l-188,0 q-6.364,0 -11.016-4.651t-4.651-11.016l0-31.333 q0-6.364 4.651-11.016t 11.016-4.651l 188,0 q 6.364,0 11.016,4.651t 4.651,11.016zM 380,160q0-51.162 -25.213-94.368t-68.419-68.419t-94.368-25.213t-94.368,25.213t-68.419,68.419t-25.213,94.368t 25.213,94.368t 68.419,68.419t 94.368,25.213t 94.368-25.213t 68.419-68.419 t 25.213-94.368z" horiz-adv-x="384"  />
<glyph unicode="&#xf055;" d="M 304,144l0,32 q0,6.5 -4.75,11.25t-11.25,4.75l-64,0 l0,64 q0,6.5 -4.75,11.25t-11.25,4.75l-32,0 q-6.5,0 -11.25-4.75t-4.75-11.25l0-64 l-64,0 q-6.5,0 -11.25-4.75t-4.75-11.25l0-32 q0-6.5 4.75-11.25t 11.25-4.75l 64,0 l0-64 q0-6.5 4.75-11.25t 11.25-4.75l 32,0 q 6.5,0 11.25,4.75t 4.75,11.25l0,64 l 64,0 q 6.5,0 11.25,4.75t 4.75,11.25zM 384,160q0-52.25 -25.75-96.375 t-69.875-69.875t-96.375-25.75t-96.375,25.75t-69.875,69.875t-25.75,96.375t 25.75,96.375t 69.875,69.875t 96.375,25.75t 96.375-25.75t 69.875-69.875t 25.75-96.375z" horiz-adv-x="384"  />
<glyph unicode="&#xf057;" d="M 287.25,103.5q0,6.5 -4.75,11.25l-45.25,45.25l 45.25,45.25q 4.75,4.75 4.75,11.25q0,6.75 -4.75,11.5l-22.5,22.5q-4.75,4.75 -11.5,4.75q-6.5,0 -11.25-4.75l-45.25-45.25l-45.25,45.25q-4.75,4.75 -11.25,4.75q-6.75,0 -11.5-4.75l-22.5-22.5q-4.75-4.75 -4.75-11.5q0-6.5 4.75-11.25l 45.25-45.25l-45.25-45.25q-4.75-4.75 -4.75-11.25q0-6.75 4.75-11.5l 22.5-22.5q 4.75-4.75 11.5-4.75 q 6.5,0 11.25,4.75l 45.25,45.25l 45.25-45.25q 4.75-4.75 11.25-4.75q 6.75,0 11.5,4.75l 22.5,22.5q 4.75,4.75 4.75,11.5zM 384,160q0-52.25 -25.75-96.375t-69.875-69.875t-96.375-25.75t-96.375,25.75t-69.875,69.875t-25.75,96.375t 25.75,96.375t 69.875,69.875t 96.375,25.75t 96.375-25.75t 69.875-69.875t 25.75-96.375z" horiz-adv-x="384"  />
<glyph unicode="&#xf058;" d="M 321,200.5q0,7 -4.5,11.5l-22.75,22.5q-4.75,4.75 -11.25,4.75t-11.25-4.75l-102-101.75l-56.5,56.5q-4.75,4.75 -11.25,4.75t-11.25-4.75l-22.75-22.5q-4.5-4.5 -4.5-11.5q0-6.75 4.5-11.25l 90.5-90.5q 4.75-4.75 11.25-4.75q 6.75,0 11.5,4.75l 135.75,135.75q 4.5,4.5 4.5,11.25zM 384,160q0-52.25 -25.75-96.375t-69.875-69.875t-96.375-25.75t-96.375,25.75 t-69.875,69.875t-25.75,96.375t 25.75,96.375t 69.875,69.875t 96.375,25.75t 96.375-25.75t 69.875-69.875t 25.75-96.375z" horiz-adv-x="384"  />
<glyph unicode="&#xf059;" d="M 224,40l0,48 q0,3.25 -2.375,5.625t-5.625,2.375l-48,0 q-3.25,0 -5.625-2.375t-2.375-5.625l0-48 q0-3.25 2.375-5.625t 5.625-2.375l 48,0 q 3.25,0 5.625,2.375t 2.375,5.625zM 288,208q0,24.25 -14.625,43t-36.125,27.875t-45.25,9.125t-45.25-9.125t-36.125-27.875t-14.625-43l0-2.75 l0-3.25 t 0.25-2.875t 0.75-2.875t 1.375-2t 2.25-1.75 t 3.375-0.5l 48,0 q 3.5,0 5.75,2.25t 2.25,5.75q0,3 2.75,6.75q 4.75,7.75 12.625,12.5t 16.625,4.75q 9.75,0 20.75-5.375t 11-14.375q0-8.25 -6.625-14.5t-15.875-11t-18.625-10.375t-16-15.875t-6.625-24.5l0-2.75 l0-3.25 t 0.25-2.875t 0.75-2.875t 1.375-2t 2.25-1.75t 3.375-0.5l 48,0 q 4.25,0 6,2.625t 2,6.125t 3.375,8.25t 9.375,8q 15,8.25 17.5,9.75q 15.5,11 24.625,27 t 9.125,34.25zM 384,160q0-52.25 -25.75-96.375t-69.875-69.875t-96.375-25.75t-96.375,25.75t-69.875,69.875t-25.75,96.375t 25.75,96.375t 69.875,69.875t 96.375,25.75t 96.375-25.75t 69.875-69.875t 25.75-96.375z" horiz-adv-x="384"  />
<glyph unicode="&#xf06a;" d="M 192,352q 52.25,0 96.375-25.75t 69.875-69.875t 25.75-96.375t-25.75-96.375t-69.875-69.875t-96.375-25.75t-96.375,25.75t-69.875,69.875t-25.75,96.375t 25.75,96.375t 69.875,69.875t 96.375,25.75zM 224,40.25l0,47.5 q0,3.5 -2.25,5.875t-5.5,2.375l-48,0 q-3.25,0 -5.75-2.5t-2.5-5.75l0-47.5 q0-3.25 2.5-5.75t 5.75-2.5l 48,0  q 3.25,0 5.5,2.375t 2.25,5.875zM 223.5,126.25l 4.5,155.25q0,3 -2.5,4.5q-2.5,2 -6,2l-55,0 q-3.5,0 -6-2q-2.5-1.5 -2.5-4.5l 4.25-155.25q0-2.5 2.5-4.375t 6-1.875l 46.25,0 q 3.5,0 5.875,1.875t 2.625,4.375z" horiz-adv-x="384"  />
<glyph unicode="&#xf05a;" d="M 256,40l0,16 q0,3.5 -2.25,5.75t-5.75,2.25l-24,0 l0,120 q0,3.5 -2.25,5.75t-5.75,2.25l-80,0 q-3.5,0 -5.75-2.25t-2.25-5.75l0-16 q0-3.5 2.25-5.75t 5.75-2.25l 24,0 l0-96 l-24,0 q-3.5,0 -5.75-2.25t-2.25-5.75l0-16 q0-3.5 2.25-5.75t 5.75-2.25l 112,0 q 3.5,0 5.75,2.25t 2.25,5.75zM 224,232l0,48 q0,3.5 -2.25,5.75t-5.75,2.25l-48,0 q-3.5,0 -5.75-2.25t-2.25-5.75l0-48 q0-3.5 2.25-5.75 t 5.75-2.25l 48,0 q 3.5,0 5.75,2.25t 2.25,5.75zM 384,160q0-52.25 -25.75-96.375t-69.875-69.875t-96.375-25.75t-96.375,25.75t-69.875,69.875t-25.75,96.375t 25.75,96.375t 69.875,69.875t 96.375,25.75t 96.375-25.75t 69.875-69.875t 25.75-96.375z" horiz-adv-x="384"  />
<glyph unicode="&#xe049;" d="M 224,384c-71.461,0-129.387-57.927-129.387-129.386c0-1.762, 0.053-3.588, 0.14-5.446c 0.044-1.080, 0.11-2.147, 0.183-3.222
	c 0.045-0.682, 0.099-1.377, 0.158-2.075c 0.091-1.141, 0.184-2.284, 0.306-3.418C 106.13,135.931, 224.001-64, 224.001-64
	s 117.867,199.93, 128.599,304.454c 0.125,1.133, 0.214,2.278, 0.307,3.417c 0.057,0.697, 0.115,1.393, 0.16,2.075
	c 0.074,1.075, 0.138,2.141, 0.184,3.223c 0.085,1.859, 0.137,3.685, 0.137,5.446C 353.383,326.074, 295.458,384, 224,384z M 280,244
	c0-30.929-25.072-56-56-56c-30.928,0-56,25.071-56,56s 25.072,56, 56,56C 254.928,300, 280,274.929, 280,244z"  />
<glyph unicode="&#xe04a;" d="M 133.738,242.964c0,49.546, 40.42,89.698, 90.262,89.698s 90.262-40.16, 90.262-89.698
	S 273.842,153.288, 224,153.288S 133.738,193.44, 133.738,242.964z M 70.558,231.772c0-37.522, 45.788-116.628, 45.788-116.628L 224-64.252l 101.476,179.382
	c0,0, 51.966,79.676, 51.966,116.628c0,84.214-68.708,152.474-153.442,152.474S 70.558,315.986, 70.558,231.772z"  />
<glyph unicode="&#xe04b;" d="M 307.264-63.7l 130.562,59.667L 437.825,383.7 l-130.562-59.646L 307.264-63.7 z M 159.305-4.033l 129.579-53.706
	L 288.884,330.012 l-129.579,53.688L 159.305-4.033 z M 10.161,324.054L 10.161-63.7 l 130.749,53.688L 140.907,377.742 L 10.161,324.054z"  />
<glyph unicode="&#xe059;" d="M 61.272,96.58L 293.564,328.871l 99.387-99.387L 160.658-2.807L 61.272,96.58z
	 M 304.253,272.851l-10.892,10.876L 106.401,96.782l 10.892-10.892L 304.253,272.851z M 326.037,251.066l-10.892,10.892L 128.185,74.983l 10.876-10.876
	L 326.037,251.066z M 347.821,229.282l-10.892,10.892L 149.969,53.215l 10.892-10.892L 347.821,229.282z M 338.052,372.751
	c 12.187,12.218, 31.912,12.297, 44.005,0.203l 54.803-54.803c 12.093-12.093, 12.016-31.802-0.187-44.005l-33.862-33.862l-98.622,98.622L 338.052,372.751z
	 M 53.626,83.644l 94.096-94.096L 65.267-39.743l-40.931,40.931L 53.626,83.644z M 49.647-44.845l-47.844-17.431l 17.431,47.844L 49.647-44.845z"  />
<glyph unicode="&#xe05a;" d="M 436.092,314.646l-40.228-40.228l-57.446,57.446l 40.228,40.228
	c 15.866,15.866, 41.598,15.866, 57.446,0S 451.958,330.512, 436.092,314.646z M 413.1,268.694c 3.18,3.164, 8.332,3.164, 11.496,0
	c 3.18-3.18, 3.18-8.332,0-11.496l-149.366-149.382c-3.18-3.164-8.332-3.164-11.496,0s-3.164,8.316,0,11.48l 97.674,97.674l-80.454,80.454
	l 34.471,34.456l 80.438-80.438L 413.1,268.694z M 280.97,274.418l 57.446-57.446L 108.598-12.848L 51.152,44.598L 282.912,276.358L 280.97,274.418z
	 M -0.556-64.556l 40.212,97.658l 57.446-57.446L -0.556-64.556z"  />
<glyph unicode="&#xf040;" d="M 90.75,0l 22.75,22.75l-58.75,58.75l-22.75-22.75l0-26.75 l 32,0 l0-32 l 26.75,0 zM 221.5,232q0,5.5 -5.5,5.5q-2.5,0 -4.25-1.75l-135.5-135.5q-1.75-1.75 -1.75-4.25q0-5.5 5.5-5.5q 2.5,0 4.25,1.75l 135.5,135.5q 1.75,1.75 1.75,4.25zM 208,280l 104-104l-208-208l-104,0 l0,104 zM 378.75,256q0-13.25 -9.25-22.5l-41.5-41.5l-104,104l 41.5,41.25q 9,9.5 22.5,9.5 q 13.25,0 22.75-9.5l 58.75-58.5q 9.25-9.75 9.25-22.75z" horiz-adv-x="384"  />
<glyph unicode="&#xe05b;" d="M 304.64,186.88l-161.28,0 c-19.782,0-35.84-16.058-35.84-35.84s 16.058-35.84, 35.84-35.84l 161.28,0 c 19.782,0, 35.84,16.058, 35.84,35.84
			S 324.422,186.88, 304.64,186.88z M 180.684,312.32L 161.28,204.8l 125.44,0 l-19.425,107.52L 180.684,312.32 z M 224-64l 26.88,161.28l-53.76,0 L 224-64z M 170.24,330.24l 107.52,0 c 14.84,0, 26.88,12.040, 26.88,26.88
			S 292.6,384, 277.76,384l-107.52,0 c-14.854,0-26.88-12.040-26.88-26.88S 155.386,330.24, 170.24,330.24z"  />
<glyph unicode="&#xe05c;" d="M 279.67,125.7l-146.156,84.384c-17.928,10.374-40.88,4.222-51.232-13.706
			c-10.352-17.95-4.2-40.88, 13.728-51.232l 146.142-84.384c 17.95-10.374, 40.88-4.222, 51.232,13.728C 303.772,92.418, 297.62,115.348, 279.67,125.7z
			 M 159.134,216.952l 113.676-65.632l 38.668,107.604l-78.5,45.304L 159.134,216.952z M 75.328-59.464l 108.746,132.096l-48.716,28.128L 75.328-59.464z
			 M 358.452,318.426l-97.418,56.256c-13.468,7.764-30.658,3.166-38.422-10.294c-7.786-13.468-3.152-30.658, 10.294-38.422l 97.44-56.256
			c 13.468-7.764, 30.658-3.166, 38.422,10.294C 376.532,293.464, 371.92,310.662, 358.452,318.426z"  />
<glyph unicode="&#xe05d;" d="M 411.774,129.024c0-103.698-84.060-187.774-187.774-187.774
	c-103.698,0-187.774,84.074-187.774,187.774c0,100.542, 79.064,182.358, 178.396,187.28L 214.622,348.7 l-14.074,0 c-8.302,0-15.032,6.73-15.032,15.032
	s 6.73,15.018, 15.032,15.018l 45.052,0 c 8.302,0, 15.032-6.716, 15.032-15.018s-6.73-15.032-15.032-15.032l-15.944,0 l0-32.202 
	C 330.72,313.506, 411.774,230.808, 411.774,129.024z M 214.622,258.584L 214.622,292.85 c-46.502-2.632-87.74-24.53-116.158-57.706l 24.724-24.724l-10.62-10.634
	l-23.408,23.424c-19.056-26.894-30.394-59.634-30.394-95.114c0-1.586, 0.224-3.754, 0.224-3.754L 95.368,124.342 l0-15.032 L 60.068,109.31 
	c 3.65-30.692, 15.81-59.634, 33.924-82.774l 18.592,18.592l 10.62-10.62l-19.384-19.4c 28.104-29.854, 67.128-49.314, 110.804-51.782L 214.622,4.146 l 15.018,0 l0-41.012 
	c 44.708,1.526, 84.808,20.836, 113.66,51.004l-21.3,21.3l 10.62,10.62l 20.596-20.582c 18.548,23.334, 31.022,52.664, 34.73,83.82l-38.142,0 l0,15.032 l 39.202,0 
	c 0.044,1.556, 0.24,2.168, 0.24,3.754c0,36.466-11.966,70.014-31.978,97.298l-24.65-24.65l-10.62,10.62l 25.816,25.802
	c-29.122,32.95-71.092,54.31-118.162,55.896l0-34.462 L 214.622,258.584 z M 230.566,124.326l 52.59,0 c 4.144,0, 7.508-3.38, 7.508-7.508
	c0-4.144-3.366-7.524-7.508-7.524l-60.098,0 c-4.144,0-7.508,3.38-7.508,7.524L 215.55,221.026 c0,4.144, 3.366,7.508, 7.508,7.508
	s 7.508-3.366, 7.508-7.508L 230.566,124.326 z"  />
<glyph unicode="&#xe05e;" d="M 224,381c-122.077,0-221-98.94-221-221s 98.923-221, 221-221c 122.044,0, 221,98.94, 221,221
			S 346.060,381, 224,381z M 222.215-18.958c-98.583,0-178.5,79.917-178.5,178.5c0,98.583, 79.917,178.5, 178.5,178.5c 98.566,0, 178.5-79.917, 178.5-178.5
			C 400.715,60.959, 320.781-18.958, 222.215-18.958z M 273.81,149.272l-50.661,0 l0,85.544 c0,9.282-7.531,16.829-16.813,16.829
			c-9.299,0-16.829-7.531-16.829-16.829l0-102.356 c0-9.299, 7.531-16.813, 16.829-16.813l 67.473,0 c 9.299,0, 16.829,7.514, 16.829,16.813
			C 290.641,141.742, 283.108,149.272, 273.81,149.272z"  />
<glyph unicode="&#xe05f;" d="M 545.678,215.24l-27.983-0.294l0,28.571 c0,23.184-18.805,41.976-41.976,41.976L 41.976,285.492 c-23.184,0-41.976-18.791-41.976-41.976l0-153.909 
			c0-23.17, 18.791-41.976, 41.976-41.976l 55.673,0 l-0.294-13.124L 419.752,34.507 l-0.294,13.124L 475.719,47.632 c 23.17,0, 41.976,18.805, 41.976,41.976l0,28.851 l 28.557,0 L 545.678,215.24z M 503.703,89.607
			c0-15.447-12.537-27.983-27.983-27.983L 41.976,61.624 c-15.447,0-27.983,12.537-27.983,27.983l0,153.909 c0,15.447, 12.537,27.983, 27.983,27.983l 433.745,0 c 15.447,0, 27.983-12.537, 27.983-27.983L 503.703,89.607 z M 475.719,257.508L 41.976,257.508 
			c-7.738,0-13.992-6.255-13.992-13.992l0-153.909 c0-7.738, 6.255-13.992, 13.992-13.992l 433.745,0 c 7.724,0, 13.992,6.255, 13.992,13.992l0,153.909 C 489.711,251.24, 483.443,257.508, 475.719,257.508z M 451.192,215.771
			l-11.193-10.494l-34.014,0 l-9.515,10.494L 451.192,215.771 z M 438.362,172.047l 4.897-5.191l-5.877-5.191l-36.546,0 l-4.631,5.191l 5.596,5.191L 438.362,172.047 z M 394.385,213.924
			l 9.501-10.494l-2.364-27.983l-7.136-6.577l-3.638,3.917L 394.385,213.924z M 303.579,213.924l 9.501-10.494l-2.364-27.983l-7.136-6.577l-3.638,3.917
			L 303.579,213.924z M 347.513,172.047l 4.911-5.191l-5.891-5.191l-36.504,0 l-4.617,5.191l 5.582,5.191L 347.513,172.047 z M 163.774,213.924l 9.501-10.494
			l-2.448-27.983l-7.066-6.591l-3.596,3.917L 163.774,213.924z M 207.694,172.047l 4.911-5.191l-5.877-5.191l-36.56,0 l-4.561,5.191l 5.582,5.191
			L 207.694,172.047 z M 129.774,215.771l-11.207-10.494l-34,0 l-9.515,10.494L 129.774,215.771 z M 72.967,213.924l 9.515-10.494l-2.462-27.983l-7.066-6.591l-3.596,3.917
			L 72.967,213.924z M 68.308,160.895l 4.197,4.043l 6.017-6.563l-2.35-27.997l-11.445-10.494L 68.308,160.895z M 66.461,117.941l 11.473,10.494l 33.944,0 
			l 9.361-10.494L 66.461,117.941 z M 123.337,119.914l-9.403,10.48l 2.35,27.997l 7.15,6.563l 3.498-4.043L 123.337,119.914z M 127.969,172.788l-4.099-3.917
			l-6.087,6.591l 2.448,27.983l 11.361,10.494L 127.969,172.788z M 159.114,160.895l 4.197,4.043l 6.017-6.563l-2.35-27.997l-11.445-10.48L 159.114,160.895z
			 M 157.253,117.941l 11.473,10.494l 33.958,0 l 9.361-10.494L 157.253,117.941 z M 214.144,119.9l-9.375,10.494l 2.364,27.983l 7.15,6.577l 3.512-4.043L 214.144,119.9z
			 M 209.387,205.277l-34,0 l-9.529,10.494l 54.708,0 L 209.387,205.277z M 259.897,117.941l-10.494,0 l 0.965,10.494l 10.494,0 L 259.897,117.941z M 266.053,188.99
			l-10.494,0 l 0.979,10.494l 10.494,0 L 266.053,188.99z M 297.143,117.941l 11.333,10.494l 34,0 l 9.375-10.494L 297.143,117.941 z M 353.949,119.914l-9.389,10.48l 2.378,27.983
			l 7.15,6.577l 3.498-4.043L 353.949,119.914z M 349.192,205.277l-34,0 l-9.529,10.494l 54.708,0 L 349.192,205.277z M 387.95,117.941l 11.347,10.494l 34,0 
			l 9.375-10.494L 387.95,117.941 z M 444.755,119.914l-9.403,10.48l 2.35,27.997l 7.15,6.563l 3.498-4.043L 444.755,119.914z M 449.401,172.788l-4.113-3.917
			l-6.087,6.591l 2.462,27.983l 11.361,10.494L 449.401,172.788z" horiz-adv-x="546"  />
<glyph unicode="&#xe060;" d="M 393.93-64L 54.070-64 c-17.055,0-30.898,13.843-30.898,30.898L 23.172,306.758 c0,17.069, 13.843,30.898, 30.898,30.898l 30.898,0 l0-15.449 c0-25.598, 20.746-46.344, 46.344-46.344
	c 25.581,0, 46.344,20.746, 46.344,46.344L 177.656,337.656 l 92.691,0 l0-15.449 c0-25.598, 20.763-46.344, 46.344-46.344s 46.344,20.746, 46.344,46.344L 363.035,337.656 l 30.898,0 c 17.055,0, 30.898-13.826, 30.898-30.898l0-339.863 C 424.828-50.157, 410.985-64, 393.93-64z M 393.93,229.516L 54.070,229.516 l0-262.621 l 339.863,0 
	L 393.93,229.516 z M 131.309,152.277L 84.965,152.277 l0,46.344 l 46.344,0 L 131.309,152.277 z M 131.309,75.035L 84.965,75.035 l0,46.344 l 46.344,0 L 131.309,75.035 z M 131.309-2.207L 84.965-2.207 l0,46.344 l 46.344,0 L 131.309-2.207 z M 208.551,152.277l-46.344,0 l0,46.344 l 46.344,0 L 208.551,152.277 z M 208.551,75.035l-46.344,0 l0,46.344 l 46.344,0 L 208.551,75.035 z M 208.551-2.207l-46.344,0 l0,46.344 l 46.344,0 L 208.551-2.207 z M 285.793,152.277l-46.344,0 
	l0,46.344 l 46.344,0 L 285.793,152.277 z M 285.793,75.035l-46.344,0 l0,46.344 l 46.344,0 L 285.793,75.035 z M 285.793-2.207l-46.344,0 l0,46.344 l 46.344,0 L 285.793-2.207 z M 363.035,152.277l-46.344,0 l0,46.344 l 46.344,0 L 363.035,152.277 z M 363.035,75.035l-46.344,0 l0,46.344 l 46.344,0 L 363.035,75.035 z M 363.035-2.207l-46.344,0 l0,46.344 l 46.344,0 L 363.035-2.207 z M 316.212,291.309
	C 299.402,291.309, 285.793,304.935, 285.793,321.728L 285.793,353.581 C 285.793,370.391, 299.402,384, 316.212,384s 30.419-13.609, 30.419-30.419l0-31.853 C 346.628,304.935, 333.019,291.309, 316.212,291.309z
	 M 130.83,291.309C 114.023,291.309, 100.414,304.935, 100.414,321.728L 100.414,353.581 C 100.414,370.391, 114.023,384, 130.83,384s 30.419-13.609, 30.419-30.419l0-31.853 C 161.249,304.935, 147.623,291.309, 130.83,291.309z"  />
<glyph unicode="&#xf073;" d="M 32-32l 72,0 l0,72 l-72,0 l0-72 zM 120-32l 80,0 l0,72 l-80,0 l0-72 zM 32,56l 72,0 l0,80 l-72,0 l0-80 zM 120,56l 80,0 l0,80 l-80,0 l0-80 zM 32,152l 72,0 l0,72 l-72,0 l0-72 zM 216-32l 80,0 l0,72 l-80,0 l0-72 zM 120,152l 80,0 l0,72 l-80,0 l0-72 zM 312-32l 72,0 l0,72 l-72,0 l0-72 zM 216,56l 80,0 l0,80 l-80,0 l0-80 z M 128,272l0,72 q0,3.25 -2.375,5.625t-5.625,2.375l-16,0 q-3.25,0 -5.625-2.375t-2.375-5.625l0-72 q0-3.25 2.375-5.625t 5.625-2.375l 16,0 q 3.25,0 5.625,2.375t 2.375,5.625zM 312,56l 72,0 l0,80 l-72,0 l0-80 zM 216,152l 80,0 l0,72 l-80,0 l0-72 zM 312,152l 72,0 l0,72 l-72,0 l0-72 zM 320,272l0,72 q0,3.25 -2.375,5.625t-5.625,2.375l-16,0  q-3.25,0 -5.625-2.375t-2.375-5.625l0-72 q0-3.25 2.375-5.625t 5.625-2.375l 16,0 q 3.25,0 5.625,2.375t 2.375,5.625zM 416,288l0-320 q0-13 -9.5-22.5t-22.5-9.5l-352,0 q-13,0 -22.5,9.5t-9.5,22.5l0,320 q0,13 9.5,22.5t 22.5,9.5l 32,0 l0,24 q0,16.5 11.75,28.25t 28.25,11.75l 16,0 q 16.5,0 28.25-11.75t 11.75-28.25l0-24 l 96,0 l0,24 q0,16.5 11.75,28.25t 28.25,11.75 l 16,0 q 16.5,0 28.25-11.75t 11.75-28.25l0-24 l 32,0 q 13,0 22.5-9.5t 9.5-22.5z" horiz-adv-x="416"  />
<glyph unicode="&#xe061;" d="M 411.714-59L 36.286-59 c-17.27,0-31.286,14.016-31.286,31.286L 5,300.786 c0,17.27, 14.016,31.286, 31.286,31.286l 31.286,0 l0-15.643 c0-25.921, 21.009-46.929, 46.929-46.929
	s 46.929,21.009, 46.929,46.929L 161.429,332.071 l 125.143,0 l0-15.643 c0-25.921, 21.024-46.929, 46.929-46.929s 46.929,21.009, 46.929,46.929L 380.429,332.071 l 31.286,0 c 17.27,0, 31.286-14.016, 31.286-31.286l0-328.5 C 443-44.984, 428.984-59, 411.714-59z M 411.714,222.571L 36.286,222.571 l0-250.286 l 375.429,0 L 411.714,222.571 z
	 M 178.15,100.104c 3.081,4.912, 4.63,10.105, 4.63,15.534c0,12.091-6.507,18.146-19.522,18.146c-11.309,0-22.119-4.489-32.443-13.468l0,25.483 
	c 11.419,7.4, 24.324,11.090, 38.684,11.090c 13.438,0, 23.934-3.379, 31.49-10.12s 11.325-15.877, 11.325-27.36c0-15.33-9.198-31.192-27.594-47.569
	l-27.046-24.011l0-0.547 l 53.342,0 l0-24.011 L 124.495,23.266 l0,22.542 l 37.668,36.025C 169.734,89.090, 175.069,95.176, 178.15,100.104z M 284.021,47.903
	c 4.13,3.175, 6.195,7.602, 6.195,13.296c0,5.867-2.549,10.387-7.65,13.563s-12.108,4.772-21.039,4.772l-11.826,0 l0,22.182 l 10.904,0 
	c 17.113,0, 25.669,5.679, 25.669,17.051c0,10.7-6.57,16.033-19.71,16.033c-8.791,0-17.347-2.847-25.669-8.526l0,23.652 
	c 9.229,4.645, 19.975,6.962, 32.256,6.962c 13.438,0, 23.902-3.020, 31.396-9.073s 11.232-13.906, 11.232-23.558c0-17.176-8.714-27.922-26.124-32.256l0-0.453 
	c 9.292-1.158, 16.613-4.536, 21.994-10.12s 8.072-12.452, 8.072-20.571c0-12.279-4.489-21.994-13.468-29.142s-21.383-10.731-37.215-10.731
	c-13.563,0-24.591,2.205-33.084,6.601l0,25.2 c 8.791-6.414, 19.068-9.621, 30.8-9.621C 274.135,43.133, 279.891,44.727, 284.021,47.903z
	 M 333.015,285.143C 315.995,285.143, 302.214,298.924, 302.214,315.943L 302.214,348.199 C 302.214,365.218, 315.995,379, 333.015,379s 30.8-13.782, 30.8-30.8l0-32.256 
	C 363.816,298.924, 350.034,285.143, 333.015,285.143z M 114.015,285.143C 96.995,285.143, 83.214,298.924, 83.214,315.943L 83.214,348.199 C 83.214,365.218, 96.995,379, 114.015,379s 30.8-13.782, 30.8-30.8l0-32.256 
	C 144.816,298.924, 131.019,285.143, 114.015,285.143z"  />
<glyph unicode="&#xf002;" d="M 288,176q0,46.25 -32.875,79.125t-79.125,32.875t-79.125-32.875t-32.875-79.125t 32.875-79.125t 79.125-32.875t 79.125,32.875t 32.875,79.125zM 416-32q0-13 -9.5-22.5t-22.5-9.5q-13.5,0 -22.5,9.5l-85.75,85.5q-44.75-31 -99.75-31q-35.75,0 -68.375,13.875t-56.25,37.5t-37.5,56.25t-13.875,68.375 t 13.875,68.375t 37.5,56.25t 56.25,37.5t 68.375,13.875t 68.375-13.875t 56.25-37.5t 37.5-56.25t 13.875-68.375q0-55 -31-99.75l 85.75-85.75q 9.25-9.25 9.25-22.5z" horiz-adv-x="416"  />
<glyph unicode="&#xe062;" d="M 421.663-41.759l-10.256-10.256c-11.356-11.341-29.727-11.341-41.054,0l-82.108,82.079
	c-9.49,9.518-10.546,23.782-4.065,34.892l-44.902,44.873c-24.143-17.909-53.928-28.628-86.288-28.628c-80.141,0-145.106,64.966-145.106,145.106
	c0,80.155, 64.966,145.121, 145.106,145.121c 80.155,0, 145.106-64.966, 145.106-145.121c0-37.307-14.176-71.215-37.322-96.921l 43.904-43.904
	c 11.11,6.466, 25.373,5.425, 34.863-4.094l 82.108-82.079C 432.99-12.046, 432.99-30.432, 421.663-41.759z M 261.556,226.9
	c0,60.105-48.735,108.826-108.841,108.826S 43.875,287.020, 43.875,226.9s 48.721-108.826, 108.826-108.826S 261.556,166.795, 261.556,226.9z"  />
<glyph unicode="&#xe063;" d="M 115.524,232.34L 188.084,232.34L 188.084,217.831L 115.524,217.831zM 421.663-0.704l-82.108,82.079c-9.49,9.518-23.767,10.56-34.863,4.094l-43.904,43.904c 23.145,25.706, 37.322,59.614, 37.322,96.921
		c0,80.155-64.951,145.121-145.106,145.121c-80.141,0-145.106-64.966-145.106-145.121c0-80.141, 64.966-145.106, 145.106-145.106
		c 32.36,0, 62.145,10.719, 86.288,28.628l 44.902-44.873c-6.466-11.124-5.425-25.373, 4.065-34.892l 82.108-82.079c 11.327-11.341, 29.698-11.341, 41.054,0
		l 10.256,10.256C 432.99-30.431, 432.99-12.045, 421.663-0.704z M 152.701,118.074c-60.105,0-108.826,48.721-108.826,108.826
		s 48.721,108.826, 108.826,108.826s 108.841-48.721, 108.841-108.826S 212.821,118.074, 152.701,118.074z"  />
<glyph unicode="&#xe064;" d="M 421.663-41.759l-10.256-10.256c-11.356-11.341-29.727-11.341-41.054,0l-82.108,82.079
	c-9.49,9.518-10.546,23.782-4.065,34.892l-44.902,44.873c-24.143-17.909-53.928-28.628-86.288-28.628c-80.141,0-145.106,64.966-145.106,145.106
	c0,80.155, 64.966,145.121, 145.106,145.121c 80.155,0, 145.106-64.966, 145.106-145.121c0-37.307-14.176-71.215-37.322-96.921l 43.904-43.904
	c 11.11,6.466, 25.373,5.425, 34.863-4.094l 82.108-82.079C 432.99-12.046, 432.99-30.432, 421.663-41.759z M 261.556,226.9
	c0,60.105-48.735,108.826-108.841,108.826S 43.875,287.020, 43.875,226.9s 48.721-108.826, 108.826-108.826S 261.556,166.795, 261.556,226.9z M 159.051,189.723
	L 144.542,189.723 l0,28.107 L 115.524,217.83 l0,14.509 l 29.018,0 L 144.542,261.372 l 14.509,0 l0-29.033 l 29.033,0 l0-14.509 l-29.033,0 L 159.051,189.723 z"  />
<glyph unicode="&#xe065;" d="M 287.644,114.498l 8.67,8.67c 9.573,9.573, 9.573,25.104,0,34.68l-14.968,14.956
			c 4.818,8.388, 8.596,17.414, 11.226,26.94l 16.19,0 c 13.535,0, 24.518,10.981, 24.518,24.518l0,12.253 c0,13.535-10.969,24.518-24.518,24.518l-15.994,0 
			C 290.224,270.459, 286.618,279.434, 281.922,287.762l 14.391,14.38c 9.573,9.573, 9.573,25.104,0,34.68l-8.67,8.658
			c-9.573,9.573-25.104,9.573-34.68,0l-14.1-14.1c-8.622,5.026-17.939,8.938-27.782,11.63L 211.082,359.482 C 211.070,373.032, 200.088,384, 186.552,384
			l-12.253,0 c-13.535,0-24.53-10.969-24.53-24.518l0-16.472 c-9.844-2.69-19.15-6.604-27.782-11.63L 107.874,345.492
			c-9.562,9.573-25.092,9.573-34.668,0L 64.536,336.835c-9.573-9.573-9.573-25.104,0-34.68L 78.918,287.762c-4.684-8.328-8.316-17.304-10.846-26.744
			L 52.088,261.018 C 38.539,261.030, 27.57,250.050, 27.57,236.5l0-12.253 c0-13.535, 10.969-24.518, 24.518-24.518l 16.178,0 c 2.642-9.526, 6.408-18.55, 11.238-26.94
			l-14.968-14.956c-9.573-9.573-9.573-25.104,0-34.68l 8.67-8.67c 9.573-9.573, 25.104-9.573, 34.668,0l 15.055,15.055
			c 8.364-4.755, 17.352-8.462, 26.831-11.042l0-15.702 c0-13.524, 10.981-24.518, 24.53-24.518l 12.253,0 c 13.535,0, 24.518,10.981, 24.518,24.518l0,15.702 
			c 9.478,2.58, 18.49,6.298, 26.831,11.042l 15.055-15.055C 262.54,104.922, 278.059,104.922, 287.644,114.498z M 180.426,162.58
			c-37.236,0-67.428,30.18-67.428,67.428c0,37.236, 30.192,67.428, 67.428,67.428s 67.428-30.192, 67.428-67.428
			C 247.852,192.76, 217.662,162.58, 180.426,162.58z M 180.426,261.41c-16.936,0-30.656-13.72-30.656-30.644s 13.72-30.644, 30.656-30.644
			c 16.924,0, 30.644,13.72, 30.644,30.644S 197.35,261.41, 180.426,261.41z M 334.037,31.064c-8.218,0-14.87-6.652-14.87-14.87
			c0-8.206, 6.652-14.858, 14.87-14.858c 8.206,0, 14.87,6.652, 14.87,14.858C 348.908,24.412, 342.244,31.064, 334.037,31.064z M 396.282,30.88
			l-7.751,0 c-1.235,4.574-2.996,8.926-5.27,12.974l 6.97,6.97c 4.646,4.646, 4.646,12.18,0,16.814l-4.206,4.206c-4.646,4.646-12.168,4.646-16.814,0
			l-6.848-6.836c-4.182,2.434-8.706,4.327-13.476,5.638l0,7.973 c0,6.566-5.332,11.898-11.898,11.898l-5.944,0 
			c-6.566,0-11.898-5.332-11.898-11.898l0-7.973 c-4.782-1.308-9.294-3.204-13.476-5.638l-6.848,6.836c-4.646,4.646-12.18,4.646-16.814,0
			l-4.206-4.206c-4.646-4.634-4.646-12.168,0-16.814l 6.97-6.97c-2.286-4.036-4.036-8.401-5.27-12.974l-7.751,0 
			c-6.566,0-11.898-5.332-11.898-11.898l0-5.944 c0-6.566, 5.332-11.898, 11.898-11.898l 7.85,0 c 1.272-4.61, 3.106-8.988, 5.442-13.060
			l-7.252-7.252c-4.646-4.646-4.646-12.168,0-16.826l 4.206-4.206c 4.634-4.634, 12.168-4.634, 16.814,0l 7.3,7.312
			c 4.060-2.298, 8.415-4.108, 13.012-5.356l0-7.618 c0-6.566, 5.332-11.898, 11.898-11.898l 5.944,0 c 6.566,0, 11.898,5.332, 11.898,11.898l0,7.618 
			c 4.598,1.248, 8.952,3.045, 12.998,5.356l 7.312-7.312c 4.646-4.634, 12.168-4.634, 16.814,0l 4.206,4.206c 4.646,4.66, 4.646,12.18,0,16.826
			l-7.252,7.252c 2.324,4.072, 4.17,8.45, 5.442,13.060l 7.85,0 c 6.566,0, 11.898,5.332, 11.898,11.898L 408.129,18.982 
			C 408.18,25.56, 402.848,30.88, 396.282,30.88z M 334.037-16.872c-18.062,0-32.698,14.638-32.698,32.712c0,18.062, 14.638,32.698, 32.698,32.698
			s 32.698-14.638, 32.698-32.698C 366.738-2.234, 352.1-16.872, 334.037-16.872z"  />
<glyph unicode="&#xe006;" d="M 411.226,114.187l-23.621,0 c-3.835-13.897-9.329-27.081-16.377-39.302l 21.837-21.817
	c 13.968-13.968, 13.968-36.626,0-50.594l-12.647-12.647c-13.968-13.968-36.626-13.968-50.594,0L 307.845,11.786c-12.184-6.94-25.314-12.346-39.14-16.11
	l0-22.905 c0-19.749-16.002-35.768-35.768-35.768l-17.877,0 c-19.749,0-35.788,16.002-35.788,35.768l0,22.905 c-13.809,3.764-26.956,9.187-39.14,16.11
	l-21.962-21.962c-13.951-13.968-36.606-13.968-50.577,0L 54.929,2.474c-13.968,13.968-13.968,36.626,0,50.594l 21.837,21.817
	c-7.048,12.238-12.542,25.405-16.394,39.302L 36.768,114.187 C 17.002,114.187, 1,130.189, 1,149.938l0,17.894 c0,19.749, 16.002,35.768, 35.768,35.768l 23.334,0 
	C 63.795,217.355, 69.076,230.451, 75.928,242.598l-20.996,20.979c-13.968,13.968-13.968,36.626,0,50.594l 12.647,12.63c 13.968,13.968, 36.626,13.968, 50.577,0
	l 20.57-20.57c 12.596,7.332, 26.189,13.042, 40.532,16.948L 179.255,347.229 C 179.275,366.995, 195.311,382.997, 215.060,382.997l 17.877,0 c 19.749,0, 35.768-16.002, 35.768-35.768
	l0-24.030 c 14.38-3.926, 27.956-9.633, 40.532-16.965l 20.57,20.57c 13.968,13.968, 36.626,13.968, 50.594,0l 12.647-12.63
	c 13.968-13.968, 13.968-36.626,0-50.594L 372.069,242.598c 6.852-12.15, 12.13-25.243, 15.843-39.015l 23.334,0 c 19.749,0, 35.768-16.019, 35.768-35.768l0-17.894 
	C 446.997,130.189, 430.995,114.187, 411.226,114.187z M 223.997,256.691c-54.321,0-98.37-44.046-98.37-98.37s 44.046-98.37, 98.37-98.37
	s 98.37,44.046, 98.37,98.37S 278.321,256.691, 223.997,256.691z M 223.997,114.741c-24.689,0-44.725,19.999-44.725,44.708c0,24.689, 20.033,44.708, 44.725,44.708
	s 44.708-20.016, 44.708-44.708C 268.705,134.74, 248.689,114.741, 223.997,114.741z"  />
<glyph unicode="&#xf0c7;" d="M 96,0l 192,0 l0,96 l-192,0 l0-96 zM 320,0l 32,0 l0,224 q0,3.5 -2.5,9.625t-5,8.625l-70.25,70.25q-2.5,2.5 -8.5,5t-9.75,2.5l0-104 q0-10 -7-17t-17-7l-144,0 q-10,0 -17,7t-7,17l0,104 l-32,0 l0-320 l 32,0 l0,104 q0,10 7,17t 17,7l 208,0 q 10,0 17-7t 7-17l0-104 zM 224,232l0,80 q0,3.25 -2.375,5.625t-5.625,2.375 l-48,0 q-3.25,0 -5.625-2.375t-2.375-5.625l0-80 q0-3.25 2.375-5.625t 5.625-2.375l 48,0 q 3.25,0 5.625,2.375t 2.375,5.625zM 384,224l0-232 q0-10 -7-17t-17-7l-336,0 q-10,0 -17,7t-7,17l0,336 q0,10 7,17t 17,7l 232,0 q 10,0 22-5t 19-12l 70-70q 7-7 12-19t 5-22z" horiz-adv-x="384"  />
<glyph unicode="&#xe066;" d="M 302.942,269.425l-60.966-91.76l-44.309,44.658l-44.331-71.69l-33.237,32.907L 84.111,111.522
			l 282.57,0 L 302.942,269.425z M 1,383l0-446 l 446,0 L 447,383 L 1,383 z M 408.217,72.739L 39.783,72.739 L 39.783,344.217 l 368.435,0 L 408.217,72.739 z M 126.869,226.493c 16.075,0, 29.087,13.012, 29.087,29.087s-13.012,29.087-29.087,29.087
			c-16.056,0-29.087-13.012-29.087-29.087S 110.813,226.493, 126.869,226.493z"  />
<glyph unicode="&#xe067;" d="M 399.37,105.668l-19.67-73.448l-0.554-0.15l-21.494-80.22l-138.944,37.218l-1.66-0.434
	l-146.298,39.19l-0.254,0.956L 31.562,39.23l 7.368,27.516l 0.478-0.134L 111.586,335.982L 111.108,336.116l 7.608,28.354l 255.664-68.516l 0.24,0.838
	l 70.414-18.862L 399.116,106.64L 399.37,105.668z M 409.070,257.184L 139.686,329.36l-53.18-198.492l 269.354-72.162L 409.070,257.184z M 167.71,198.98
	l 17.846-30.566l 46.44,43.72l 23.66-41.342l 62.552,55.138l 15.65-127.928L 127.264,153.394L 167.71,198.98z M 181.058,229.054
	c-11.734,3.154-18.714,15.23-15.56,26.964c 3.138,11.748, 15.216,18.728, 26.964,15.574c 11.734-3.154, 18.714-15.23, 15.56-26.964
	C 204.884,232.88, 192.806,225.9, 181.058,229.054z M 308.3,332.2l-6.188-1.66l-56.722,15.2l 83.672,22.42l 12.944-48.292l-32.734,8.774L 308.3,332.2
	z M 38.914,260.008l 18.564-69.278l-15.2-56.708L 2.968,280.768L 87.686,303.474l-8.774-32.734L 38.914,260.008z M 90.346-45.308L 75.13,11.46l 113.55-30.432
	L 90.346-45.308z"  />
<glyph unicode="&#xe068;" d="M 332.115,199.435c0,0, 17.878,13.593, 4.288,27.186c-13.624,13.593-26.848-3.95-26.848-3.95
	l-106.314-106.328c0,0-32.082-41.356-56.385-16.324s 16.324,56.385, 16.324,56.385l 148.878,148.892c0,0, 41.86,46.117, 81.189,6.788
	c 39.329-39.343-6.912-81.296-6.912-81.296L 184.766,29.202c0,0-64.499-74.508-124.223-14.781s 15.499,123.491, 15.499,123.491L 229.112,290.982
	c0,0, 17.163,14.308, 4.288,27.186s-27.169-4.288-27.169-4.288L 30.64,138.277c0,0-66.284-72.723, 7.751-146.727
	c 74.035-74.035, 146.741-7.765, 146.741-7.765l 241.368,241.385c0,0, 48.268,53.288-9.291,110.875s-110.875,9.291-110.875,9.291L 129.22,168.206
	c0,0-53.24-43.234-4.958-91.502c 48.282-48.282, 90.784,5.676, 90.784,5.676L 332.115,199.435z"  />
<glyph unicode="&#xe007;" d="M 252,288L 196,344L0,344L0-20L 196-20L 196,92L 112,92L 224,204L 336,92L 252,92L 252-20L 448-20L 448,288 z"  />
<glyph unicode="&#xe069;" d="M 117.84,262.673l 292.93,0 c 30.162,0, 30.162,31.28, 1.174,31.28L 209.474,293.953 
			c-11.601,0-17.388,17.388-17.388,17.388S 183.966,336.849, 167.724,336.849L 16.926,336.849 c-22.027,0-16.241-25.508-16.241-25.508s 33.643-286.11, 35.963-303.51
			S 56.956-14.701, 56.956-14.701l 39.429,253.025C 99.293,256.872, 112.039,262.086, 117.84,262.673z M 470.438,251.674L 127.121,251.674 c-10.245,0-18.562-8.303-18.562-18.548
			l-35.949-229.222c0-10.259, 8.317-18.562, 18.562-18.562l 343.317,0 c 10.231,0, 18.562,8.303, 18.562,18.562l 35.949,229.222
			C 489,243.371, 480.711,251.674, 470.438,251.674z" horiz-adv-x="489"  />
<glyph unicode="&#xe06a;" d="M 359.026,127.564L 359.026,314.036 c0,18.428-14.934,33.39-33.39,33.39L 33.376,347.428 
			C 14.934,347.442, -0.014,332.48, -0.014,314.036l0-186.472 c0-18.442, 14.948-33.39, 33.39-33.39l 55.686,0 l0-76.712l 85.18,76.712l 151.378,0 
			C 344.094,94.174, 359.026,109.122, 359.026,127.564z M 414.624,274.12l-41.784,0 c0,0,0-148.914,0-162.908s-18.158-31.988-32.152-31.988
			s-163.444-0.822-163.444-0.822c0-18.442, 14.948-29.658, 33.39-29.658l 64.348,0 l 83.954-76.19l-0.104,76.19l 55.79,0 
			c 18.458,0, 33.39,11.214, 33.39,29.658L 448.014,241.656 C 448.014,260.082, 433.080,274.12, 414.624,274.12z"  />
<glyph unicode="&#xe06b;" d="M 351.563,199.659c0,72.251-78.714,130.821-175.782,130.821C 78.7,330.481,0,271.91,0,199.659
			c0-43.421, 28.425-81.889, 72.181-105.684c-0.126-0.378-34.859-63.579-34.859-63.579s 106.062,40.456, 106.356,40.623
			c 10.408-1.441, 21.137-2.168, 32.103-2.168C 272.848,68.851, 351.563,127.421, 351.563,199.659z M 481,158.784
			c0,72.237-74.097,130.29-154.309,130.807c 114.987-114.539-20.437-236.576-130.807-236.576c0,0, 12.268-25.040, 109.335-25.040
			c 10.952,0, 21.697,0.756, 32.103,2.182c 0.294-0.196, 106.37-40.623, 106.37-40.623s-34.748,63.187-34.859,63.565
			C 452.575,76.895, 481,115.377, 481,158.784z" horiz-adv-x="481"  />
<glyph unicode="&#xe06c;" d="M 405.756,365.22L 42.24,365.22 c-22.941,0-41.534-18.613-41.534-41.534l0-231.967 
			c0-22.921, 18.593-41.534, 41.534-41.534l 69.266,0 l 0.018-95.42l 105.953,95.42l 188.297,0 c 22.959,0, 41.534,18.613, 41.534,41.534L 447.308,323.686 
			C 447.29,346.607, 428.715,365.22, 405.756,365.22z M 112.548,197.729c-10.272,0-18.575,8.321-18.575,18.575c0,10.272, 8.303,18.575, 18.575,18.575c 10.254,0, 18.575-8.303, 18.575-18.575
			C 131.123,206.050, 122.799,197.729, 112.548,197.729z M 186.846,198.509c-10.272,0-18.575,8.321-18.575,18.575c0,10.272, 8.303,18.575, 18.575,18.575c 10.254,0, 18.575-8.303, 18.575-18.575
			C 205.421,206.83, 197.101,198.509, 186.846,198.509z M 261.52,198.119c-10.254,0-18.575,8.303-18.575,18.575c0,10.254, 8.321,18.575, 18.575,18.575c 10.272,0, 18.575-8.321, 18.575-18.575
			C 280.095,206.44, 271.774,198.119, 261.52,198.119z M 335.448,197.729c-10.272,0-18.575,8.321-18.575,18.575c0,10.272, 8.303,18.575, 18.575,18.575c 10.254,0, 18.575-8.303, 18.575-18.575
			C 354.024,206.050, 345.703,197.729, 335.448,197.729z"  />
<glyph unicode="&#xe06d;" d="M 223.997,351.138c-123.654,0-223.907-74.611-223.907-166.652c0-55.312, 36.209-104.318, 91.95-134.63
			c-0.159-0.48-44.407-80.991-44.407-80.991s 135.13,51.534, 135.502,51.75c 13.257-1.835, 26.926-2.761, 40.879-2.761
			c 123.654,0, 223.907,74.611, 223.907,166.635C 447.907,276.524, 347.651,351.138, 223.997,351.138z M 116.509,166.681c-9.837,0-17.819,7.982-17.819,17.819c0,9.854, 7.982,17.819, 17.819,17.819
			s 17.819-7.965, 17.819-17.819C 134.328,174.666, 126.363,166.681, 116.509,166.681z M 187.413,165.934c-9.837,0-17.819,7.982-17.819,17.819c0,9.854, 7.982,17.819, 17.819,17.819
			c 9.854,0, 17.819-7.965, 17.819-17.819C 205.235,173.916, 197.267,165.934, 187.413,165.934z M 259.425,165.934c-9.837,0-17.819,7.982-17.819,17.819c0,9.854, 7.982,17.819, 17.819,17.819
			c 9.854,0, 17.819-7.965, 17.819-17.819C 277.244,173.916, 269.279,165.934, 259.425,165.934z M 330.704,165.934c-9.837,0-17.819,7.982-17.819,17.819c0,9.854, 7.982,17.819, 17.819,17.819
			c 9.854,0, 17.819-7.965, 17.819-17.819C 348.523,173.916, 340.558,165.934, 330.704,165.934z"  />
<glyph unicode="&#xe06e;" d="M 0.21,154.948c 2.344-41.168, 34.552-77.703, 79.869-86.246c 52.702-9.921, 96.329,22.945, 105.537,71.906
		c 9.22,48.976-19.442,95.459-72.136,105.383c-4.211,0.793-8.349,0.885-12.487,1.162c 0.15,22.276, 63.772,95.582, 105.182,133.916
		l-29.755,0 C 17.649,300.962-2.418,178.609, 0.21,154.948zM 448,381.068l-29.749,0 C 259.481,300.962, 239.407,178.609, 242.043,154.948c 2.331-41.168, 34.544-77.703, 79.864-86.246
		c 52.704-9.921, 96.313,22.945, 105.536,71.906c 9.223,48.976-19.449,95.459-72.144,105.383c-4.198,0.793-8.337,0.885-12.487,1.162
		C 342.972,269.428, 406.597,342.734, 448,381.068z"  />
<glyph unicode="&#xe06f;" d="M 447.79,165.054c-2.332,41.168-34.549,77.704-79.866,86.245c-52.704,9.921-96.328-22.943-105.538-71.904
		c-9.216-48.974, 19.442-95.456, 72.139-105.383c 4.202-0.794, 8.343-0.886, 12.49-1.163c-0.154-22.28-63.781-95.582-105.187-133.918
		l 29.755,0 C 430.35,19.041, 450.421,141.395, 447.79,165.054zM0-61.068l 29.755,0 C 188.52,19.041, 208.596,141.395, 205.958,165.055c-2.329,41.168-34.545,77.705-79.862,86.244
		C 73.387,261.22, 29.775,228.359, 20.558,179.398c-9.224-48.974, 19.441-95.457, 72.14-105.383c 4.198-0.794, 8.338-0.887, 12.49-1.163
		C 105.035,50.571, 41.408-22.731,0-61.068z"  />
<glyph unicode="&#xe00d;" d="M 209.62,336.436c-21.887-12.534-39.572-23.325-53.069-32.374c-13.511-9.057-27.236-21.001-41.198-35.841
		c-13.041-13.923-23.045-28.541-30.028-43.85c-6.982-15.317-11.868-35.036-14.663-59.159l 33.519,0 c 28.859,0, 51.551-7.102, 68.085-21.295
		c 16.517-14.208, 24.786-35.036, 24.786-62.497c0-19.546-7.331-37.828-21.994-54.812c-14.662-17.002-34.808-25.488-60.399-25.488
		c-40.039,0-68.668,13.127-85.891,39.375c-17.229,26.249-25.836,60.761-25.836,103.511c0,30.2, 6.511,57.728, 19.553,82.583
		c 13.025,24.854, 28.858,47.044, 47.48,66.564c 19.081,19.975, 39.331,36.933, 60.75,50.878c 21.406,13.945, 39.333,25.32, 53.772,34.157
		L 209.62,336.436z M 467.984,336.436c-21.889-12.534-39.572-23.325-53.073-32.374c-13.51-9.057-27.231-21.001-41.195-35.841
		c-13.51-14.381-23.631-29.124-30.373-44.2c-6.751-15.080-11.525-34.687-14.315-58.808l 33.517,0 c 28.859,0, 51.551-7.102, 68.085-21.295
		c 16.515-14.208, 24.786-35.036, 24.786-62.497c0-19.546-7.331-37.828-21.993-54.812c-14.663-17.002-34.809-25.488-60.4-25.488
		c-40.041,0-68.67,13.127-85.889,39.375c-17.233,26.249-25.837,60.761-25.837,103.511c0,30.2, 6.512,57.728, 19.546,82.583
		c 13.026,24.854, 28.862,47.044, 47.481,66.564c 19.081,19.975, 39.335,36.933, 60.749,50.878c 21.413,13.945, 39.335,25.32, 53.774,34.157
		L 467.984,336.436z" horiz-adv-x="472"  />
<glyph unicode="&#xe00f;" d="M 261.505-22.309c 21.604,12.375, 39.063,23.025, 52.381,31.953c 13.336,8.938, 26.884,20.731, 40.668,35.378
		c 12.87,13.744, 22.747,28.173, 29.64,43.284c 6.891,15.119, 11.717,34.583, 14.475,58.396l-33.086,0 c-28.486,0-50.885,7.010-67.205,21.020
		c-16.306,14.024-24.469,34.583-24.469,61.694c0,19.296, 7.235,37.339, 21.71,54.106c 14.475,16.782, 34.358,25.161, 59.621,25.161
		c 39.525,0, 67.783-12.958, 84.781-38.87c 17.005-25.911, 25.502-59.978, 25.502-102.177c0-29.811-6.427-56.982-19.299-81.519
		c-12.857-24.534-28.485-46.438-46.869-65.704c-18.837-19.72-38.822-36.455-59.964-50.221
		c-21.133-13.762-38.827-24.994-53.078-33.716L 261.505-22.309z M 6.474-22.309c 21.606,12.375, 39.063,23.025, 52.387,31.953
		c 13.335,8.938, 26.879,20.731, 40.665,35.378c 13.335,14.196, 23.328,28.747, 29.983,43.626c 6.666,14.886, 11.376,34.241, 14.13,58.052
		l-33.084,0 c-28.486,0-50.885,7.010-67.205,21.020c-16.302,14.024-24.468,34.583-24.468,61.694c0,19.296, 7.234,37.339, 21.709,54.106
		c 14.476,16.782, 34.359,25.161, 59.622,25.161c 39.526,0, 67.785-12.958, 84.779-38.87c 17.010-25.911, 25.503-59.978, 25.503-102.177
		c0-29.811-6.428-56.982-19.296-81.519c-12.858-24.534-28.489-46.438-46.87-65.704c-18.837-19.72-38.829-36.455-59.964-50.221
		c-21.134-13.762-38.829-24.994-53.079-33.716L 6.474-22.309z" horiz-adv-x="472"  />
<glyph unicode="&#xe072;" d="M 356.054-64.574L 95.946-64.574 c-15.968,0-28.901,12.904-28.901,28.843L 67.046,312.48 c0,15.924, 12.933,28.829, 28.901,28.829l 72.252,0 l0-30.042 
	L 110.397,311.267 c-7.977,0-14.45-6.445-14.45-14.422l0-318.155 c0-7.991, 6.474-14.422, 14.45-14.422l 231.207,0 c 7.991,0, 14.45,6.43, 14.45,14.422L 356.054,296.845 c0,7.977-6.459,14.422-14.45,14.422l-57.802,0 
	L 283.802,341.309 l 72.252,0 c 15.953,0, 28.901-12.919, 28.901-28.829l0-348.211 C 384.954-51.67, 372.007-64.574, 356.054-64.574z M 168.198,224.752l 158.954,0 l0-14.422 L 168.198,210.331 L 168.198,224.752 z M 168.198,181.488l 158.954,0 l0-14.422 
	L 168.198,167.066 L 168.198,181.488 z M 168.198,138.209l 158.954,0 l0-14.422 L 168.198,123.787 L 168.198,138.209 z M 168.198,94.944l 158.954,0 L 327.153,80.523 L 168.198,80.523 L 168.198,94.944 z M 327.153-5.978L 168.198-5.978 L 168.198,8.415 l 158.954,0 L 327.153-5.978 z M 168.198,51.68l 158.954,0 l0-14.422 L 168.198,37.258 
	L 168.198,51.68 z M 124.847,225.041l 14.45,0 l0-14.422 L 124.847,210.62 L 124.847,225.041 z M 124.847,181.777l 14.45,0 l0-14.422 L 124.847,167.355 L 124.847,181.777 z M 124.847,138.526l 14.45,0 l0-14.422 L 124.847,124.105 L 124.847,138.526 z M 124.847,95.262l 14.45,0 l0-14.422 L 124.847,80.84 L 124.847,95.262 z
	 M 139.298-5.703L 124.847-5.703 l0,14.422 l 14.45,0 L 139.298-5.703 z M 124.847,51.983l 14.45,0 l0-14.422 L 124.847,37.561 L 124.847,51.983 z M 312.702,295.964c 7.991,0, 14.45-6.459, 14.45-14.436c0-7.962,0-27.933,0-27.933L 124.847,253.595 
	c0,0,0,19.97,0,27.933c0,7.977, 6.459,14.436, 14.45,14.436l 43.351,0 c0,0, 0.173,20.505, 0.173,43.944c0,24.334, 18.786,44.681, 43.178,44.681
	s 43.828-21.387, 43.828-44.825C 269.828,314.518, 269.351,295.964, 269.351,295.964L 312.702,295.964 z M 226,341.309c-7.991,0-14.45-6.445-14.45-14.407c0-7.977, 6.459-14.422, 14.45-14.422
	s 14.45,6.445, 14.45,14.422C 240.45,334.864, 233.991,341.309, 226,341.309z"  />
<glyph unicode="&#xe073;" d="M 364-64L 84-64 c-15.47,0-28,12.516-28,27.944L 56,314.14 c0,15.442, 12.53,27.944, 28,27.944l 84,0 L 168,314.14 L 98,314.14 
	c-7.728,0-14-6.244-14-13.972l0-322.252 c0-7.714, 6.272-13.972, 14-13.972l 252,0 c 7.742,0, 14,6.258, 14,13.972L 364,300.168 c0,7.728-6.258,13.972-14,13.972l-70,0 
	L 280,342.084 l 84,0 c 15.456,0, 28-12.516, 28-27.944l0-350.196 C 392-51.484, 379.456-64, 364-64z M 350,300.168l0-322.252 L 98-22.084 L 98,300.168 l 14,0 l0-56.77 l 224,0 L 336,300.168 L 350,300.168 z M 154,201.482l-14,0 
	l0-13.972 l 14,0 L 154,201.482 z M 154,173.538l-14,0 l0-13.972 l 14,0 L 154,173.538 z M 154,145.594l-14,0 l0-13.972 l 14,0 L 154,145.594 z M 154,117.65l-14,0 l0-13.972 l 14,0 L 154,117.65 z M 154,89.706l-14,0 l0-13.972 
	l 14,0 L 154,89.706 z M 154,61.748l-14,0 l0-13.972 l 14,0 L 154,61.748 z M 154,33.804l-14,0 l0-13.972 l 14,0 L 154,33.804 z M 308,201.482L 168,201.482 l0-13.972 l 140,0 L 308,201.482 z M 308,173.538L 168,173.538 l0-13.972 l 140,0 
	L 308,173.538 z M 308,145.594L 168,145.594 l0-13.972 l 140,0 L 308,145.594 z M 308,117.65L 168,117.65 l0-13.972 l 140,0 L 308,117.65 z M 308,89.706L 168,89.706 l0-13.972 l 140,0 L 308,89.706 z M 308,61.748L 168,61.748 l0-13.972 l 140,0 
	L 308,61.748 z M 308,33.804L 168,33.804 l0-13.972 l 140,0 L 308,33.804 z M 308,300.168c 7.742,0, 14-6.244, 14-13.972c0-7.714,0-27.944,0-27.944L 126,258.252 c0,0,0,20.23,0,27.944
	c0,7.728, 6.258,13.972, 14,13.972l 42,0 c0,0, 0.168,17.836, 0.168,40.544C 182.168,364.288, 200.368,384, 224,384s 42.462-20.72, 42.462-43.442
	C 266.462,316.114, 266,300.168, 266,300.168L 308,300.168 z M 224,342.084c-7.742,0-14-6.244-14-13.972c0-7.714, 6.258-13.972, 14-13.972s 14,6.258, 14,13.972
	C 238,335.84, 231.742,342.084, 224,342.084z"  />
<glyph unicode="&#xe070;" d="M 110.642,285.678c0-7.7,0-27.902,0-27.902l 196.196,0 c0,0,0,20.202,0,27.902
		c0,7.714-6.23,13.958-13.944,13.958l-41.86,0 c0,0, 0.476,15.932, 0.476,40.348c0,22.666-19.656,43.372-43.204,43.372s-41.692-19.684-41.692-43.246
		c0-22.666-0.168-40.474-0.168-40.474L 124.6,299.636 C 116.886,299.636, 110.642,293.392, 110.642,285.678z M 208.306,341.482c 7.7,0, 13.958-6.244, 13.958-13.944
		c0-7.714-6.258-13.958-13.958-13.958s-13.958,6.244-13.958,13.958C 194.348,335.238, 200.606,341.482, 208.306,341.482zM 334.754,299.636l0-138.614 c0,0, 12.040,13.286, 27.888,19.656L 362.642,313.58 
		c0,15.414-13.37,27.902-28.77,27.902l-68.894,0 L 264.978,313.58 l 55.804,0 C 328.496,313.58, 334.754,307.336, 334.754,299.636zM 179.522-36.084L 96.684-36.084 c-7.7,0-13.944,6.23-13.944,13.944L 82.74,299.636 
		c0,7.7, 6.244,13.944, 13.944,13.944l 56.686,0 L 153.37,341.482 L 82.74,341.482 c-15.414,0-27.902-12.502-27.902-27.902l0-349.664 C 54.838-51.498, 67.326-64, 82.74-64l 127.134,0 
		C 204.414-54.788, 194.656-44.148, 179.522-36.084zM 334.754-22.14c0-7.714-6.258-13.944-13.958-13.944l-38.206,0 
		c-7.028-9.408-13.65-18.76-19.74-27.916l 71.036,0 c 15.4,0, 28.77,12.502, 28.77,27.916l0,85.806 c-9.24-7.602-18.592-16.184-27.888-25.62L 334.768-22.14 zM 393.162,91.036c-15.722,34.944-6.72,63.322-4.48,96.082
		c-92.106-45.85-150.514-183.442-150.514-183.442l-35.938,67.704l-74.13-43.666c 31.458-10.906, 76.384-45.85, 114.576-91.714
		C 269.612-15.952, 352.73,82.286, 393.162,91.036z"  />
<glyph unicode="&#xe017;" d="M 280,272L 280,384 L 84,384 L0,300l0-252 l 168,0 l0-112 l 280,0 L 448,272 L 280,272 z M 84,344.402L 84,300 L 39.598,300 L 84,344.402z M 28,76L 28,272 l 84,0 L 112,356 l 140,0 l0-84 l-84-84l0-112 L 28,76 z
	 M 252,232.402L 252,188 l-44.402,0 L 252,232.402z M 420-36L 196-36 L 196,160 l 84,0 l0,84 l 140,0 L 420-36 z"  />
<glyph unicode="&#xe021;" d="M 196,216L 364,216L 364,188L 196,188zM 196,160L 364,160L 364,132L 196,132zM 196,104L 364,104L 364,76L 196,76zM 196,48L 308,48L 308,20L 196,20zM 420,300l-84,0 L 336,356 c0,15.4-12.6,28-28,28L 28,384 C 12.6,384,0,371.4,0,356l0-308 c0-15.4, 12.6-28, 28-28l 84,0 l0-56 c0-15.4, 12.6-28, 28-28l 280,0 
		c 15.4,0, 28,12.6, 28,28L 448,272 C 448,287.4, 435.4,300, 420,300z M 112,272l0-210 L 42,62 L 42,342 l 252,0 l0-42 L 140,300 C 124.6,300, 112,287.4, 112,272z M 406-22L 154-22 
		L 154,258 l 252,0 L 406-22 z"  />
<glyph unicode="&#xe071;" d="M 108.766,282.96L 108.766,336.298 l 336.010,0 l0-246.756 l-53.336,0 l 1.096-53.604l-54.434,0 l0-52.224 L 3.224-16.282 L 3.224,230.738 l 52.506,0 L 55.73,284.074 L 108.766,282.96z M 426.544,319.16l-300.64,0 l0-36.202 
	l 266.652,1.096l-1.096-177.396l 35.086,0 L 426.544,319.16 z M 374.32,265.824L 72.85,265.824 L 72.85,230.738 l 265.272,0 l0-176.564 L 374.32,54.172 L 374.32,265.824 z M 20.344,213.6L 20.344,0.836 l 300.64,0 L 320.984,213.6 L 20.344,213.6 z"  />
<glyph unicode="&#xe074;" d="M 3-11.2l 325.28,0 L 328.28,228.48 L 3,228.48 L 3-11.2 z M 53.299,245.6L 345.4,245.6 l0-205.44 l 34.24,0 L 379.64,279.84 L 54.36,279.84 L 53.299,245.6z M 105.72,331.2L 104.659,296.96L 396.76,296.96 l0-205.44 l 34.24,0 L 431,331.2 L 105.72,331.2 z"  />
<glyph unicode="&#xe075;" d="M 182.98,311.172L 101.836,332.914C 94.374,334.916, 86.702,330.478, 84.7,323.016L 1.358,11.992
			c-2.002-7.476, 2.436-15.148, 9.912-17.164L 92.4-26.914c 7.462-2.002, 15.148,2.436, 17.15,9.898l 83.342,311.038
			C 194.88,301.484, 190.456,309.17, 182.98,311.172z M 108.92,34.798c-6.006-22.414-29.022-35.7-51.436-29.694s-35.7,29.022-29.694,51.436
			s 29.022,35.714, 51.436,29.694C 101.64,80.228, 114.926,57.198, 108.92,34.798z M 125.006,94.802l-81.13,21.742L 87.346,278.818l 81.144-21.756
			L 125.006,94.802z M 265.132,62c-11.606,0-21-9.408-21-21s 9.394-21, 21-21c 11.592,0, 21,9.408, 21,21S 276.724,62, 265.132,62z
			 M 151.354,247.178L 97.244,261.668L 93.632,248.144l 54.096-14.49L 151.354,247.178z M 140.462,206.606l 3.64,13.524L 90.006,234.62L 86.38,221.096
			L 140.462,206.606z M 73.57,65.108c-11.2,3.010-22.722-3.654-25.718-14.854c-3.010-11.214, 3.64-22.722, 14.854-25.718
			c 11.2-3.010, 22.722,3.64, 25.718,14.854C 91.42,50.59, 84.77,62.098, 73.57,65.108z M 419.132,258l-56,0 l0-14 l 56,0 L 419.132,258 z M 419.132,202l-56,0 l0-14 l 56,0 L 419.132,202 z M 419.132,230
			l-56,0 l0-14 l 56,0 L 419.132,230 z M 391.132,62c-11.606,0-21-9.408-21-21s 9.394-21, 21-21c 11.592,0, 21,9.408, 21,21S 402.724,62, 391.132,62z M 433.132,328
			l-84,0 c-7.742,0-14-6.258-14-14l0-322 c0-7.728, 6.258-14, 14-14l 84,0 c 7.728,0, 14,6.272, 14,14L 447.132,314 C 447.132,321.742, 440.846,328, 433.132,328z M 391.132-1
			c-23.198,0-42,18.816-42,42c0,23.198, 18.802,42, 42,42c 23.184,0, 42-18.802, 42-42C 433.132,17.816, 414.316-1, 391.132-1z M 433.132,104l-84,0 L 349.132,272 l 84,0 L 433.132,104 z
			 M 293.132,258l-56,0 l0-14 l 56,0 L 293.132,258 z M 293.132,202l-56,0 l0-14 l 56,0 L 293.132,202 z M 307.132,328l-84,0 c-7.742,0-14-6.258-14-14l0-322 c0-7.728, 6.258-14, 14-14l 84,0 c 7.728,0, 14,6.272, 14,14L 321.132,314 
			C 321.132,321.742, 314.846,328, 307.132,328z M 265.132-0.132c-23.198,0-42,18.816-42,42c0,23.198, 18.802,42, 42,42c 23.184,0, 42-18.802, 42-42
			C 307.132,18.684, 288.316-0.132, 265.132-0.132z M 307.132,104l-84,0 L 223.132,272 l 84,0 L 307.132,104 z M 293.132,230l-56,0 l0-14 l 56,0 L 293.132,230 z M 79.128,194.062l 54.082-14.49l 3.64,13.524
			l-54.096,14.49L 79.128,194.062z"  />
<glyph unicode="&#xe076;" d="M 241.402,168.016l-141.474,0 l0-16.022 l 141.474,0 L 241.402,168.016 z M 241.402,114.962l-141.474,0 l0-17.136 l 141.474,0 L 241.402,114.962 z
			 M 153.544,380.776l0-53.336 L 99.926,327.44 l0-53.336 L 47.704,274.104 l0-334.908 L 294.738-60.804 l0,53.6 l 52.222,0 l0,51.956 l 53.336,0 l0,336.004 L 153.544,380.758 z M 277.6-43.65L 64.84-43.65 L 64.84,258.1 l 212.76,0 L 277.6-43.65 z
			 M 329.824,8.854L 294.738,8.854 l0,265.266 L 117.064,274.122 L 117.064,310.32 l 212.76,0 L 329.824,8.854 z M 383.16,61.91l-36.2,0 L 346.96,327.458 l-176.296,0 L 170.664,363.656 L 383.16,363.656 L 383.16,61.91 z M 241.402,9.136l-141.474,0 L 99.926-7.998 l 141.474,0 L 241.402,9.136 z
			 M 241.402,62.456l-141.474,0 l0-17.136 l 141.474,0 L 241.402,62.456 z M 241.666,221.616l-141.474,0 l0-17.686 l 141.474,0 L 241.666,221.616 z"  />
<glyph unicode="&#xe078;" d="M 315.823,382.566L 56.643,382.566 l0-445.132 l 185.952,0 l0,37.192 L 93.832-25.374 L 93.832,345.374 l 185.952,0 l0-55.784 l 74.38,0 l0-204.548 l 37.192,0 L 391.357,309.339 L 315.823,382.566z
			 M 354.166,47.853l-37.192,0 l0-37.192 l-37.192,0 l0-37.192 l 37.192,0 l0-36.038 l 37.192,0 l0,37.192 l 37.192,0 l0,36.038 l-37.192,0 L 354.166,47.853 z"  />
<glyph unicode="&#xe077;" d="M 316.236,383.566L 55.888,383.566 l0-447.132 l 186.784,0 l0,37.36 L 93.248-26.206 L 93.248,346.206 l 186.784,0 l0-56.040 l 74.712,0 l0-205.464 l 37.36,0 L 392.112,310.010 L 316.236,383.566z
			 M 280.040-8.69l 112.072,1.156l0,36.196 l-112.072,0 L 280.040-8.69 z"  />
<glyph unicode="&#xe079;" d="M 131.082,178.582l 18.582,0 l0,18.582 l-18.582,0 L 131.082,178.582 z M 131.082,122.832l 18.582,0 l0,18.582 l-18.582,0 L 131.082,122.832 z M 131.082,234.332l 18.582,0 l0,18.582 l-18.582,0 L 131.082,234.332 z M 131.082,67.082l 18.582,0 l0,18.582 l-18.582,0 L 131.082,67.082 z
			 M 131.082,11.332l 18.582,0 l0,18.582 l-18.582,0 L 131.082,11.332 z M 168.25,122.832l 148.668,0 l0,18.582 l-148.668,0 L 168.25,122.832 z M 168.25,234.332l 148.668,0 l0,18.582 l-148.668,0 L 168.25,234.332 z M 315.764,383L 56.75,383 l0-446 l 334.5,0 L 391.25,308.668 L 315.764,383z M 354.082-24.682L 93.918-24.682 L 93.918,345.832 l 185.832,0 l0-54.597 l 74.332,0 L 354.082-24.682 z
			 M 168.25,67.082l 148.668,0 l0,18.582 l-148.668,0 L 168.25,67.082 z M 168.25,178.582l 148.668,0 l0,18.582 l-148.668,0 L 168.25,178.582 z M 168.25,11.332l 148.668,0 l0,18.582 l-148.668,0 L 168.25,11.332 z"  />
<glyph unicode="&#xe07a;" d="M 333.5,245.552c0,8.65-7.008,15.643-15.643,15.643l-46.929,0 c0,0, 0.517,18.834, 0.517,46.209
			c0,25.419-21.055,48.618-47.444,48.618s-46.741-22.073-46.741-48.478c0-25.419-0.188-46.365-0.188-46.365l-46.929,0 c-8.65,0-15.643-6.993-15.643-15.643
			c0-8.635,0-30.316,0-30.316l 219,0 C 333.5,215.236, 333.5,236.917, 333.5,245.552z M 224,277.807c-8.65,0-15.643,7.008-15.643,15.643c0,8.65, 6.993,15.643, 15.643,15.643
			c 8.635,0, 15.643-6.993, 15.643-15.643C 239.643,284.815, 232.635,277.807, 224,277.807z M 411.714,245.552l-62.571,0.97l 0.328-48.555L 98.857,197.966 l0,46.601 l-62.571,0.97c-17.27,0-31.286-14.016-31.286-31.286
			l0-219 c0-17.27, 14.016-31.286, 31.286-31.286l 375.429,0 c 17.27,0, 31.286,14.016, 31.286,31.286l0,219 C 443,231.536, 428.984,245.552, 411.714,245.552z M 130.143,154.619
			c 18.897,0, 34.227-20.133, 34.227-44.974S 149.039,64.673, 130.143,64.673s-34.227,20.133-34.227,44.974S 111.246,154.619, 130.143,154.619z M 62.362,11.722
			c0,0, 3.708,29.753, 12.139,35.368c 8.416,5.615, 32.694,9.354, 32.694,9.354s 15.737-16.817, 22.432-16.817c 6.679,0, 22.417,16.817, 22.417,16.817
			s 24.278-3.723, 32.71-9.354c 9.901-6.601, 12.373-35.368, 12.373-35.368L 62.362,11.722 z M 380.429,26.552l-140.786,0 l0,15.643 l 140.786,0 L 380.429,26.552 z M 380.429,57.838l-140.786,0 l0,15.643 l 140.786,0 L 380.429,57.838 z
			 M 380.429,89.123l-140.786,0 l0,15.643 l 140.786,0 L 380.429,89.123 z M 380.429,120.409l-140.786,0 l0,15.643 l 140.786,0 L 380.429,120.409 z"  />
<glyph unicode="&#xe07b;" d="M 411.714,19.214l-46.929,0 l0,15.643 c 8.65,0, 15.643,7.008, 15.643,15.643c0,8.65-6.993,15.643-15.643,15.643l-31.286,0 c-8.65,0-15.643-6.993-15.643-15.643
	c0-8.635, 6.993-15.643, 15.643-15.643l0-15.643 L 130.143,19.214 l0,15.643 c 8.65,0, 15.643,7.008, 15.643,15.643c0,8.65-6.993,15.643-15.643,15.643L 98.857,66.143 c-8.65,0-15.643-6.993-15.643-15.643c0-8.635, 6.993-15.643, 15.643-15.643l0-15.643 L 36.286,19.214 
	c-17.27,0-31.286,14.016-31.286,31.286L 5,269.5 c0,17.27, 14.016,31.286, 31.286,31.286l 375.429,0 c 17.27,0, 31.286-14.016, 31.286-31.286l0-219 C 443,33.23, 428.984,19.214, 411.714,19.214z M 130.143,256.798
	c-18.897,0-34.227-20.133-34.227-44.974S 111.246,166.852, 130.143,166.852s 34.227,20.133, 34.227,44.974S 149.039,256.798, 130.143,256.798z M 184.736,149.238
	c-8.431,5.615-32.71,9.354-32.71,9.354s-15.737-16.817-22.417-16.817c-6.695,0-22.432,16.817-22.432,16.817s-24.278-3.723-32.694-9.354
	c-8.431-5.6-12.154-35.368-12.154-35.368l 134.763,0 C 197.109,113.885, 194.638,142.653, 184.736,149.238z M 380.429,238.214l-140.786,0 l0-15.643 l 140.786,0 L 380.429,238.214 z M 380.429,206.929l-140.786,0 l0-15.643 l 140.786,0 L 380.429,206.929 z
	 M 380.429,175.643l-140.786,0 l0-15.643 l 140.786,0 L 380.429,175.643 z M 380.429,144.357l-140.786,0 l0-15.643 l 140.786,0 L 380.429,144.357 z"  />
<glyph unicode="&#xe07c;" d="M 411.714,277.321l-30.629,0 L 381.086,323.28 L 317.857,324.25l 0.328-46.929L 128.187,277.321 l 1.299,46.929L 67.571,323.28l0-46.929 L 36.286,277.321
			c-17.27,0-31.286-14.016-31.286-31.286l0-219 c0-17.27, 14.016-31.286, 31.286-31.286l 375.429,0 c 17.27,0, 31.286,14.016, 31.286,31.286L 443,246.036 C 443,263.305, 428.984,277.321, 411.714,277.321z M 333.5,308.607l 31.286,0 l0-62.571 l-31.286,0 L 333.5,308.607 z M 130.143,202.048
			c 18.897,0, 34.227-20.133, 34.227-44.974S 149.039,112.102, 130.143,112.102s-34.227,20.133-34.227,44.974S 111.246,202.048, 130.143,202.048z M 83.214,308.607l 31.286,0 l0-62.571 L 83.214,246.036 L 83.214,308.607 z
			 M 62.362,59.135c0,0, 3.708,29.753, 12.139,35.368c 8.416,5.615, 32.694,9.354, 32.694,9.354s 15.737-16.817, 22.432-16.817
			c 6.679,0, 22.417,16.817, 22.417,16.817s 24.278-3.723, 32.71-9.354c 9.901-6.601, 12.373-35.368, 12.373-35.368L 62.362,59.135 z M 380.429,73.964l-140.786,0 l0,15.643 l 140.786,0 L 380.429,73.964 z M 380.429,105.25
			l-140.786,0 l0,15.643 l 140.786,0 L 380.429,105.25 z M 380.429,136.536l-140.786,0 l0,15.643 l 140.786,0 L 380.429,136.536 z M 380.429,167.821l-140.786,0 l0,15.643 l 140.786,0 L 380.429,167.821 z"  />
<glyph unicode="&#xe07d;" d="M 410.999,127.054l0,50.999 l 34.001,0 l0-50.999 L 410.999,127.054 z M 410.999,245l 34.001,0 l0-50.999 l-34.001,0 L 410.999,245 z M 410.999,313l 34.001,0 l0-50.999 l-34.001,0 L 410.999,313 z M 360-61L 53.999-61 
	c-18.768,0-34.001,15.232-34.001,34.001l 8.499,0 C 42.576-26.999, 53.999-15.575, 53.999-1.499S 42.576,24, 28.5,24L 20,24 l0,17 l 8.499,0 C 42.576,41.001, 53.999,52.425, 53.999,66.5S 42.576,92, 28.5,92L 20,92 l0,17 l 8.499,0 
	C 42.576,109.001, 53.999,120.424, 53.999,134.5S 42.576,160, 28.5,160L 20,160 l0,17 l 8.499,0 C 42.576,177, 53.999,188.424, 53.999,202.5S 42.576,228, 28.5,228L 20,228 l0,17 l 8.499,0 C 42.576,245, 53.999,256.424, 53.999,270.5
	S 42.576,296, 28.5,296L 20,296 L 20,346.999 c0,18.768, 15.232,34.001, 34.001,34.001l 306,0 c 12.545,0, 23.393-6.868, 29.292-17L 53.999,364 C 44.6,364, 37.001,356.401, 37.001,346.999c0-9.383, 7.599-17, 17-17l 339.999,0 l0-357 
	C 394.001-45.768, 378.768-61, 360-61z M 215.501,269.447c-20.536,0-37.196-21.879-37.196-48.874s 16.643-48.874, 37.196-48.874s 37.196,21.879, 37.196,48.874
	S 236.035,269.447, 215.501,269.447z M 274.83,148.304c-9.162,6.103-35.548,10.166-35.548,10.166s-17.102-18.275-24.362-18.275
	c-7.276,0-24.378,18.275-24.378,18.275s-26.384-4.046-35.529-10.166c-9.162-6.087-13.208-38.437-13.208-38.437l 146.455,0 
	C 288.278,109.885, 285.591,141.147, 274.83,148.304z M 37.001,270.5C 37.001,265.807, 33.192,262.001, 28.5,262.001l-17,0 C 6.809,262.001, 3,265.807, 3,270.5S 6.809,278.999, 11.499,278.999l 17,0 
	C 33.192,278.999, 37.001,275.193, 37.001,270.5z M 11.499,210.999l 17,0 C 33.192,210.999, 37.001,207.193, 37.001,202.5S 33.192,194.001, 28.5,194.001l-17,0 C 6.809,194.001, 3,197.808, 3,202.5S 6.809,210.999, 11.499,210.999z M 11.499,143
	l 17,0 C 33.192,143, 37.001,139.193, 37.001,134.5S 33.192,125.999, 28.5,125.999l-17,0 C 6.809,125.999, 3,129.808, 3,134.5S 6.809,143, 11.499,143z M 11.499,75l 17,0 C 33.192,75, 37.001,71.191, 37.001,66.5
	S 33.192,57.999, 28.5,57.999l-17,0 C 6.809,57.999, 3,61.808, 3,66.5S 6.809,75, 11.499,75z M 11.499,7l 17,0 C 33.192,7, 37.001,3.191, 37.001-1.499S 33.192-10.001, 28.5-10.001l-17,0 
	C 6.809-10.001, 3-6.192, 3-1.499S 6.809,7, 11.499,7z"  />
<glyph unicode="&#xe07e;" d="M 53.999,364C 44.6,364, 37.001,356.401, 37.001,346.999c0-9.383, 7.599-17, 17-17l 339.999,0 l0-357 c0-18.768-15.232-34.001-34.001-34.001L 53.999-61 
	c-18.768,0-34.001,15.232-34.001,34.001l 8.499,0 C 42.576-26.999, 53.999-15.575, 53.999-1.499S 42.576,24, 28.5,24L 20.001,24 l0,17 l 8.499,0 C 42.576,41.001, 53.999,52.425, 53.999,66.501S 42.576,92, 28.5,92L 20.001,92 l0,17 l 8.499,0 
	C 42.576,109.001, 53.999,120.425, 53.999,134.5S 42.576,160, 28.5,160L 20.001,160 l0,17 l 8.499,0 C 42.576,177.001, 53.999,188.424, 53.999,202.5S 42.576,228, 28.5,228L 20.001,228 l0,17 l 8.499,0 C 42.576,245, 53.999,256.424, 53.999,270.5
	S 42.576,296, 28.5,296L 20.001,296 L 20.001,346.999 c0,18.768, 15.232,34.001, 34.001,34.001l 306,0 c 12.545,0, 23.393-6.868, 29.292-17L 53.999,364 z M 130.329,100.076c 4.063-9.061, 10.133-17.085, 18.155-24.056
	c 8.041-6.952, 17.765-12.172, 29.172-15.639c 11.424-3.468, 23.868-5.219, 37.382-5.219c 14.671,0, 27.216,1.937, 37.622,5.798
	c 10.404,3.877, 19.396,9.113, 26.945,15.743c 7.531,6.63, 12.87,13.124, 15.964,19.5l-16.474,0 c-5.356-7.634-13.429-14.127-24.209-19.481
	s-24.141-8.024-40.069-8.024c-14.927,0-28.509,2.567-40.765,7.718s-21.641,13.107-28.119,23.851c-6.494,10.777-9.724,23.614-9.724,38.522
	c0,14.245, 3.23,27.573, 9.707,40.018c 6.477,12.444, 15.606,21.999, 27.371,28.662c 11.746,6.682, 24.769,9.997, 38.997,9.997
	c 12.461,0, 23.851-2.635, 34.17-7.939s 18.054-12.376, 23.257-21.183c 5.203-8.84, 7.803-18.326, 7.803-28.492c0-8.704-2.022-17.153-6.068-25.33
	c-4.063-8.194-9.555-14.722-16.523-19.584c-5.252-3.724-9.486-5.577-12.698-5.577c-1.768,0-3.282,0.595-4.54,1.785
	c-1.241,1.173-1.869,2.6-1.869,4.251c0,0.917, 0.917,5.626, 2.737,14.161l 13.192,61.337l-16.337,0 l-3.162-14.144
	c-3.468,5.661-7.599,9.877-12.409,12.649c-4.794,2.772-9.86,4.147-15.148,4.147c-6.936,0-14.092-2.431-21.47-7.31
	c-7.361-4.879-13.514-12.172-18.479-21.879c-4.963-9.724-7.446-19.431-7.446-29.12c0-7.855, 1.599-15.080, 4.794-21.658
	c 3.195-6.578, 7.361-11.459, 12.461-14.603c 5.116-3.179, 10.37-4.742, 15.792-4.742c 4.93,0, 9.844,1.378, 14.739,4.147
	c 4.914,2.772, 9.35,6.442, 13.293,10.998c 0.357-3.724, 0.952-6.341, 1.751-7.888c 1.206-2.379, 3.111-4.199, 5.694-5.492
	c 2.584-1.274, 6-1.904, 10.199-1.904c 13.159,0, 25.279,6.136, 36.38,18.428c 12.428,13.702, 18.649,29.376, 18.649,47.021
	c0,12.359-2.958,23.8-8.857,34.34c-6.919,12.24-16.406,21.437-28.424,27.608s-25.568,9.265-40.681,9.265c-19.481,0-36.023-4.368-49.692-13.124
	s-24.209-21.385-31.62-37.876c-6.087-13.448-9.129-27.592-9.129-42.432C 122.662,123.977, 125.213,111.549, 130.329,100.076z M 215.313,119.931
	c-3.435-4.011-7.039-7.055-10.812-9.094c-3.79-2.041-7.378-3.077-10.777-3.077c-5.116,0-9.639,2.33-13.617,6.952
	c-3.945,4.624-5.934,11.118-5.934,19.481c0,5.252, 0.985,10.998, 2.925,17.306c 1.937,6.273, 4.54,11.612, 7.752,15.997
	c 3.23,4.387, 6.562,7.566, 9.997,9.555c 3.435,1.989, 7.105,2.974, 10.998,2.974c 5.915,0, 10.914-2.278, 15.028-6.851
	c 4.098-4.573, 6.155-10.998, 6.155-19.295c0-6.221-1.088-12.428-3.282-18.616C 221.569,129.060, 218.748,123.944, 215.313,119.931z M 37.001,270.5
	C 37.001,265.807, 33.192,262.001, 28.5,262.001l-17,0 C 6.809,262.001, 3,265.807, 3,270.5S 6.809,278.999, 11.499,278.999l 17,0 C 33.192,278.999, 37.001,275.193, 37.001,270.5z M 11.499,210.999l 17,0 C 33.192,210.999, 37.001,207.193, 37.001,202.5
	S 33.192,194.001, 28.5,194.001l-17,0 C 6.809,194.001, 3,197.808, 3,202.5S 6.809,210.999, 11.499,210.999z M 11.499,143l 17,0 C 33.192,143, 37.001,139.193, 37.001,134.5S 33.192,126, 28.5,126l-17,0 
	C 6.809,126, 3,129.808, 3,134.5S 6.809,143, 11.499,143z M 11.499,75l 17,0 C 33.192,75, 37.001,71.192, 37.001,66.501S 33.192,57.999, 28.5,57.999l-17,0 C 6.809,57.999, 3,61.808, 3,66.501
	S 6.809,75, 11.499,75z M 11.499,7l 17,0 C 33.192,7, 37.001,3.191, 37.001-1.499S 33.192-10.001, 28.5-10.001l-17,0 C 6.809-10.001, 3-6.192, 3-1.499S 6.809,7, 11.499,7z M 445,263.054l-34.001,0 
	l0,50.999 l 34.001,0 L 445,263.054 z M 445,194.001l-34.001,0 l0,50.999 l 34.001,0 L 445,194.001 z M 445,127.055l-34.001,0 l0,50.999 l 34.001,0 L 445,127.055 z"  />
<glyph unicode="&#xf02d;" d="M 409.75,264.5q 10-14.25 4.5-32.25l-68.75-226.5q-4.75-16 -19.125-26.875t-30.625-10.875l-230.75,0 q-19.25,0 -37.125,13.375t-24.875,32.875q-6,16.75 -0.5,31.75q0,1 0.75,6.75t 1,9.25q 0.25,2 -0.75,5.375t-0.75,4.875q 0.5,2.75 2,5.25t 4.125,5.875t 4.125,5.875q 5.75,9.5 11.25,22.875t 7.5,22.875q 0.75,2.5 0.125,7.5t-0.125,7q 0.75,2.75 4.25,7t 4.25,5.75 q 5.25,9 10.5,23t 6.25,22.5q 0.25,2.25 -0.625,8t 0.125,7q 1,3.25 5.5,7.625t 5.5,5.625q 4.75,6.5 10.625,21.125t 6.875,24.125q 0.25,2 -0.75,6.375t-0.5,6.625q 0.5,2 2.25,4.5t 4.5,5.75t 4.25,5.25q 2,3 4.125,7.625t 3.75,8.75t 4,9t 4.875,8t 6.625,5.875t 9,2.875t 11.875-1.375l-0.25-0.75q 9.5,2.25 12.75,2.25l 190.25,0 q 18.5,0 28.5-14t 4.5-32.5l-68.5-226.5 q-9-29.75 -17.875-38.375t-32.125-8.625l-217.25,0 q-6.75,0 -9.5-3.75q-2.75-4 -0.25-10.75q 6-17.5 36-17.5l 230.75,0 q 7.25,0 14,3.875t 8.75,10.375l 75,246.75q 1.75,5.5 1.25,14.25q 9.5-3.75 14.75-10.75zM 143.75,264q-1-3.25 0.5-5.625t 5-2.375l 152,0 q 3.25,0 6.375,2.375t 4.125,5.625l 5.25,16q 1,3.25 -0.5,5.625t-5,2.375l-152,0 q-3.25,0 -6.375-2.375 t-4.125-5.625zM 123,200q-1-3.25 0.5-5.625t 5-2.375l 152,0 q 3.25,0 6.375,2.375t 4.125,5.625l 5.25,16q 1,3.25 -0.5,5.625t-5,2.375l-152,0 q-3.25,0 -6.375-2.375t-4.125-5.625z" horiz-adv-x="416"  />
</font>
</defs>
</svg>
