<?xml version="1.0" standalone="no"?>
<!DOCTYPE svg PUBLIC "-//W3C//DTD SVG 1.1//EN" "http://www.w3.org/Graphics/SVG/1.1/DTD/svg11.dtd" >
<svg xmlns="http://www.w3.org/2000/svg">
<metadata>
This is a custom SVG font generated by IcoMoon.
<iconset grid="14"></iconset>
</metadata>
<defs>
<font id="toaster-icons" horiz-adv-x="448" >
<font-face units-per-em="448" ascent="384" descent="-64" />
<missing-glyph horiz-adv-x="448" />
<glyph class="hidden" unicode="&#xf000;" d="M0,384L 448 -64L0 -64 z" horiz-adv-x="0" />
<glyph unicode="&#xe003;" d="M 448,132L 364,216L 364,300L 308,300L 308,272L 224,356L0,132L 56,132L 56-36L 196-36L 196,76L 252,76L 252-36L 392-36L 392,132 	z" data-tags="home" />
<glyph unicode="&#xe000;" d="M 224,356L0,132L 56,132L 224,300L 392,132L 448,132 		zM 84,104L 84-36L 196-36L 196,76L 252,76L 252-36L 364-36L 364,104L 224,244 		z" data-tags="home, house, building" />
<glyph unicode="&#xe014;" d="M 404.207,14.448c-11.478,0-20.793,9.315-20.793,20.793l0,249.518 C 383.414,296.237, 392.729,305.552, 404.207,305.552
	S 425,296.237, 425,284.759l0-249.518 C 425,23.763, 415.685,14.448, 404.207,14.448z M 300.241,42.173c0-15.304-12.421-27.725-27.725-27.725l-124.759,0 c-15.304,0-27.725,12.421-27.725,27.725l0,54.879 l-55.324,12.31l0,100.209 
	l 305.298,67.273l0-235.433 L 300.241,56.921L 300.241,42.173 z M 286.379,60.013L 133.896,93.961L 133.896,42.173 c0-7.651, 6.21-13.863, 13.863-13.863l 124.759,0 c 7.666,0, 13.863,6.21, 13.863,13.863L 286.379,60.013 z M 36.863,97.621
	c-7.651,0-13.863,6.21-13.863,13.863l0,97.034 c0,7.666, 6.21,13.863, 13.863,13.863s 13.863-6.197, 13.863-13.863l0-97.034 C 50.725,103.831, 44.513,97.621, 36.863,97.621z" data-tags="speaker" />
<glyph unicode="&#xe009;" d="M 391.403,130.592l0-109.479 c0-7.654-4.325-13.852-13.837-13.852
	c-2.301,0-7.999,4.908-15.003,12.299L 362.564,313.417 c 7.001,7.391, 12.7,12.299, 15.003,12.299c 10.371,0, 13.837-6.198, 13.837-13.837l0-112.253 
	c 18.76-0.527, 36.229-15.737, 36.229-34.51C 427.632,146.33, 410.162,131.119, 391.403,130.592z M 168.728,103.902c 0.859,0,0,125.188,0,125.188
	c 95.074,0, 151.435,41.734, 181.134,70.351L 349.862,33.55 C 320.163,62.154, 263.801,103.902, 168.728,103.902z M 113.351-5.716l-27.689,109.909L 57.959,104.193 
	c0,0-8.235,18.69-11.98,41.539c-7.057,0-13.227,0-15.722,0c-7.64,0-13.837,6.198-13.837,13.852l0,13.837 c0,7.654, 6.198,13.852, 13.837,13.852
	c 2.496,0, 8.666,0, 15.722,0c 3.758,22.85, 11.98,41.526, 11.98,41.526l 96.918,0 l0-124.605 L 127.188,104.193 l 3.494-13.837l 13.824,0 l 6.92-27.702L 137.643,62.653 l 17.235-68.37
	L 113.351-5.716 z" data-tags="speaker-2" />
<glyph unicode="&#xe00a;" d="M 107.812,334.442c 2.843-0.869, 10.8-4.633, 22.864-14.824c 11.821-9.986, 22.993-22.255, 30.652-33.663
	c 8.41-12.526, 9.831-19.922, 9.686-22.166c-8.13-8.013-16.302-13.065-24.213-17.953c-7.723-4.773-15.018-9.282-21.022-15.866
	C 118.008,221.447, 114.067,210.96, 114.067,198.8c0-33.902, 29.188-63.091, 57.415-91.319C 199.709,79.254, 228.898,50.067, 262.8,50.067
	c 12.161,0, 22.647,3.941, 31.169,11.713c 6.585,6.005, 11.093,13.298, 15.866,21.022c 4.885,7.904, 9.934,16.074, 17.938,24.199
	c 0.078,0.004, 0.166,0.006, 0.269,0.006c 7.023,0, 23.135-8.106, 41.913-25.902c 8.009-7.589, 15.408-15.986, 20.838-23.645
	c 5.022-7.085, 7.046-11.707, 7.646-13.654c-1.084-2.621-6.827-13.441-33.865-35.627c-11.8-9.682-23.426-18.049-29.846-22.538
	c-21.617,1.751-54.453,12.895-89.619,30.559c-38.926,19.552-75.533,44.592-97.927,66.985
	c-22.393,22.392-47.434,59-66.985,97.927c-17.662,35.166-28.806,68.005-30.557,89.622c 4.449,6.366, 12.718,17.858, 22.354,29.619
	C 94.319,327.597, 105.192,333.36, 107.812,334.442 M 107.6,354c-25.867,0-77.6-77.6-77.6-77.6c0-51.733, 53.148-156.614, 103.467-206.933s 155.2-103.467, 206.933-103.467c0,0, 77.6,51.733, 77.6,77.6
	c0,22.255-57.442,82.805-89.959,82.805c-5.278,0-9.896-1.594-13.508-5.205c-25.867-25.867-25.867-51.733-51.733-51.733s-51.733,25.867-77.6,51.733s-51.733,51.733-51.733,77.6
	s 25.867,25.867, 51.733,51.733S 133.467,354, 107.6,354L 107.6,354z" data-tags="phone" />
<glyph unicode="&#xe016;" d="M 314.533,121.2c-25.867-25.867-25.867-51.733-51.733-51.733s-51.733,25.867-77.6,51.733s-51.733,51.733-51.733,77.6s 25.867,25.867, 51.733,51.733S 133.467,354, 107.6,354S 30,276.4, 30,276.4c0-51.733, 53.148-156.614, 103.467-206.933
	s 155.2-103.467, 206.933-103.467c0,0, 77.6,51.733, 77.6,77.6S 340.4,147.067, 314.533,121.2z" data-tags="phone-2" />
<glyph unicode="&#xe00b;" d="M 273.467,73.693c-8.396-4.679-15.139-1.548-24.585,3.43c-8.599,6.564-34.069,26.592-60.951,53.418
		c-19.626,24.826-34.64,48.24-41.553,59.499c-0.469,1.246-0.708,1.975-0.708,1.975c-4.050,10.112-6.581,17.199-0.994,25.153
		c 5.143,7.299, 7.129,9.291, 13.687,15.089L 92.487,329.903c-7.956-5.799-20.274-18.84-30.397-33.301
		c-9.409-13.745-17.374-28.956-19.547-39.811c 11.477-41.359, 39.214-118.483, 90.483-173.581l-0.016-0.232
		C 182.335,22.175, 260.699-15.644, 302.276-32c 11.014,1.040, 26.968,7.388, 41.614,15.312c 15.457,8.566, 29.691,19.468, 36.266,26.777
		L 289.891,85.748C 283.441,79.812, 281.265,78.053, 273.467,73.693zM 186.289,255.652c 5.434,3.979, 3.987,11.214, 1.445,15.192L 137.775,347.317c-3.259,3.97-10.052,6.051-15.947,4.186L 101.242,337.711
		l 66.060-97.458L 186.289,255.652zM 401.902,53.659l-70.89,57.619c-3.7,2.94-10.74,5.131-15.252,0.141l-17.293-17.297l 90.081-75.8l 15.86,19.027
		C 406.874,43.028, 405.51,50.001, 401.902,53.659z" data-tags="phone-2" />
<glyph unicode="&#xe00e;" d="M 214.495,108.315c-0.357,0.247-41.622,69.622-41.76,70.514c-8.533,18.643-15.42,37.713-1.070,46.176l-59.552,100.42
			C 96.679,313.888, 53.026,251.276, 134.735,109.386c 86.070-149.534, 167.985-143.319, 184.406-133.194l-58.030,98.019
			C 247.392,66.143, 235.841,79.438, 214.495,108.315z M 358.966,14.246l 0.014,0.082c0,0-45.312,76.357-45.34,76.385
			c-3.594,6.051-11.317,7.956-17.34,4.444l-27.767-16.422l 58.194-98.307c0,0, 27.767,16.339, 27.753,16.394l 0.055,0 
			C 360.913,0.61, 362.382,8.43, 358.966,14.246z M 207.018,245.83L 207.018,245.886 c 6.38,3.772, 7.875,11.592, 4.458,17.354l 0.028,0.082
			c0,0-46.615,78.594-46.643,78.608c-3.58,6.077-11.331,7.956-17.326,4.444L 119.768,329.952l 59.485-100.476C 179.251,229.478, 207.004,245.79, 207.018,245.83
			z" data-tags="phone-4" />
<glyph unicode="&#xe019;" d="M 374.865,274.264C 327.352,301.274, 259.418,304, 224.054,304c-0.020-0.018-0.036-0.042-0.050-0.058
		c-0.021,0.018-0.037,0.040-0.057,0.058c-35.363,0-103.298-2.729-150.81-29.736C 33.185,251.552, 32.001,227.232, 32.001,210.252l0-2.548 
		c0-3.886, 3.352-7.063, 7.445-7.063l 90.11,0 c 4.093,0, 7.445,3.176, 7.445,7.063l0,8.589 c0,21.455, 20.517,24.883, 31.837,26.704
		s 39.463,3.582, 55.11,3.582c 0.021,0, 0.036,0, 0.057,0c 0.016,0, 0.030,0, 0.050,0c 15.647,0, 43.788-1.763, 55.11-3.582
		c 11.321-1.822, 31.837-5.25, 31.837-26.704l0-8.589 c0-3.886, 3.352-7.063, 7.446-7.063l 90.109,0 c 4.095,0, 7.446,3.176, 7.446,7.063l0,2.548 
		C 416,227.232, 414.816,251.552, 374.865,274.264zM 224.005,203.344c-21.281,0-65.586,3.062-88.096-24.234C 113.392,151.822, 57.091,16, 107.298,16
		c 50.217,0, 94.094,0, 116.705,0c 22.602,0, 66.486,0, 116.696,0c 50.209,0-6.093,135.822-28.602,163.11
		C 289.584,206.406, 245.275,203.344, 224.005,203.344z M 224,52c-33.138,0-60,26.862-60,60s 26.862,60, 60,60s 60-26.862, 60-60
		S 257.138,52, 224,52z" data-tags="phone-5" />
<glyph unicode="&#xe01c;" d="M 350-32L 98-32 C 84.74-32, 74-21.248, 74-8L 74,280 C 74,293.26, 84.74,304, 98,304l0-288 c0-13.248, 10.752-24, 24-24L 170-8 
	C 183.26-8, 194,2.752, 194,16L 194,304 l 156,0 c 13.26,0, 24-10.752, 24-24l0-288 C 374-21.248, 363.26-32, 350-32z M 290,4l 24,0 l0,24 l-24,0 L 290,4 z M 290,40l 24,0 l0,24 l-24,0 L 290,40 z M 290,76
	l 24,0 l0,24 l-24,0 L 290,76 z M 290,112l 24,0 l0,24 l-24,0 L 290,112 z M 254,4l 24,0 l0,24 l-24,0 L 254,4 z M 254,40l 24,0 l0,24 l-24,0 L 254,40 z M 254,76l 24,0 l0,24 l-24,0 L 254,76 z M 254,112l 24,0 l0,24 l-24,0 L 254,112 z M 350,268
	c0,6.636-5.364,12-12,12l-108,0 c-6.624,0-12-5.364-12-12l0-48 c0-6.624, 5.376-12, 12-12l 108,0 c 6.636,0, 12,5.376, 12,12L 350,268 z M 350,136l-24,0 l0-24 l 24,0 L 350,136 z M 350,100l-24,0 l0-24 l 24,0 L 350,100 z
	 M 350,64l-24,0 l0-24 l 24,0 L 350,64 z M 350,28l-24,0 l0-24 l 24,0 L 350,28 z M 170,4L 122,4 c-6.624,0-12,5.364-12,12L 110,316 c0,6.636, 5.376,12, 12,12l 23.256,0 L 145.256,352 L 158,352 l0-24 l 12,0 C 176.624,328, 182,322.636, 182,316
	l0-300 C 182,9.364, 176.624,4, 170,4z" data-tags="phone-6" />
<glyph unicode="&#xe008;" d="M 296,352c-6.628,0-12-5.372-12-12l0-36 L 152,304 c-6.628,0-12-5.372-12-12l0-312 c0-6.628, 5.372-12, 12-12l 144,0 c 6.628,0, 12,5.372, 12,12L 308,340 
	C 308,346.628, 302.628,352, 296,352z M 188-8l-24,0 l0,24 l 24,0 L 188-8 z M 188,40l-24,0 l0,24 l 24,0 L 188,40 z M 188,88l-24,0 l0,24 l 24,0 L 188,88 z M 236-8l-24,0 l0,24 l 24,0 L 236-8 z
	 M 236,40l-24,0 l0,24 l 24,0 L 236,40 z M 236,88l-24,0 l0,24 l 24,0 L 236,88 z M 284-8l-24,0 l0,24 l 24,0 L 284-8 z M 284,40l-24,0 l0,24 l 24,0 L 284,40 z M 284,88l-24,0 l0,24 l 24,0 L 284,88 z
	 M 284,148c0-6.628-5.372-12-12-12L 176,136 c-6.628,0-12,5.372-12,12L 164,268 c0,6.628, 5.372,12, 12,12l 96,0 c 6.628,0, 12-5.372, 12-12L 284,148 z" data-tags="mobile" />
<glyph unicode="&#xe001;" d="M 319.984,352l-192,0 C 110.32,352, 96,337.664, 96,320l0-320 c0-17.664, 14.32-32, 31.984-32l 192,0 
			C 337.664-32, 352-17.664, 352,0L 352,320 C 352,337.664, 337.664,352, 319.984,352z M 176,336l 80,0 l 0.992-16L 176,320 L 176,336 z M 223.664-8c-8.832,0-16,7.152-16,16s 7.168,16, 16,16
			c 8.848,0, 16-7.152, 16-16S 232.496-8, 223.664-8z M 319.984,48l-192,0 l 0.336,256l 191.664,0 L 319.984,48 z" data-tags="mobile-2" />
<glyph unicode="&#xe028;" d="M 337.64,353l-241.25,0 C 78.619,353, 64.208,338.589, 64.208,320.833l0-321.667 c0-17.756, 14.411-32.167, 32.183-32.167l 241.25,0 
			C 355.396-33, 369.792-18.589, 369.792-0.833L 369.792,320.833 C 369.792,338.589, 355.396,353, 337.64,353z M 217-16.918c-8.878,0-16.067,7.189-16.067,16.083s 7.189,16.083, 16.067,16.083
			c 8.893,0, 16.1-7.189, 16.1-16.083S 225.893-16.918, 217-16.918z M 337.48,32.33L 95.811,32.33 L 95.811,320.416 l 241.669,0 L 337.48,32.33 z" data-tags="tablet" />
<glyph unicode="&#xe029;" d="M 332,352L 116,352 C 102.8,352, 92,341.201, 92,328l0-336 c0-13.2, 10.799-24, 24-24l 216,0 c 13.2,0, 24,10.8, 24,24L 356,328 C 356,341.201, 345.2,352, 332,352z
	 M 224-14.668c-10.31,0-18.668,8.358-18.668,18.668s 8.358,18.668, 18.668,18.668s 18.668-8.358, 18.668-18.668
	S 234.31-14.668, 224-14.668z M 332,40L 116,40 L 116,304 l 216,0 L 332,40 z" data-tags="tablet-2" />
<glyph unicode="&#xe031;" d="M 248.111,16.33l-48.222,0 L 199.889-8.778 L 151.667-16.815l0-16.074 l 143.67,0 l0,15.077 L 248.111-8.778L 248.111,16.33 z M 408.852,352.889L 39.148,352.889 
			C 21.386,352.889, 7,338.503, 7,320.741l0-225.037 C 7,77.958, 21.386,63.556, 39.148,63.556l 369.704,0 c 17.762,0, 32.148,14.402, 32.148,32.148L 441,320.741 C 441,338.503, 426.614,352.889, 408.852,352.889z M 221.991,87.667
			c-8.873,0-16.074,7.201-16.074,16.074c0,8.889, 7.201,16.074, 16.074,16.074c 8.889,0, 16.074-7.185, 16.074-16.074C 238.065,94.868, 230.864,87.667, 221.991,87.667z M 408.852,143.926L 39.148,143.926 L 39.148,320.741 l 369.704,0 L 408.852,143.926 z" data-tags="desktop" />
<glyph unicode="&#xe002;" d="M 441,24.375L 441,349.875 L 7,349.875 l0-325.5 l 189.875,0 l0-27.125 l-81.375,0 l0-27.125 l 217,0 l0,27.125 l-81.375,0 l0,27.125 L 441,24.375 z M 61.25,295.625l 325.5,0 l0-217 L 61.25,78.625 L 61.25,295.625 z" data-tags="desktop-2" />
<glyph unicode="&#xe033;" d="M 284.907,151.966L 448,39.481L 448,298.435 	zM0,298.435L0,39.481L 163.090,151.982 	zM 224,97.27L 185.062,132.231L0,20L 448,20L 262.933,132.231 	zM 434.56,300L 13.44,300L 224,141.69 	z" data-tags="email" />
<glyph unicode="&#xe034;" d="M 224.24,114.222l-65.154,53.49L 17.289,0.298l 414.031,0 l-141.813,169.078L 224.24,114.222z
			 M 446.824,319.702L 1.768,319.702 l 222.536-187.175L 446.824,319.702z M 299.283,177.809l 148.661-177.35L 447.944,303.701 L 299.283,177.809z M 0.056,303.701l0-303.243 
			l 148.661,177.35L 0.056,303.701z" data-tags="email-2" />
<glyph unicode="&#xe035;" d="M0,300l0-280 l 448,0 L 448,300 L0,300 z M 387.334,272L 224,149.5L 60.666,272L 387.334,272 z M 28,48L 28,261.5 l 196-147l 196,147l0-213.5 L 28,48 z" data-tags="email-3" />
<glyph unicode="&#xe00c;" d="M 0,300l0-280 l 448,0 L 448,300 L 0,300 z M 392,272L 280,160L 168,160 L 56,272L 392,272 z M 28,272l 112-112L 28,48L 28,272 z M 56,48l 84,84l 168,0 l 84-84L 56,48 z M 420,48
	L 308,160l 112,112L 420,48 z" data-tags="email-4" />
<glyph unicode="&#xe055;" d="M 169.142,297.142A54.858,54.858 8820 1 0 278.858,297.142A54.858,54.858 8820 1 0 169.142,297.142zM 169.142,160A54.858,54.858 8820 1 0 278.858,160A54.858,54.858 8820 1 0 169.142,160zM 169.142,22.858A54.858,54.858 8820 1 0 278.858,22.858000000000004A54.858,54.858 8820 1 0 169.142,22.858000000000004z" data-tags="menu" />
<glyph unicode="&#xe056;" d="M 368,64L 80,64 c-26.4,0-48-21.6-48-48s 21.6-48, 48-48l 288,0 c 26.4,0, 48,21.6, 48,48S 394.4,64, 368,64zM 368,208L 80,208 c-26.4,0-48-21.6-48-48s 21.6-48, 48-48l 288,0 c 26.4,0, 48,21.6, 48,48S 394.4,208, 368,208zM 80,256l 288,0 c 26.4,0, 48,21.6, 48,48S 394.4,352, 368,352L 80,352 C 53.6,352, 32,330.4, 32,304S 53.6,256, 80,256z" data-tags="menu-2" />
<glyph unicode="&#xe057;" d="M 169.142,352L 278.858,352L 278.858,242.286L 169.142,242.286zM 169.142,214.858L 278.858,214.858L 278.858,105.142L 169.142,105.142zM 169.142,77.714L 278.858,77.714L 278.858-32L 169.142-32z" data-tags="menu-3" />
<glyph unicode="&#xe010;" d="M 32,352L 128,352L 128,256L 32,256zM 176,352L 416,352L 416,256L 176,256zM 32,208L 128,208L 128,112L 32,112zM 176,208L 416,208L 416,112L 176,112zM 32,64L 128,64L 128-32L 32-32zM 176,64L 416,64L 416-32L 176-32z" data-tags="menu-4" />
<glyph unicode="&#xe012;" d="M 32,352L 128,352L 128,256L 32,256zM 176,352L 272,352L 272,256L 176,256zM 320,352L 416,352L 416,256L 320,256zM 32,208L 128,208L 128,112L 32,112zM 176,208L 272,208L 272,112L 176,112zM 320,208L 416,208L 416,112L 320,112zM 32,64L 128,64L 128-32L 32-32zM 176,64L 272,64L 272-32L 176-32zM 320,64L 416,64L 416-32L 320-32z" data-tags="menu-5" />
<glyph unicode="&#xe058;" d="M 32,352l0-96 l 384,0 L 416,352 L 32,352 z M 32,112l 384,0 l0,96 L 32,208 L 32,112 z M 32-32l 384,0 l0,96 L 32,64 L 32-32 z" data-tags="menu-6" />
<glyph unicode="&#xe018;" d="M 336,104L 224,216L 112,104 z" data-tags="arrow-up" />
<glyph unicode="&#xe01a;" d="M 168.001,48L 280.001,160L 168.001,272 z" data-tags="arrow-right" />
<glyph unicode="&#xe01b;" d="M 112,216L 224,104L 336,216 z" data-tags="arrow-down" />
<glyph unicode="&#xe01d;" d="M 280.001,272L 168.001,160L 280.001,47.999 z" data-tags="arrow-left" />
<glyph unicode="&#xe01e;" d="M 112-64L 336,160L 112,384L 224,160 z" data-tags="arrow-right-2" />
<glyph unicode="&#xe01f;" d="M 448,48L 224,272L0,48L 224,160 z" data-tags="arrow-up-2" />
<glyph unicode="&#xe020;" d="M0,272L 224,48L 448,272L 224,160 z" data-tags="arrow-down-2" />
<glyph unicode="&#xe02c;" d="M 336,384L 112,160L 336-64L 224.001,160 z" data-tags="arrow-left-2" />
<glyph unicode="&#xe02d;" d="M 338.78-33.549c 6.993-7.070, 6.993-18.473,0-25.544s-18.29-7.070-25.284,0l-204.298,206.307c-6.993,7.070-6.993,18.5,0,25.544
	l 204.298,206.333c 6.993,7.070, 18.29,7.070, 25.284,0s 6.993-18.473,0-25.544L 152.484,160L 338.78-33.549z" data-tags="arrow-left-3" />
<glyph unicode="&#xe022;" d="M 109.191-33.549c -6.993-7.070, -6.993-18.473,0-25.544s 18.29-7.070 25.284,0l 204.298,206.307c 6.993,7.070 6.993,18.5,0,25.544
	l -204.298,206.333c -6.993,7.070, -18.29,7.070, -25.284,0s -6.993-18.473,0-25.544L 295.487,160L 109.191-33.549z" data-tags="arrow-right-3" />
<glyph unicode="&#xf107;" d="M 285.749,207.086q0-3.692 -2.839-6.534l-132.375-132.375q-2.839-2.839 -6.534-2.839t-6.534,2.839l-132.375,132.375q-2.839,2.839 -2.839,6.534t 2.839,6.534l 14.205,14.205q 2.839,2.839 6.534,2.839t 6.534-2.839l 111.639-111.639l 111.639,111.639q 2.839,2.839 6.534,2.839t 6.534-2.839l 14.205-14.205q 2.839-2.839 2.839-6.534z" horiz-adv-x="288" data-tags="angle-down, arrow, down" />
<glyph unicode="&#xf054;" d="M 266.489,160q0-12.866 -9.154-22.517l-161.326-161.079q-9.154-9.154 -22.269-9.154t-22.269,9.154l-18.805,18.558q-9.154,9.649 -9.154,22.517q0,13.113 9.154,22.269l 120.252,120.252l-120.252,120.005q-9.154,9.649 -9.154,22.517q0,13.113 9.154,22.269l 18.805,18.558q 8.907,9.402 22.269,9.402t 22.269-9.402l 161.326-161.079q 9.154-9.154 9.154-22.269z" horiz-adv-x="288" data-tags="chevron-right, right, arrow-right, next" />
<glyph unicode="&#xf053;" d="M 191.991-23.344l-161.326,161.078q-9.156,9.156 -9.156,22.393t 9.156,22.393l 161.326,161.078q 9.156,9.156 22.393,9.156t 22.393-9.156l 18.557-18.557q 9.156-9.156 9.156-22.393t-9.156-22.393l-120.252-120.252l 120.252-120.004q 9.156-9.403 9.156-22.516t-9.156-22.268l-18.557-18.557q-9.156-9.156 -22.393-9.156t-22.393,9.156z" horiz-adv-x="288" data-tags="chevron-left, arrow-left, left, previous" />
<glyph unicode="&#xf0dc;" d="M 256,112q0-6.5 -4.75-11.25l-112-112q-4.75-4.75 -11.25-4.75t-11.25,4.75l-112,112q-4.75,4.75 -4.75,11.25t 4.75,11.25t 11.25,4.75l 224,0 q 6.5,0 11.25-4.75t 4.75-11.25zM 256,208q0-6.5 -4.75-11.25t-11.25-4.75l-224,0 q-6.5,0 -11.25,4.75t-4.75,11.25t 4.75,11.25l 112,112q 4.75,4.75 11.25,4.75t 11.25-4.75l 112-112q 4.75-4.75 4.75-11.25z" horiz-adv-x="256" data-tags="sort, menu, dropdown, arrows" />
<glyph unicode="&#xf0dd;" d="M 256,112q0-6.5 -4.75-11.25l-112-112q-4.75-4.75 -11.25-4.75t-11.25,4.75l-112,112q-4.75,4.75 -4.75,11.25t 4.75,11.25t 11.25,4.75l 224,0 q 6.5,0 11.25-4.75t 4.75-11.25z" horiz-adv-x="256" data-tags="sort-down" />
<glyph unicode="&#xf0de;" d="M 256,208q0-6.5 -4.75-11.25t-11.25-4.75l-224,0 q-6.5,0 -11.25,4.75t-4.75,11.25t 4.75,11.25l 112,112q 4.75,4.75 11.25,4.75t 11.25-4.75l 112-112q 4.75-4.75 4.75-11.25z" horiz-adv-x="256" data-tags="sort-up" />
<glyph unicode="&#xe023;" d="M 182.080,352.154L 32.655,351.271l 0.056-148.465l 49.714,49.73l 66.296-66.296l 51.151,51.151
			L 133.595,303.69L 182.080,352.154z M 148.74,134.092l-66.296-66.315l-49.714,49.751l-0.056-149.694l 149.425,0.344l-48.485,48.466l 66.296,66.277
			L 148.74,134.092z M 299.279,186.243l 66.277,66.296l 49.714-49.73l 0.077,148.465l-149.425,0.883l 48.485-48.466l-66.296-66.296L 299.279,186.243z
			 M 365.556,67.775l-66.277,66.315l-51.17-51.17l 66.296-66.277l-48.485-48.466l 149.425-0.344l-0.077,149.694L 365.556,67.775z" data-tags="expand" />
<glyph unicode="&#xe024;" d="M 144.468,287.812L 83.518,348.744L 36.492,301.716l 60.95-60.932l-45.703-45.703l 137.587-0.071
			l-0.299,137.358L 144.468,287.812z M 350.558,240.784l 60.95,60.932l-47.028,47.028l-60.95-60.932l-44.556,44.556l-0.299-137.358l 137.587,0.071
			L 350.558,240.784z M 97.443,79.216l-60.95-60.932l 47.028-47.028l 60.95,60.932l 44.575-44.556l 0.299,137.358l-137.587-0.071L 97.443,79.216z
			 M 396.263,124.919l-137.587,0.071l 0.299-137.358l 44.556,44.556l 60.95-60.932l 47.028,47.028l-60.95,60.932L 396.263,124.919z" data-tags="turn" />
<glyph unicode="&#xe005;" d="M 248,112L 248,40L 296,40L 224-32L 152,40L 200,40L 200,112 		zM 200,208L 200,280L 152,280L 224,352L 296,280L 248,280L 248,208 		zM 176,136L 104,136L 104,88L 32,160L 104,232L 104,184L 176,184 		zM 272,184L 344,184L 344,232L 416,160L 344,88L 344,136L 272,136 		z" data-tags="move" />
<glyph unicode="&#xe026;" d="M 412.635,43.418c-0.002,0.002-0.004,0.004-0.005,0.004L 296.055,160l 116.575,116.577c 0.002,0.002, 0.004,0.003, 0.005,0.004
		c 1.255,1.256, 2.163,2.722, 2.744,4.285c 1.594,4.269, 0.684,9.262-2.748,12.695L 357.56,348.63c-3.432,3.431-8.424,4.34-12.694,2.747
		c-1.562-0.582-3.029-1.49-4.285-2.744c0-0.002-0.002-0.003-0.004-0.004L 224.001,232.052L 107.424,348.629
		c-0.002,0.002-0.003,0.003-0.004,0.004c-1.256,1.254-2.722,2.162-4.284,2.744c-4.271,1.595-9.262,0.685-12.695-2.747L 35.371,293.559
		c-3.432-3.432-4.341-8.425-2.747-12.694c 0.583-1.562, 1.49-3.029, 2.744-4.285c 0.002-0.001, 0.003-0.003, 0.004-0.004L 151.949,160
		L 35.371,43.422c-0.001-0.002-0.003-0.003-0.004-0.004c-1.254-1.256-2.162-2.722-2.744-4.284c-1.595-4.269-0.685-9.262, 2.747-12.695
		l 55.070-55.069c 3.433-3.432, 8.425-4.341, 12.695-2.747c 1.562,0.583, 3.029,1.49, 4.285,2.744c 0.001,0.002, 0.003,0.003, 0.004,0.004
		l 116.577,116.577l 116.577-116.577c 0.002-0.001, 0.004-0.003, 0.005-0.004c 1.257-1.255, 2.722-2.163, 4.284-2.744
		c 4.27-1.594, 9.263-0.685, 12.694,2.747l 55.069,55.070c 3.432,3.432, 4.342,8.426, 2.748,12.695
		C 414.795,40.697, 413.89,42.162, 412.635,43.418z" data-tags="close-2" />
<glyph unicode="&#xe027;" d="M 32,196l0-72 c0-6.628, 5.372-12, 12-12l 360,0 c 6.628,0, 12,5.372, 12,12l0,72 c0,6.628-5.372,12-12,12L 44,208 C 37.372,208, 32,202.628, 32,196z" data-tags="minus" />
<glyph unicode="&#xe02f;" d="M 404,208L 272,208 L 272,340 c0,6.628-5.372,12-12,12l-72,0 c-6.628,0-12-5.372-12-12l0-132 L 44,208 c-6.628,0-12-5.372-12-12l0-72 
	c0-6.628, 5.372-12, 12-12l 132,0 l0-132 c0-6.628, 5.372-12, 12-12l 72,0 c 6.628,0, 12,5.372, 12,12L 272,112 l 132,0 c 6.628,0, 12,5.372, 12,12l0,72 
	C 416,202.628, 410.627,208, 404,208z" data-tags="plus" />
<glyph unicode="&#xe030;" d="M 414.707,269.587l-31.31,31.31c-5.781,5.767-15.113,5.767-20.878,0L 174.79,113.167
	L 85.495,203.107c-5.767,5.767-15.098,5.767-20.878,0l-31.31-31.31c-5.767-5.781-5.767-15.113,0-20.878l 130.934-131.815
	c 5.767-5.767, 15.113-5.767, 20.878,0L 414.707,248.707C 420.474,254.46, 420.474,263.82, 414.707,269.587z" data-tags="checkmark" />
<glyph unicode="&#xe02e;" d="M 400.646,328c-125.438-94.938-245.739-221.924-245.739-221.924L 68.216,184L 32,147.108
			C 67.632,113.62, 150.185,25.159, 178.112-8C 256.708,123.318, 338.416,221.251, 416,310.808L 400.646,328z" data-tags="checkmark-2" />
<glyph unicode="&#xe013;" d="M 296,340L 152,76L 104,148L 32,148L 152-20L 416,340 z" data-tags="checkmark-3" />
<glyph unicode="&#xe015;" d="M 408.228-33l-52.637,0 c-4.842,0-8.772,3.931-8.772,8.772s 3.931,8.772, 8.772,8.772L 399.454-15.454 l0,43.863 
	c0,4.842, 3.931,8.772, 8.772,8.772c 4.825,0, 8.772-3.931, 8.772-8.772l0-52.637 C 417-29.069, 413.053-33, 408.228-33z M 408.228,72.272c-4.842,0-8.772,3.931-8.772,8.772l0,52.637 
	c0,4.842, 3.931,8.772, 8.772,8.772c 4.825,0, 8.772-3.931, 8.772-8.772l0-52.637 C 417,76.203, 413.053,72.272, 408.228,72.272z M 408.228,177.546c-4.842,0-8.772,3.931-8.772,8.772l0,52.637 
	c0,4.842, 3.931,8.772, 8.772,8.772c 4.825,0, 8.772-3.931, 8.772-8.772l0-52.637 C 417,181.475, 413.053,177.546, 408.228,177.546z M 408.228,282.819C 403.384,282.819, 399.454,286.749, 399.454,291.591L 399.454,335.454 l-43.863,0 
	C 350.749,335.454, 346.819,339.384, 346.819,344.228S 350.749,353, 355.591,353l 52.637,0 C 413.053,353, 417,349.069, 417,344.228l0-52.637 C 417,286.749, 413.053,282.819, 408.228,282.819z M 200.595,71.342
	c-3.229-3.246-8.475-3.246-11.721,0l-2.596,2.596l0,0l-2.773,2.773l-12.211,12.211c-0.035,0.052-0.017,0.122-0.052,0.158L 115.306,145.438
	c-3.246,3.229-3.246,8.475,0,11.721l 17.58,17.598c 3.246,3.246, 8.492,3.246, 11.738,0l 50.18-50.549l 105.519,105.5
	c 3.229,3.246, 8.475,3.246, 11.721,0l 17.58-17.598c 3.264-3.246, 3.264-8.492,0-11.738L 200.595,71.342z M 302.954,335.454l-52.637,0 C 245.475,335.454, 241.546,339.384, 241.546,344.228
	S 245.475,353, 250.319,353l 52.637,0 C 307.779,353, 311.728,349.069, 311.728,344.228S 307.779,335.454, 302.954,335.454z M 197.681,335.454l-52.637,0 C 140.203,335.454, 136.272,339.384, 136.272,344.228S 140.203,353, 145.046,353l 52.637,0 
	C 202.506,353, 206.454,349.069, 206.454,344.228S 202.506,335.454, 197.681,335.454z M 92.409-33l-52.637,0 C 34.931-33, 31-29.069, 31-24.228l0,52.637 C 31,33.251, 34.931,37.181, 39.772,37.181
	C 44.616,37.181, 48.546,33.251, 48.546,28.409L 48.546-15.454 l 43.863,0 C 97.251-15.454, 101.181-19.384, 101.181-24.228S 97.251-33, 92.409-33z M 92.409,335.454L 48.546,335.454 l0-43.863 C 48.546,286.749, 44.616,282.819, 39.772,282.819
	C 34.931,282.819, 31,286.749, 31,291.591l0,52.637 C 31,349.069, 34.931,353, 39.772,353l 52.637,0 C 97.251,353, 101.181,349.069, 101.181,344.228S 97.251,335.454, 92.409,335.454z M 39.772,247.728C 44.616,247.728, 48.546,243.797, 48.546,238.954l0-52.637 
	C 48.546,181.475, 44.616,177.546, 39.772,177.546C 34.931,177.546, 31,181.475, 31,186.319l0,52.637 C 31,243.797, 34.931,247.728, 39.772,247.728z M 39.772,142.454C 44.616,142.454, 48.546,138.525, 48.546,133.681l0-52.637 
	C 48.546,76.203, 44.616,72.272, 39.772,72.272C 34.931,72.272, 31,76.203, 31,81.046l0,52.637 C 31,138.525, 34.931,142.454, 39.772,142.454z M 145.046-15.454l 52.637,0 c 4.825,0, 8.772-3.931, 8.772-8.772
	S 202.506-33, 197.681-33l-52.637,0 c-4.842,0-8.772,3.931-8.772,8.772S 140.203-15.454, 145.046-15.454z M 250.319-15.454l 52.637,0 c 4.825,0, 8.772-3.931, 8.772-8.772S 307.779-33, 302.954-33l-52.637,0 
	c-4.842,0-8.772,3.931-8.772,8.772S 245.475-15.454, 250.319-15.454z" data-tags="checked, checkmark, tick, checkbox" />
<glyph unicode="&#xe032;" d="M 408.228-33l-52.637,0 c-4.842,0-8.772,3.931-8.772,8.772s 3.931,8.772, 8.772,8.772L 399.454-15.454 l0,43.863 
	c0,4.842, 3.931,8.772, 8.772,8.772c 4.825,0, 8.772-3.931, 8.772-8.772l0-52.637 C 417-29.069, 413.053-33, 408.228-33z M 408.228,72.272c-4.842,0-8.772,3.931-8.772,8.772l0,52.637 
	c0,4.842, 3.931,8.772, 8.772,8.772c 4.825,0, 8.772-3.931, 8.772-8.772l0-52.637 C 417,76.203, 413.053,72.272, 408.228,72.272z M 408.228,177.546c-4.842,0-8.772,3.931-8.772,8.772l0,52.637 
	c0,4.842, 3.931,8.772, 8.772,8.772c 4.825,0, 8.772-3.931, 8.772-8.772l0-52.637 C 417,181.475, 413.053,177.546, 408.228,177.546z M 408.228,282.819C 403.384,282.819, 399.454,286.749, 399.454,291.591L 399.454,335.454 l-43.863,0 
	C 350.749,335.454, 346.819,339.384, 346.819,344.228S 350.749,353, 355.591,353l 52.637,0 C 413.053,353, 417,349.069, 417,344.228l0-52.637 C 417,286.749, 413.053,282.819, 408.228,282.819z M 302.954-33l-52.637,0 
	c-4.842,0-8.772,3.931-8.772,8.772s 3.931,8.772, 8.772,8.772l 52.637,0 c 4.825,0, 8.772-3.931, 8.772-8.772S 307.779-33, 302.954-33z M 302.954,335.454l-52.637,0 
	C 245.475,335.454, 241.546,339.384, 241.546,344.228S 245.475,353, 250.319,353l 52.637,0 C 307.779,353, 311.728,349.069, 311.728,344.228S 307.779,335.454, 302.954,335.454z M 197.681,335.454l-52.637,0 C 140.203,335.454, 136.272,339.384, 136.272,344.228
	S 140.203,353, 145.046,353l 52.637,0 C 202.506,353, 206.454,349.069, 206.454,344.228S 202.506,335.454, 197.681,335.454z M 92.409-33l-52.637,0 C 34.931-33, 31-29.069, 31-24.228l0,52.637 C 31,33.251, 34.931,37.181, 39.772,37.181
	C 44.616,37.181, 48.546,33.251, 48.546,28.409L 48.546-15.454 l 43.863,0 C 97.251-15.454, 101.181-19.384, 101.181-24.228S 97.251-33, 92.409-33z M 92.409,335.454L 48.546,335.454 l0-43.863 C 48.546,286.749, 44.616,282.819, 39.772,282.819
	C 34.931,282.819, 31,286.749, 31,291.591l0,52.637 C 31,349.069, 34.931,353, 39.772,353l 52.637,0 C 97.251,353, 101.181,349.069, 101.181,344.228S 97.251,335.454, 92.409,335.454z M 39.772,247.728C 44.616,247.728, 48.546,243.797, 48.546,238.954l0-52.637 
	C 48.546,181.475, 44.616,177.546, 39.772,177.546C 34.931,177.546, 31,181.475, 31,186.319l0,52.637 C 31,243.797, 34.931,247.728, 39.772,247.728z M 39.772,142.454C 44.616,142.454, 48.546,138.525, 48.546,133.681l0-52.637 
	C 48.546,76.203, 44.616,72.272, 39.772,72.272C 34.931,72.272, 31,76.203, 31,81.046l0,52.637 C 31,138.525, 34.931,142.454, 39.772,142.454z M 307.096,94.679l-17.791-17.791
	c-3.264-3.281-8.563-3.281-11.844,0l-50.356,50.356l-50.356-50.356c-3.281-3.281-8.563-3.281-11.844,0l-17.773,17.791
	c-3.281,3.281-3.281,8.563,0,11.844l 50.373,50.356l-50.373,50.356c-3.281,3.264-3.281,8.563,0,11.844l 17.773,17.773
	c 3.281,3.281, 8.563,3.281, 11.844,0l 50.356-50.356l 50.356,50.356c 3.281,3.281, 8.579,3.281, 11.844,0l 17.791-17.773
	c 3.264-3.281, 3.264-8.579,0-11.844l-50.373-50.356l 50.373-50.356C 310.358,103.258, 310.358,97.96, 307.096,94.679z M 145.046-15.454l 52.637,0 
	c 4.825,0, 8.772-3.931, 8.772-8.772S 202.506-33, 197.681-33l-52.637,0 c-4.842,0-8.772,3.931-8.772,8.772S 140.203-15.454, 145.046-15.454z" data-tags="error, cancel, close, partially checked" />
<glyph unicode="&#xe03a;" d="M 92.409,353l-52.637,0 C 34.931,353, 31,349.069, 31,344.228l0-52.637 C 31,286.749, 34.931,282.819, 39.772,282.819C 44.616,282.819, 48.546,286.749, 48.546,291.591
			L 48.546,335.454 l 43.863,0 C 97.251,335.454, 101.181,339.384, 101.181,344.228S 97.251,353, 92.409,353z M 145.046,335.454l 52.637,0 C 202.506,335.454, 206.454,339.384, 206.454,344.228S 202.506,353, 197.681,353l-52.637,0 C 140.203,353, 136.272,349.069, 136.272,344.228
			S 140.203,335.454, 145.046,335.454z M 302.954,353l-52.637,0 C 245.475,353, 241.546,349.069, 241.546,344.228S 245.475,335.454, 250.319,335.454l 52.637,0 C 307.779,335.454, 311.728,339.384, 311.728,344.228S 307.779,353, 302.954,353z M 408.228,353l-52.637,0 
			C 350.749,353, 346.819,349.069, 346.819,344.228S 350.749,335.454, 355.591,335.454L 399.454,335.454 l0-43.863 C 399.454,286.749, 403.384,282.819, 408.228,282.819C 413.053,282.819, 417,286.749, 417,291.591l0,52.637 
			C 417,349.069, 413.053,353, 408.228,353z M 408.228,247.728c-4.842,0-8.772-3.931-8.772-8.772l0-52.637 c0-4.842, 3.931-8.772, 8.772-8.772c 4.825,0, 8.772,3.931, 8.772,8.772l0,52.637 
			C 417,243.797, 413.053,247.728, 408.228,247.728z M 408.228,142.454c-4.842,0-8.772-3.931-8.772-8.772l0-52.637 c0-4.842, 3.931-8.772, 8.772-8.772c 4.825,0, 8.772,3.931, 8.772,8.772l0,52.637 
			C 417,138.525, 413.053,142.454, 408.228,142.454z M 408.228,37.181c-4.842,0-8.772-3.931-8.772-8.772L 399.454-15.454 l-43.863,0 c-4.842,0-8.772-3.931-8.772-8.772s 3.931-8.772, 8.772-8.772l 52.637,0 
			c 4.825,0, 8.772,3.931, 8.772,8.772l0,52.637 C 417,33.251, 413.053,37.181, 408.228,37.181z M 302.954-15.454l-52.637,0 c-4.842,0-8.772-3.931-8.772-8.772s 3.931-8.772, 8.772-8.772l 52.637,0 
			c 4.825,0, 8.772,3.931, 8.772,8.772S 307.779-15.454, 302.954-15.454z M 197.681-15.454l-52.637,0 c-4.842,0-8.772-3.931-8.772-8.772s 3.931-8.772, 8.772-8.772l 52.637,0 
			c 4.825,0, 8.772,3.931, 8.772,8.772S 202.506-15.454, 197.681-15.454z M 92.409-15.454L 48.546-15.454 l0,43.863 C 48.546,33.251, 44.616,37.181, 39.772,37.181C 34.931,37.181, 31,33.251, 31,28.409l0-52.637 
			C 31-29.069, 34.931-33, 39.772-33l 52.637,0 C 97.251-33, 101.181-29.069, 101.181-24.228S 97.251-15.454, 92.409-15.454z M 39.772,72.272C 44.616,72.272, 48.546,76.203, 48.546,81.046l0,52.637 
			C 48.546,138.525, 44.616,142.454, 39.772,142.454C 34.931,142.454, 31,138.525, 31,133.681l0-52.637 C 31,76.203, 34.931,72.272, 39.772,72.272z M 39.772,177.546C 44.616,177.546, 48.546,181.475, 48.546,186.319l0,52.637 
			C 48.546,243.797, 44.616,247.728, 39.772,247.728C 34.931,247.728, 31,243.797, 31,238.954l0-52.637 C 31,181.475, 34.931,177.546, 39.772,177.546z M 152.731,142.454l 140.363,0 c 9.702,0, 17.546,7.861, 17.546,17.546
			c0,9.702-7.842,17.546-17.546,17.546l-140.363,0 c-9.702,0-17.546-7.842-17.546-17.546C 135.185,150.315, 143.027,142.454, 152.731,142.454z" data-tags="minus, remove, delete" />
<glyph unicode="&#xe03b;" d="M 408.228-33l-52.637,0 c-4.842,0-8.772,3.931-8.772,8.772s 3.931,8.772, 8.772,8.772L 399.454-15.454 l0,43.863 
	c0,4.842, 3.931,8.772, 8.772,8.772c 4.825,0, 8.772-3.931, 8.772-8.772l0-52.637 C 417-29.069, 413.053-33, 408.228-33z M 408.228,72.272c-4.842,0-8.772,3.931-8.772,8.772l0,52.637 
	c0,4.842, 3.931,8.772, 8.772,8.772c 4.825,0, 8.772-3.931, 8.772-8.772l0-52.637 C 417,76.203, 413.053,72.272, 408.228,72.272z M 408.228,177.546c-4.842,0-8.772,3.931-8.772,8.772l0,52.637 
	c0,4.842, 3.931,8.772, 8.772,8.772c 4.825,0, 8.772-3.931, 8.772-8.772l0-52.637 C 417,181.475, 413.053,177.546, 408.228,177.546z M 408.228,282.819C 403.384,282.819, 399.454,286.749, 399.454,291.591L 399.454,335.454 l-43.863,0 
	C 350.749,335.454, 346.819,339.384, 346.819,344.228S 350.749,353, 355.591,353l 52.637,0 C 413.053,353, 417,349.069, 417,344.228l0-52.637 C 417,286.749, 413.053,282.819, 408.228,282.819z M 302.954-33l-52.637,0 
	c-4.842,0-8.772,3.931-8.772,8.772s 3.931,8.772, 8.772,8.772l 52.637,0 c 4.825,0, 8.772-3.931, 8.772-8.772S 307.779-33, 302.954-33z M 302.954,335.454l-52.637,0 
	C 245.475,335.454, 241.546,339.384, 241.546,344.228S 245.475,353, 250.319,353l 52.637,0 C 307.779,353, 311.728,349.069, 311.728,344.228S 307.779,335.454, 302.954,335.454z M 293.094,177.546c 9.685,0, 17.546-7.842, 17.546-17.546
	c0-9.685-7.861-17.546-17.546-17.546l-52.637,0 l0-52.637 c0-9.685-7.861-17.546-17.546-17.546c-9.702,0-17.546,7.861-17.546,17.546l0,52.637 l-52.637,0 c-9.685,0-17.546,7.861-17.546,17.546c0,9.702, 7.842,17.546, 17.546,17.546l 52.637,0 l0,52.637 
	c0,9.702, 7.842,17.546, 17.546,17.546c 9.685,0, 17.546-7.842, 17.546-17.546l0-52.637 L 293.094,177.546 z M 197.681,335.454l-52.637,0 C 140.203,335.454, 136.272,339.384, 136.272,344.228S 140.203,353, 145.046,353l 52.637,0 
	C 202.506,353, 206.454,349.069, 206.454,344.228S 202.506,335.454, 197.681,335.454z M 92.409-33l-52.637,0 C 34.931-33, 31-29.069, 31-24.228l0,52.637 C 31,33.251, 34.931,37.181, 39.772,37.181
	C 44.616,37.181, 48.546,33.251, 48.546,28.409L 48.546-15.454 l 43.863,0 C 97.251-15.454, 101.181-19.384, 101.181-24.228S 97.251-33, 92.409-33z M 92.409,335.454L 48.546,335.454 l0-43.863 C 48.546,286.749, 44.616,282.819, 39.772,282.819
	C 34.931,282.819, 31,286.749, 31,291.591l0,52.637 C 31,349.069, 34.931,353, 39.772,353l 52.637,0 C 97.251,353, 101.181,349.069, 101.181,344.228S 97.251,335.454, 92.409,335.454z M 39.772,247.728C 44.616,247.728, 48.546,243.797, 48.546,238.954l0-52.637 
	C 48.546,181.475, 44.616,177.546, 39.772,177.546C 34.931,177.546, 31,181.475, 31,186.319l0,52.637 C 31,243.797, 34.931,247.728, 39.772,247.728z M 39.772,142.454C 44.616,142.454, 48.546,138.525, 48.546,133.681l0-52.637 
	C 48.546,76.203, 44.616,72.272, 39.772,72.272C 34.931,72.272, 31,76.203, 31,81.046l0,52.637 C 31,138.525, 34.931,142.454, 39.772,142.454z M 145.046-15.454l 52.637,0 c 4.825,0, 8.772-3.931, 8.772-8.772
	S 202.506-33, 197.681-33l-52.637,0 c-4.842,0-8.772,3.931-8.772,8.772S 140.203-15.454, 145.046-15.454z" data-tags="add, plus" />
<glyph unicode="&#xe03c;" d="M 224,349C 119.614,349, 35,264.386, 35,160s 84.614-189, 189-189s 189,84.614, 189,189S 328.386,349, 224,349z
			 M 253.644,90.463c-14.262-21.415-28.772-37.916-53.182-37.916c-16.661,2.719-23.509,14.655-19.903,26.823l 31.403,104.008
			c 0.771,2.544-0.509,5.263-2.835,6.092c-2.312,0.814-6.848-2.195-10.773-6.499l-18.987-22.84c-0.509,3.838-0.058,10.177-0.058,12.736
			c 14.262,21.415, 37.698,38.309, 53.589,38.309c 15.105-1.541, 22.258-13.623, 19.627-26.896l-31.621-104.517c-0.422-2.355, 0.829-4.754, 2.966-5.51
			c 2.326-0.814, 7.211,2.195, 11.151,6.499l 18.973,22.825C 254.502,99.738, 253.644,93.021, 253.644,90.463z M 249.413,226.31
			c-12.009,0-21.75,8.752-21.75,21.633c0,12.881, 9.741,21.619, 21.75,21.619s 21.75-8.752, 21.75-21.619
			C 271.163,235.048, 261.422,226.31, 249.413,226.31z" data-tags="info" />
<glyph unicode="&#xe03d;" d="M 227.458,317.738c0-23.576, 17.794-39.55, 39.76-39.55c 21.966,0, 39.789,15.989, 39.789,39.55
	c0,23.59-17.808,39.564-39.789,39.564C 245.266,357.302, 227.458,341.328, 227.458,317.738z M 141.345,182.75c0-4.676-0.854-16.282, 0.112-23.268
	l 34.706,41.762c 7.182,7.868, 15.484,13.37, 19.726,11.886c 4.256-1.484, 6.58-6.482, 5.194-11.13L 143.64,11.74
	c-6.622-22.232, 5.894-44.072, 36.386-49.056c 44.646,0, 71.176,30.212, 97.272,69.37c0,4.676, 1.554,16.982, 0.616,23.982l-34.706-41.748
	c-7.195-7.868-16.114-13.37-20.37-11.9c-3.92,1.372-6.216,5.741-5.446,10.093l 57.848,191.142c 4.816,24.276-8.26,46.368-35.896,49.196
	C 210.28,252.806, 167.44,221.894, 141.345,182.75z" data-tags="info" />
<glyph unicode="&#xe03e;" d="M 224,349C 119.614,349, 35,264.386, 35,160s 84.614-189, 189-189s 189,84.614, 189,189S 328.386,349, 224,349z M 224,14.615
			c-80.281,0-145.385,65.103-145.385,145.385c0,80.296, 65.103,145.385, 145.385,145.385c 80.296,0, 145.385-65.089, 145.385-145.385C 369.385,79.719, 304.296,14.615, 224,14.615z M 278.345,174.538l-116.308,0 
			c-8.040,0-14.538-6.513-14.538-14.538c0-8.040, 6.499-14.538, 14.538-14.538l 116.308,0 c 8.040,0, 14.538,6.499, 14.538,14.538C 292.883,168.025, 286.385,174.538, 278.345,174.538z" data-tags="minus, remove, delete" />
<glyph unicode="&#xe03f;" d="M 224-29c 104.386,0 189,84.614 189,189s -84.614,189, -189,189c -104.386,0, -189-84.614, -189-189
			S 119.614-29, 224-29z M 129.5,165.452c0,8.040 6.513,14.538 14.538,14.538L 303.962,179.99 c 8.040,0 14.538-6.499 14.538-14.538l 0-14.538 c 0-8.025, -6.499-14.538, -14.538-14.538l -159.923,0 c -8.025,0, -14.538,6.513, -14.538,14.538
			L 129.5,165.452 z" data-tags="minus, remove, delete" />
<glyph unicode="&#xe040;" d="M 224-29C 119.614-29, 35,55.614, 35,160S 119.614,349, 224,349s 189-84.614, 189-189S 328.386-29, 224-29z M 224,305.385
	C 143.719,305.385, 78.615,240.296, 78.615,160c0-80.281, 65.103-145.385, 145.385-145.385c 80.296,0, 145.385,65.103, 145.385,145.385C 369.385,240.296, 304.296,305.385, 224,305.385z M 281.979,145.462l-43.615,0 l0-43.615 
	c0-8.040-6.513-14.538-14.538-14.538c-8.040,0-14.538,6.499-14.538,14.538l0,43.615 l-43.615,0 c-8.040,0-14.538,6.513-14.538,14.538c0,8.025, 6.499,14.538, 14.538,14.538l 43.615,0 l0,43.615 c0,8.040, 6.499,14.538, 14.538,14.538
	c 8.025,0, 14.538-6.499, 14.538-14.538l0-43.615 l 43.615,0 c 8.025,0, 14.538-6.513, 14.538-14.538C 296.518,151.975, 290.005,145.462, 281.979,145.462z" data-tags="plus, add" />
<glyph unicode="&#xe041;" d="M 224-29c-104.386,0-189,84.614-189,189s 84.614,189, 189,189s 189-84.614, 189-189
	S 328.386-29, 224-29z M 317.599,168.171c0,8.025-6.513,14.538-14.538,14.538l-58.154,0 l0,58.154 c0,8.025-6.499,14.538-14.538,14.538l-14.538,0 c-8.040,0-14.538-6.513-14.538-14.538l0-58.154 l-58.154,0 
	c-8.040,0-14.538-6.513-14.538-14.538l0-14.538 c0-8.040, 6.499-14.538, 14.538-14.538l 58.154,0 l0-58.154 c0-8.040, 6.499-14.538, 14.538-14.538l 14.538,0 c 8.040,0, 14.538,6.499, 14.538,14.538l0,58.154 l 58.154,0 c 8.025,0, 14.538,6.499, 14.538,14.538L 317.599,168.171 z" data-tags="plus, add" />
<glyph unicode="&#xe042;" d="M 224-34C 116.853-34, 30,52.853, 30,160S 116.853,354, 224,354s 194-86.853, 194-194S 331.147-34, 224-34z M 224,309.232
	C 141.596,309.232, 74.768,242.404, 74.768,160s 66.825-149.232, 149.232-149.232c 82.419,0, 149.232,66.825, 149.232,149.232S 306.419,309.232, 224,309.232z M 291.706,107.249l-15.132-15.132
	c-2.775-2.775-7.283-2.775-10.071,0l-42.828,42.828l-42.828-42.828c-2.792-2.775-7.283-2.775-10.071,0l-15.132,15.132
	c-2.775,2.775-2.775,7.283,0,10.071l 42.843,42.815l-42.843,42.828c-2.775,2.792-2.775,7.296,0,10.088l 15.132,15.115
	c 2.792,2.792, 7.283,2.792, 10.071,0l 42.828-42.828l 42.828,42.828c 2.792,2.792, 7.296,2.792, 10.071,0l 15.132-15.115
	c 2.775-2.792, 2.775-7.296,0-10.088l-42.843-42.828l 42.843-42.815C 294.481,114.528, 294.481,110.007, 291.706,107.249z" data-tags="cancel, close" />
<glyph unicode="&#xe043;" d="M 224-29C 119.614-29, 35,55.614, 35,160S 119.614,349, 224,349s 189-84.614, 189-189S 328.386-29, 224-29z
	 M 310.664,215.115c 3.547,3.547, 3.547,9.319,0,12.867l-19.307,19.293c-3.547,3.547-9.319,3.547-12.867,0l-54.679-54.679l-54.679,54.679
	c-3.547,3.547-9.319,3.547-12.867,0l-19.307-19.293c-3.547-3.547-3.547-9.319,0-12.867l 54.694-54.694l-54.694-54.665
	c-3.547-3.547-3.547-9.319,0-12.867l 19.307-19.307c 3.547-3.547, 9.319-3.547, 12.867,0l 54.679,54.694l 54.679-54.694
	c 3.547-3.547, 9.319-3.547, 12.867,0l 19.307,19.307c 3.547,3.547, 3.547,9.319,0,12.867l-54.694,54.665L 310.664,215.115z" data-tags="cancel, close" />
<glyph unicode="&#xe044;" d="M 310.853,204.321l-14.955,14.955c-2.762,2.762-7.224,2.762-9.97,0l-89.746-89.733l-42.663,43.009c-2.775,2.762-7.224,2.762-9.999,0
		l-14.955-14.969c-2.762-2.762-2.762-7.224,0-9.97l 62.573-63.019c 2.762-2.747, 7.224-2.747, 9.97,0l 109.745,109.745
		C 313.628,197.1, 313.628,201.562, 310.853,204.321zM 224,354C 116.853,354, 30,267.147, 30,160s 86.853-194, 194-194s 194,86.853, 194,194S 331.147,354, 224,354z M 224,10.768c-82.404,0-149.232,66.825-149.232,149.232
		c0,82.419, 66.825,149.232, 149.232,149.232c 82.419,0, 149.232-66.812, 149.232-149.232C 373.232,77.596, 306.419,10.768, 224,10.768z" data-tags="checkmark, tick" />
<glyph unicode="&#xe045;" d="M 224,349C 119.614,349, 35,264.386, 35,160s 84.614-189, 189-189s 189,84.614, 189,189S 328.386,349, 224,349z
	 M 329.52,213.691l-137.912-137.897c-3.46-3.446-9.057-3.446-12.518,0l-2.777,2.777l-0.015-0.015L 100.423,154.97
	c-3.46,3.46-3.46,9.072,0,12.532l 18.813,18.798c 3.46,3.46, 9.072,3.46, 12.532,0l 53.632-54.025l 112.76,112.76
	c 3.46,3.46, 9.072,3.46, 12.532,0l 18.813-18.813C 332.98,222.777, 332.98,217.165, 329.52,213.691z" data-tags="checkmark, tick" />
<glyph unicode="&#xe046;" d="M 224,354C 116.855,354, 30,267.145, 30,160S 116.855-34, 224-34S 418,52.855, 418,160
			S 331.145,354, 224,354z M 224,9.112C 140.666,9.112, 73.112,76.666, 73.112,160S 140.666,310.888, 224,310.888S 374.888,243.334, 374.888,160S 307.334,9.112, 224,9.112z M 224,253.406
			c-11.898,0-21.556-9.643-21.556-21.556l0-72.743 c0-11.898, 9.656-21.556, 21.556-21.556s 21.556,9.656, 21.556,21.556L 245.556,231.853 C 245.556,243.764, 235.898,253.406, 224,253.406z M 224,109.703
			c-11.898,0-21.556-9.656-21.556-21.556s 9.656-21.556, 21.556-21.556s 21.556,9.656, 21.556,21.556S 235.898,109.703, 224,109.703z" data-tags="notice, warning, explanation mark, notification" />
<glyph unicode="&#xe048;" d="M 224,354c-107.147,0-194-86.853-194-194s 86.853-194, 194-194s 194,86.853, 194,194
			S 331.147,354, 224,354z M 224,49.943c-12.37,0-22.386,10.029-22.386,22.386s 10.012,22.386, 22.386,22.386c 12.357,0, 22.386-10.029, 22.386-22.386
			S 236.357,49.943, 224,49.943z M 246.386,146.943c0-12.357-10.029-22.386-22.386-22.386c-12.37,0-22.386,10.029-22.386,22.386l0,104.461 c0,12.37, 10.012,22.386, 22.386,22.386
			c 12.357,0, 22.386-10.012, 22.386-22.386L 246.386,146.943 z" data-tags="notice, warning, explanation mark, notification" />
<glyph unicode="&#xf056;" d="M 301.667,144.333l0,31.333 q0,6.364 -4.651,11.016t-11.016,4.651l-188,0 q-6.364,0 -11.016-4.651t-4.651-11.016l0-31.333 q0-6.364 4.651-11.016t 11.016-4.651l 188,0 q 6.364,0 11.016,4.651t 4.651,11.016zM 380,160q0-51.162 -25.213-94.368t-68.419-68.419t-94.368-25.213t-94.368,25.213t-68.419,68.419t-25.213,94.368t 25.213,94.368t 68.419,68.419t 94.368,25.213t 94.368-25.213t 68.419-68.419 t 25.213-94.368z" horiz-adv-x="384" data-tags="minus-sign, remove, delete, subtract, sign" />
<glyph unicode="&#xf055;" d="M 80,176l0-32 q0-6.5 4.75-11.25t 11.25-4.75l 64,0 l0-64 q0-6.5 4.75-11.25t 11.25-4.75l 32,0 q 6.5,0 11.25,4.75t 4.75,11.25l0,64 l 64,0 q 6.5,0 11.25,4.75t 4.75,11.25l0,32 q0,6.5 -4.75,11.25t -11.25,4.75l -64,0 l0,64 q0,6.5 -4.75,11.25t -11.25,4.75l -32,0 q -6.5,0 -11.25-4.75t -4.75-11.25l0-64 l -64,0 q -6.5,0 -11.25-4.75t -4.75-11.25zM 0,160q0,52.25 25.75,96.375 t 69.875,69.875t 96.375,25.75t 96.375-25.75t 69.875-69.875t 25.75-96.375t -25.75-96.375t -69.875-69.875t -96.375-25.75t -96.375,25.75t -69.875,69.875t -25.75,96.375z" horiz-adv-x="384" data-tags="plus-sign, add, sum, sign" />
<glyph unicode="&#xf057;" d="M 287.25,103.5q0,6.5 -4.75,11.25l-45.25,45.25l 45.25,45.25q 4.75,4.75 4.75,11.25q0,6.75 -4.75,11.5l-22.5,22.5q-4.75,4.75 -11.5,4.75q-6.5,0 -11.25-4.75l-45.25-45.25l-45.25,45.25q-4.75,4.75 -11.25,4.75q-6.75,0 -11.5-4.75l-22.5-22.5q-4.75-4.75 -4.75-11.5q0-6.5 4.75-11.25l 45.25-45.25l-45.25-45.25q-4.75-4.75 -4.75-11.25q0-6.75 4.75-11.5l 22.5-22.5q 4.75-4.75 11.5-4.75 q 6.5,0 11.25,4.75l 45.25,45.25l 45.25-45.25q 4.75-4.75 11.25-4.75q 6.75,0 11.5,4.75l 22.5,22.5q 4.75,4.75 4.75,11.5zM 384,160q0-52.25 -25.75-96.375t-69.875-69.875t-96.375-25.75t-96.375,25.75t-69.875,69.875t-25.75,96.375t 25.75,96.375t 69.875,69.875t 96.375,25.75t 96.375-25.75t 69.875-69.875t 25.75-96.375z" horiz-adv-x="384" data-tags="remove-sign, cancel, remove, delete, close, sign" />
<glyph unicode="&#xf058;" d="M 321,200.5q0,7 -4.5,11.5l-22.75,22.5q-4.75,4.75 -11.25,4.75t-11.25-4.75l-102-101.75l-56.5,56.5q-4.75,4.75 -11.25,4.75t-11.25-4.75l-22.75-22.5q-4.5-4.5 -4.5-11.5q0-6.75 4.5-11.25l 90.5-90.5q 4.75-4.75 11.25-4.75q 6.75,0 11.5,4.75l 135.75,135.75q 4.5,4.5 4.5,11.25zM 384,160q0-52.25 -25.75-96.375t-69.875-69.875t-96.375-25.75t-96.375,25.75 t-69.875,69.875t-25.75,96.375t 25.75,96.375t 69.875,69.875t 96.375,25.75t 96.375-25.75t 69.875-69.875t 25.75-96.375z" horiz-adv-x="384" data-tags="ok-sign, checkmark, tick, correct, sign" />
<glyph unicode="&#xf059;" d="M 224,40l0,48 q0,3.25 -2.375,5.625t-5.625,2.375l-48,0 q-3.25,0 -5.625-2.375t-2.375-5.625l0-48 q0-3.25 2.375-5.625t 5.625-2.375l 48,0 q 3.25,0 5.625,2.375t 2.375,5.625zM 288,208q0,24.25 -14.625,43t-36.125,27.875t-45.25,9.125t-45.25-9.125t-36.125-27.875t-14.625-43l0-2.75 l0-3.25 t 0.25-2.875t 0.75-2.875t 1.375-2t 2.25-1.75 t 3.375-0.5l 48,0 q 3.5,0 5.75,2.25t 2.25,5.75q0,3 2.75,6.75q 4.75,7.75 12.625,12.5t 16.625,4.75q 9.75,0 20.75-5.375t 11-14.375q0-8.25 -6.625-14.5t-15.875-11t-18.625-10.375t-16-15.875t-6.625-24.5l0-2.75 l0-3.25 t 0.25-2.875t 0.75-2.875t 1.375-2t 2.25-1.75t 3.375-0.5l 48,0 q 4.25,0 6,2.625t 2,6.125t 3.375,8.25t 9.375,8q 15,8.25 17.5,9.75q 15.5,11 24.625,27 t 9.125,34.25zM 384,160q0-52.25 -25.75-96.375t-69.875-69.875t-96.375-25.75t-96.375,25.75t-69.875,69.875t-25.75,96.375t 25.75,96.375t 69.875,69.875t 96.375,25.75t 96.375-25.75t 69.875-69.875t 25.75-96.375z" horiz-adv-x="384" data-tags="question-sign, help, support, sign" />
<glyph unicode="&#xf06a;" d="M 192,352q 52.25,0 96.375-25.75t 69.875-69.875t 25.75-96.375t-25.75-96.375t-69.875-69.875t-96.375-25.75t-96.375,25.75t-69.875,69.875t-25.75,96.375t 25.75,96.375t 69.875,69.875t 96.375,25.75zM 224,40.25l0,47.5 q0,3.5 -2.25,5.875t-5.5,2.375l-48,0 q-3.25,0 -5.75-2.5t-2.5-5.75l0-47.5 q0-3.25 2.5-5.75t 5.75-2.5l 48,0  q 3.25,0 5.5,2.375t 2.25,5.875zM 223.5,126.25l 4.5,155.25q0,3 -2.5,4.5q-2.5,2 -6,2l-55,0 q-3.5,0 -6-2q-2.5-1.5 -2.5-4.5l 4.25-155.25q0-2.5 2.5-4.375t 6-1.875l 46.25,0 q 3.5,0 5.875,1.875t 2.625,4.375z" horiz-adv-x="384" data-tags="exclamation-sign, sign, notification, attention, warning" />
<glyph unicode="&#xf05a;" d="M 256,40l0,16 q0,3.5 -2.25,5.75t-5.75,2.25l-24,0 l0,120 q0,3.5 -2.25,5.75t-5.75,2.25l-80,0 q-3.5,0 -5.75-2.25t-2.25-5.75l0-16 q0-3.5 2.25-5.75t 5.75-2.25l 24,0 l0-96 l-24,0 q-3.5,0 -5.75-2.25t-2.25-5.75l0-16 q0-3.5 2.25-5.75t 5.75-2.25l 112,0 q 3.5,0 5.75,2.25t 2.25,5.75zM 224,232l0,48 q0,3.5 -2.25,5.75t-5.75,2.25l-48,0 q-3.5,0 -5.75-2.25t-2.25-5.75l0-48 q0-3.5 2.25-5.75 t 5.75-2.25l 48,0 q 3.5,0 5.75,2.25t 2.25,5.75zM 384,160q0-52.25 -25.75-96.375t-69.875-69.875t-96.375-25.75t-96.375,25.75t-69.875,69.875t-25.75,96.375t 25.75,96.375t 69.875,69.875t 96.375,25.75t 96.375-25.75t 69.875-69.875t 25.75-96.375z" horiz-adv-x="384" data-tags="info-sign, information, sign" />
<glyph unicode="&#xe049;" d="M 224,352c-61.253,0-110.903-49.651-110.903-110.902c0-1.51, 0.045-3.076, 0.12-4.668c 0.038-0.926, 0.094-1.841, 0.157-2.762
	c 0.039-0.584, 0.085-1.181, 0.136-1.779c 0.078-0.978, 0.158-1.958, 0.262-2.93C 122.968,139.369, 224.001-32, 224.001-32
	s 101.029,171.368, 110.227,260.96c 0.107,0.971, 0.184,1.952, 0.263,2.929c 0.049,0.597, 0.099,1.194, 0.138,1.779
	c 0.064,0.921, 0.118,1.835, 0.158,2.763c 0.073,1.593, 0.117,3.159, 0.117,4.668C 334.899,302.35, 285.25,352, 224,352z M 272,232
	c0-26.511-21.49-48-48-48c-26.51,0-48,21.489-48,48s 21.49,48, 48,48C 250.51,280, 272,258.511, 272,232z" data-tags="location, pin, map marker, marker" />
<glyph unicode="&#xe04a;" d="M 146.618,231.124c0,42.476, 34.652,76.898, 77.382,76.898s 77.382-34.429, 77.382-76.898
	S 266.73,154.244, 224,154.244S 146.618,188.666, 146.618,231.124z M 92.454,221.528c0-32.168, 39.254-99.984, 39.254-99.984L 224-32.252l 86.996,153.784
	c0,0, 44.55,68.306, 44.55,99.984c0,72.196-58.904,130.716-131.546,130.716S 92.454,293.724, 92.454,221.528z" data-tags="location, pin, map marker, marker" />
<glyph unicode="&#xe04b;" d="M 295.352-31.7l 111.886,51.131L 407.237,351.7 l-111.886-51.114L 295.352-31.7 z M 168.559,19.431l 111.043-46.024
	L 279.602,305.692 l-111.043,46.008L 168.559,19.431 z M 40.749,300.586L 40.749-31.7 l 112.045,46.008L 152.793,346.594 L 40.749,300.586z" data-tags="map, location, address" />
<glyph unicode="&#xe059;" d="M 84.752,105.852L 283.808,304.909l 85.167-85.167L 169.918,20.685L 84.752,105.852z
	 M 292.969,256.903l-9.334,9.32L 123.423,106.026l 9.334-9.334L 292.969,256.903z M 311.635,238.236l-9.334,9.334L 142.091,87.345l 9.32-9.32
	L 311.635,238.236z M 330.303,219.568l-9.334,9.334L 160.758,68.691l 9.334-9.334L 330.303,219.568z M 321.932,342.511
	c 10.443,10.47, 27.346,10.537, 37.709,0.174l 46.963-46.963c 10.363-10.363, 10.296-27.252-0.161-37.709l-29.018-29.018l-84.512,84.512L 321.932,342.511z
	 M 78.2,94.766l 80.634-80.634L 88.175-10.967l-35.075,35.075L 78.2,94.766z M 74.789-15.339l-40.998-14.937l 14.937,40.998L 74.789-15.339z" data-tags="pencil, write, writing, blog, edit" />
<glyph unicode="&#xe05a;" d="M 406.336,293.014l-34.538-34.538l-49.322,49.322l 34.538,34.538
	c 13.622,13.622, 35.714,13.622, 49.322,0S 419.958,306.636, 406.336,293.014z M 386.596,253.562c 2.73,2.716, 7.154,2.716, 9.87,0
	c 2.73-2.73, 2.73-7.154,0-9.87l-128.24-128.254c-2.73-2.716-7.154-2.716-9.87,0s-2.716,7.14,0,9.856l 83.86,83.86l-69.076,69.076
	l 29.595,29.582l 69.062-69.062L 386.596,253.562z M 273.154,258.476l 49.322-49.322L 125.16,11.838L 75.838,61.16L 274.82,260.142L 273.154,258.476z
	 M 31.444-32.556l 34.524,83.846l 49.322-49.322L 31.444-32.556z" data-tags="pen, writing, write, blog, edit" />
<glyph unicode="&#xf040;" d="M 90.75,0l 22.75,22.75l-58.75,58.75l-22.75-22.75l0-26.75 l 32,0 l0-32 l 26.75,0 zM 221.5,232q0,5.5 -5.5,5.5q-2.5,0 -4.25-1.75l-135.5-135.5q-1.75-1.75 -1.75-4.25q0-5.5 5.5-5.5q 2.5,0 4.25,1.75l 135.5,135.5q 1.75,1.75 1.75,4.25zM 208,280l 104-104l-208-208l-104,0 l0,104 zM 378.75,256q0-13.249 -9.251-22.5l-41.5-41.5l-104,104l 41.5,41.25q 9,9.5 22.5,9.5 q 13.249,0 22.75-9.5l 58.75-58.498q 9.251-9.75 9.251-22.75z" horiz-adv-x="384" data-tags="pencil, write, edit, blog" />
<glyph unicode="&#xe05b;" d="M 293.12,183.040l-138.24,0 c-16.956,0-30.72-13.764-30.72-30.72s 13.764-30.72, 30.72-30.72l 138.24,0 c 16.956,0, 30.72,13.764, 30.72,30.72
			S 310.076,183.040, 293.12,183.040z M 186.872,290.56L 170.24,198.4l 107.52,0 l-16.65,92.16L 186.872,290.56 z M 224-32l 23.040,138.24l-46.080,0 L 224-32z M 177.92,305.92l 92.16,0 c 12.72,0, 23.040,10.32, 23.040,23.040
			S 282.8,352, 270.080,352l-92.16,0 c-12.732,0-23.040-10.32-23.040-23.040S 165.188,305.92, 177.92,305.92z" data-tags="pin, location, map marker, marker" />
<glyph unicode="&#xe05c;" d="M 271.641,130.884l-124.988,72.163c-15.332,8.872-34.96,3.61-43.812-11.721
			c-8.852-15.35-3.592-34.96, 11.74-43.812l 124.976-72.163c 15.35-8.872, 34.96-3.61, 43.812,11.74C 292.252,102.422, 286.992,122.030, 271.641,130.884z
			 M 168.562,208.92l 97.212-56.126l 33.068,92.020l-67.132,38.742L 168.562,208.92z M 96.893-27.464l 92.996,112.966l-41.66,24.054L 96.893-27.464z
			 M 339.014,295.698l-83.31,48.108c-11.518,6.64-26.218,2.708-32.858-8.804c-6.658-11.518-2.696-26.218, 8.804-32.858l 83.328-48.108
			c 11.518-6.64, 26.218-2.708, 32.858,8.804C 354.474,274.35, 350.53,289.058, 339.014,295.698z" data-tags="pin, location, map marker, marker" />
<glyph unicode="&#xe05d;" d="M 392.031,132.281c0-92.795-75.222-168.031-168.031-168.031
	c-92.795,0-168.031,75.235-168.031,168.031c0,89.971, 70.751,163.185, 159.639,167.589L 215.608,328.86 l-12.595,0 c-7.429,0-13.451,6.023-13.451,13.451
	s 6.023,13.44, 13.451,13.44l 40.315,0 c 7.429,0, 13.451-6.010, 13.451-13.44s-6.023-13.451-13.451-13.451l-14.268,0 l0-28.817 
	C 319.499,297.366, 392.031,223.363, 392.031,132.281z M 215.608,248.218L 215.608,278.882 c-41.613-2.356-78.513-21.951-103.945-51.638l 22.125-22.125l-9.503-9.516
	l-20.947,20.961c-17.052-24.066-27.198-53.364-27.198-85.113c0-1.419, 0.201-3.359, 0.201-3.359L 108.893,128.091 l0-13.451 L 77.303,114.64 
	c 3.266-27.465, 14.148-53.364, 30.357-74.071l 16.637,16.637l 9.503-9.503l-17.346-17.36c 25.149-26.715, 60.070-44.129, 99.154-46.337L 215.608,20.533 l 13.44,0 l0-36.7 
	c 40.007,1.365, 75.891,18.645, 101.71,45.64l-19.060,19.060l 9.503,9.503l 18.432-18.418c 16.597,20.88, 27.76,47.127, 31.079,75.007l-34.131,0 l0,13.451 l 35.081,0 
	c 0.040,1.392, 0.213,1.94, 0.213,3.359c0,32.632-10.708,62.653-28.616,87.067l-22.058-22.058l-9.503,9.503l 23.102,23.089
	c-26.060,29.486-63.617,48.6-105.738,50.019l0-30.838 L 215.608,248.218 z M 229.876,128.077l 47.060,0 c 3.708,0, 6.719-3.025, 6.719-6.719
	c0-3.708-3.012-6.733-6.719-6.733l-53.779,0 c-3.708,0-6.719,3.025-6.719,6.733L 216.438,214.609 c0,3.708, 3.012,6.719, 6.719,6.719
	s 6.719-3.012, 6.719-6.719L 229.876,128.077 z" data-tags="chronometer, timer, clock" />
<glyph unicode="&#xe05e;" d="M 224,349c-104.401,0-189-84.614-189-189s 84.599-189, 189-189c 104.372,0, 189,84.614, 189,189
			S 328.386,349, 224,349z M 222.473,6.954c-84.309,0-152.654,68.345-152.654,152.654c0,84.309, 68.345,152.654, 152.654,152.654c 84.294,0, 152.654-68.345, 152.654-152.654
			C 375.127,75.299, 306.767,6.954, 222.473,6.954z M 266.598,150.826l-43.325,0 l0,73.158 c0,7.938-6.441,14.393-14.379,14.393
			c-7.953,0-14.393-6.441-14.393-14.393l0-87.536 c0-7.953, 6.441-14.379, 14.393-14.379l 57.703,0 c 7.953,0, 14.393,6.426, 14.393,14.379
			C 280.991,144.386, 274.55,150.826, 266.598,150.826z" data-tags="time, clock" />
<glyph unicode="&#xe05f;" d="M 545.678,215.24l-27.983-0.294l0,28.571 c0,23.184-18.805,41.976-41.976,41.976L 41.976,285.492 c-23.184,0-41.976-18.791-41.976-41.976l0-153.909 
			c0-23.17, 18.791-41.976, 41.976-41.976l 55.673,0 l-0.294-13.124L 419.752,34.507 l-0.294,13.124L 475.719,47.632 c 23.17,0, 41.976,18.805, 41.976,41.976l0,28.851 l 28.557,0 L 545.678,215.24z M 503.703,89.607
			c0-15.447-12.537-27.983-27.983-27.983L 41.976,61.624 c-15.447,0-27.983,12.537-27.983,27.983l0,153.909 c0,15.447, 12.537,27.983, 27.983,27.983l 433.745,0 c 15.447,0, 27.983-12.537, 27.983-27.983L 503.703,89.607 z M 475.719,257.508L 41.976,257.508 
			c-7.738,0-13.992-6.255-13.992-13.992l0-153.909 c0-7.738, 6.255-13.992, 13.992-13.992l 433.745,0 c 7.724,0, 13.992,6.255, 13.992,13.992l0,153.909 C 489.711,251.24, 483.443,257.508, 475.719,257.508z M 451.192,215.771
			l-11.193-10.494l-34.014,0 l-9.515,10.494L 451.192,215.771 z M 438.362,172.047l 4.897-5.191l-5.877-5.191l-36.546,0 l-4.631,5.191l 5.596,5.191L 438.362,172.047 z M 394.385,213.924
			l 9.501-10.494l-2.364-27.983l-7.136-6.577l-3.638,3.917L 394.385,213.924z M 303.579,213.924l 9.501-10.494l-2.364-27.983l-7.136-6.577l-3.638,3.917
			L 303.579,213.924z M 347.513,172.047l 4.911-5.191l-5.891-5.191l-36.504,0 l-4.617,5.191l 5.582,5.191L 347.513,172.047 z M 163.774,213.924l 9.501-10.494
			l-2.448-27.983l-7.066-6.591l-3.596,3.917L 163.774,213.924z M 207.694,172.047l 4.911-5.191l-5.877-5.191l-36.56,0 l-4.561,5.191l 5.582,5.191
			L 207.694,172.047 z M 129.774,215.771l-11.207-10.494l-34,0 l-9.515,10.494L 129.774,215.771 z M 72.967,213.924l 9.515-10.494l-2.462-27.983l-7.066-6.591l-3.596,3.917
			L 72.967,213.924z M 68.308,160.895l 4.197,4.043l 6.017-6.563l-2.35-27.997l-11.445-10.494L 68.308,160.895z M 66.461,117.941l 11.473,10.494l 33.944,0 
			l 9.361-10.494L 66.461,117.941 z M 123.337,119.914l-9.403,10.48l 2.35,27.997l 7.15,6.563l 3.498-4.043L 123.337,119.914z M 127.969,172.788l-4.099-3.917
			l-6.087,6.591l 2.448,27.983l 11.361,10.494L 127.969,172.788z M 159.114,160.895l 4.197,4.043l 6.017-6.563l-2.35-27.997l-11.445-10.48L 159.114,160.895z
			 M 157.253,117.941l 11.473,10.494l 33.958,0 l 9.361-10.494L 157.253,117.941 z M 214.144,119.9l-9.375,10.494l 2.364,27.983l 7.15,6.577l 3.512-4.043L 214.144,119.9z
			 M 209.387,205.277l-34,0 l-9.529,10.494l 54.708,0 L 209.387,205.277z M 259.897,117.941l-10.494,0 l 0.965,10.494l 10.494,0 L 259.897,117.941z M 266.053,188.99
			l-10.494,0 l 0.979,10.494l 10.494,0 L 266.053,188.99z M 297.143,117.941l 11.333,10.494l 34,0 l 9.375-10.494L 297.143,117.941 z M 353.949,119.914l-9.389,10.48l 2.378,27.983
			l 7.15,6.577l 3.498-4.043L 353.949,119.914z M 349.192,205.277l-34,0 l-9.529,10.494l 54.708,0 L 349.192,205.277z M 387.95,117.941l 11.347,10.494l 34,0 
			l 9.375-10.494L 387.95,117.941 z M 444.755,119.914l-9.403,10.48l 2.35,27.997l 7.15,6.563l 3.498-4.043L 444.755,119.914z M 449.401,172.788l-4.113-3.917
			l-6.087,6.591l 2.462,27.983l 11.361,10.494L 449.401,172.788z" horiz-adv-x="546" data-tags="time, clock, alarm" />
<glyph unicode="&#xe060;" d="M 369.654-32L 78.346-32 c-14.619,0-26.484,11.865-26.484,26.484L 51.862,285.792 c0,14.631, 11.865,26.484, 26.484,26.484l 26.484,0 l0-13.242 c0-21.942, 17.782-39.724, 39.724-39.724
	c 21.927,0, 39.724,17.782, 39.724,39.724L 184.276,312.276 l 79.449,0 l0-13.242 c0-21.942, 17.797-39.724, 39.724-39.724s 39.724,17.782, 39.724,39.724L 343.173,312.276 l 26.484,0 c 14.619,0, 26.484-11.85, 26.484-26.484l0-291.311 C 396.138-20.135, 384.273-32, 369.654-32z M 369.654,219.586L 78.346,219.586 l0-225.103 l 291.311,0 
	L 369.654,219.586 z M 144.551,153.381L 104.827,153.381 l0,39.724 l 39.724,0 L 144.551,153.381 z M 144.551,87.173L 104.827,87.173 l0,39.724 l 39.724,0 L 144.551,87.173 z M 144.551,20.965L 104.827,20.965 l0,39.724 l 39.724,0 L 144.551,20.965 z M 210.759,153.381l-39.724,0 l0,39.724 l 39.724,0 L 210.759,153.381 z M 210.759,87.173l-39.724,0 l0,39.724 l 39.724,0 L 210.759,87.173 z M 210.759,20.965l-39.724,0 l0,39.724 l 39.724,0 L 210.759,20.965 z M 276.965,153.381l-39.724,0 
	l0,39.724 l 39.724,0 L 276.965,153.381 z M 276.965,87.173l-39.724,0 l0,39.724 l 39.724,0 L 276.965,87.173 z M 276.965,20.965l-39.724,0 l0,39.724 l 39.724,0 L 276.965,20.965 z M 343.173,153.381l-39.724,0 l0,39.724 l 39.724,0 L 343.173,153.381 z M 343.173,87.173l-39.724,0 l0,39.724 l 39.724,0 L 343.173,87.173 z M 343.173,20.965l-39.724,0 l0,39.724 l 39.724,0 L 343.173,20.965 z M 303.040,272.551
	C 288.63,272.551, 276.965,284.23, 276.965,298.624L 276.965,325.927 C 276.965,340.335, 288.63,352, 303.040,352s 26.073-11.665, 26.073-26.073l0-27.303 C 329.11,284.23, 317.445,272.551, 303.040,272.551z
	 M 144.14,272.551C 129.735,272.551, 118.070,284.23, 118.070,298.624L 118.070,325.927 C 118.070,340.335, 129.735,352, 144.14,352s 26.073-11.665, 26.073-26.073l0-27.303 C 170.213,284.23, 158.535,272.551, 144.14,272.551z" data-tags="calendar, date, schedule" />
<glyph unicode="&#xf073;" d="M 57.142-4.572l 61.714,0 l0,61.714 l-61.714,0 l0-61.714 zM 132.572-4.572l 68.572,0 l0,61.714 l-68.572,0 l0-61.714 zM 57.142,70.858l 61.714,0 l0,68.572 l-61.714,0 l0-68.572 zM 132.572,70.858l 68.572,0 l0,68.572 l-68.572,0 l0-68.572 zM 57.142,153.142l 61.714,0 l0,61.714 l-61.714,0 l0-61.714 zM 214.858-4.572l 68.572,0 l0,61.714 l-68.572,0 l0-61.714 zM 132.572,153.142l 68.572,0 l0,61.714 l-68.572,0 l0-61.714 zM 297.142-4.572l 61.714,0 l0,61.714 l-61.714,0 l0-61.714 zM 214.858,70.858l 68.572,0 l0,68.572 l-68.572,0 l0-68.572 z M 139.428,256l0,61.714 q0,2.786 -2.035,4.821t-4.821,2.035l-13.714,0 q-2.786,0 -4.821-2.035t-2.035-4.821l0-61.714 q0-2.786 2.035-4.821t 4.821-2.035l 13.714,0 q 2.786,0 4.821,2.035t 2.035,4.821zM 297.142,70.858l 61.714,0 l0,68.572 l-61.714,0 l0-68.572 zM 214.858,153.142l 68.572,0 l0,61.714 l-68.572,0 l0-61.714 zM 297.142,153.142l 61.714,0 l0,61.714 l-61.714,0 l0-61.714 zM 304,256l0,61.714 q0,2.786 -2.035,4.821t-4.821,2.035l-13.714,0  q-2.786,0 -4.821-2.035t-2.035-4.821l0-61.714 q0-2.786 2.035-4.821t 4.821-2.035l 13.714,0 q 2.786,0 4.821,2.035t 2.035,4.821zM 386.286,269.714l0-274.286 q0-11.142 -8.142-19.286t-19.286-8.142l-301.714,0 q-11.142,0 -19.286,8.142t-8.142,19.286l0,274.286 q0,11.142 8.142,19.286t 19.286,8.142l 27.428,0 l0,20.572 q0,14.142 10.072,24.214t 24.214,10.072l 13.714,0 q 14.142,0 24.214-10.072t 10.072-24.214l0-20.572 l 82.286,0 l0,20.572 q0,14.142 10.072,24.214t 24.214,10.072 l 13.714,0 q 14.142,0 24.214-10.072t 10.072-24.214l0-20.572 l 27.428,0 q 11.142,0 19.286-8.142t 8.142-19.286z" horiz-adv-x="416" data-tags="calendar, date, schedule" />
<glyph unicode="&#xe061;" d="M 392-36L 56-36 c-15.456,0-28,12.544-28,28L 28,286 c0,15.456, 12.544,28, 28,28l 28,0 l0-14 c0-23.198, 18.802-42, 42-42
	s 42,18.802, 42,42L 168,314 l 112,0 l0-14 c0-23.198, 18.816-42, 42-42s 42,18.802, 42,42L 364,314 l 28,0 c 15.456,0, 28-12.544, 28-28l0-294 C 420-23.456, 407.456-36, 392-36z M 392,216L 56,216 l0-224 l 336,0 L 392,216 z
	 M 182.966,106.394c 2.758,4.396, 4.144,9.044, 4.144,13.902c0,10.822-5.824,16.24-17.472,16.24c-10.122,0-19.796-4.018-29.036-12.054l0,22.806 
	c 10.22,6.622, 21.77,9.926, 34.622,9.926c 12.026,0, 21.42-3.024, 28.182-9.058s 10.136-14.21, 10.136-24.486c0-13.72-8.232-27.916-24.696-42.574
	l-24.206-21.49l0-0.49 l 47.74,0 l0-21.49 L 134.946,37.626 l0,20.174 l 33.712,32.242C 175.434,96.538, 180.208,101.984, 182.966,106.394z M 277.718,59.676
	c 3.696,2.842, 5.544,6.804, 5.544,11.9c0,5.25-2.282,9.296-6.846,12.138s-10.836,4.27-18.83,4.27l-10.584,0 l0,19.852 l 9.758,0 
	c 15.316,0, 22.974,5.082, 22.974,15.26c0,9.576-5.88,14.35-17.64,14.35c-7.868,0-15.526-2.548-22.974-7.63l0,21.168 
	c 8.26,4.158, 17.878,6.23, 28.868,6.23c 12.026,0, 21.392-2.702, 28.098-8.12s 10.052-12.446, 10.052-21.084c0-15.372-7.798-24.99-23.38-28.868l0-0.406 
	c 8.316-1.036, 14.868-4.060, 19.684-9.058s 7.224-11.144, 7.224-18.41c0-10.99-4.018-19.684-12.054-26.082s-19.138-9.604-33.306-9.604
	c-12.138,0-22.008,1.974-29.61,5.908l0,22.554 c 7.868-5.74, 17.066-8.61, 27.566-8.61C 268.87,55.406, 274.022,56.834, 277.718,59.676z
	 M 321.566,272C 306.334,272, 294,284.334, 294,299.566L 294,328.434 C 294,343.666, 306.334,356, 321.566,356s 27.566-12.334, 27.566-27.566l0-28.868 
	C 349.132,284.334, 336.798,272, 321.566,272z M 125.566,272C 110.334,272, 98,284.334, 98,299.566L 98,328.434 C 98,343.666, 110.334,356, 125.566,356s 27.566-12.334, 27.566-27.566l0-28.868 
	C 153.132,284.334, 140.784,272, 125.566,272z" data-tags="calendar, date, schedule" />
<glyph unicode="&#xf002;" d="M 281.846,189.538q0,42.692 -30.346,73.038t-73.038,30.346t-73.038-30.346t-30.346-73.038t 30.346-73.038t 73.038-30.346t 73.038,30.346t 30.346,73.038zM 400-2.462q0-12 -8.769-20.769t-20.769-8.769q-12.462,0 -20.769,8.769l-79.154,78.923q-41.308-28.615 -92.077-28.615q-33,0 -63.115,12.808t-51.923,34.615t-34.615,51.923t-12.808,63.115 t 12.808,63.115t 34.615,51.923t 51.923,34.615t 63.115,12.808t 63.115-12.808t 51.923-34.615t 34.615-51.923t 12.808-63.115q0-50.769 -28.615-92.077l 79.154-79.154q 8.538-8.538 8.538-20.769z" horiz-adv-x="416" data-tags="search, magnifier, lookup, find" />
<glyph unicode="&#xe062;" d="M 398.522-12.244l-9.076-9.076c-10.050-10.036-26.308-10.036-36.332,0l-72.666,72.64
	c-8.399,8.423-9.334,21.048-3.598,30.88l-39.738,39.712c-21.366-15.85-47.726-25.336-76.364-25.336c-70.926,0-128.418,57.495-128.418,128.418
	c0,70.938, 57.495,128.432, 128.418,128.432c 70.938,0, 128.418-57.495, 128.418-128.432c0-33.016-12.546-63.026-33.030-85.776l 38.856-38.856
	c 9.832,5.722, 22.456,4.802, 30.854-3.624l 72.666-72.64C 408.546,14.054, 408.546-2.218, 398.522-12.244z M 256.828,225.52
	c0,53.192-43.13,96.31-96.324,96.31S 64.18,278.726, 64.18,225.52s 43.118-96.31, 96.31-96.31S 256.828,172.328, 256.828,225.52z" data-tags="magnifier, search, lookup, find" />
<glyph unicode="&#xe063;" d="M 127.59,230.334L 191.806,230.334L 191.806,217.494L 127.59,217.494zM 398.522,24.090l-72.666,72.64c-8.4,8.422-21.034,9.346-30.854,3.624l-38.856,38.856c 20.484,22.75, 33.030,52.756, 33.030,85.777
		c0,70.939-57.484,128.432-128.418,128.432c-70.927,0-128.418-57.494-128.418-128.432c0-70.927, 57.494-128.418, 128.418-128.418
		c 28.638,0, 54.998,9.486, 76.364,25.336l 39.738-39.712c-5.722-9.844-4.802-22.455, 3.598-30.88l 72.666-72.64c 10.024-10.036, 26.282-10.036, 36.331,0
		l 9.076,9.076C 408.55-2.219, 408.55,14.054, 398.522,24.090z M 160.492,129.208c-53.192,0-96.31,43.118-96.31,96.31
		s 43.118,96.31, 96.31,96.31s 96.324-43.118, 96.324-96.31S 213.698,129.208, 160.492,129.208z" data-tags="zoom out, magnifier" />
<glyph unicode="&#xe064;" d="M 400.375-14.044l-9.171-9.171c-10.154-10.141-26.582-10.141-36.71,0l-73.421,73.395
	c-8.486,8.511-9.43,21.266-3.635,31.2l-40.151,40.125c-21.589-16.014-48.223-25.599-77.159-25.599c-71.662,0-129.754,58.093-129.754,129.754
	c0,71.675, 58.093,129.767, 129.754,129.767c 71.675,0, 129.754-58.093, 129.754-129.767c0-33.36-12.677-63.681-33.373-86.667l 39.259-39.259
	c 9.934,5.782, 22.689,4.851, 31.174-3.661l 73.421-73.395C 410.502,12.526, 410.502-3.915, 400.375-14.044z M 257.206,226.191
	c0,53.746-43.579,97.312-97.325,97.312S 62.555,279.95, 62.555,226.191s 43.566-97.312, 97.312-97.312S 257.206,172.445, 257.206,226.191z M 165.546,192.947
	L 152.572,192.947 l0,25.133 L 126.624,218.081 l0,12.974 l 25.948,0 L 152.572,257.016 l 12.974,0 l0-25.961 l 25.961,0 l0-12.974 l-25.961,0 L 165.546,192.947 z" data-tags="zoom in, magnifier, enlarge" />
<glyph unicode="&#xe065;" d="M 277.536,121.542l 7.414,7.414c 8.187,8.187, 8.187,21.468,0,29.656l-12.8,12.79
			c 4.12,7.172, 7.35,14.892, 9.6,23.038l 13.844,0 c 11.575,0, 20.966,9.391, 20.966,20.966l0,10.477 c0,11.575-9.379,20.966-20.966,20.966l-13.676,0 
			C 279.742,254.909, 276.658,262.582, 272.644,269.704l 12.307,12.296c 8.187,8.187, 8.187,21.468,0,29.656l-7.414,7.404
			c-8.187,8.187-21.468,8.187-29.656,0l-12.058-12.058c-7.372,4.298-15.341,7.644-23.758,9.946L 212.066,331.034 C 212.056,342.62, 202.664,352, 191.090,352
			l-10.477,0 c-11.575,0-20.976-9.379-20.976-20.966l0-14.086 c-8.418-2.3-16.376-5.648-23.758-9.946L 123.81,319.070
			c-8.176,8.187-21.456,8.187-29.646,0L 86.75,311.667c-8.187-8.187-8.187-21.468,0-29.656L 99.050,269.704c-4.006-7.122-7.112-14.798-9.274-22.87
			L 76.106,246.834 C 64.521,246.846, 55.14,237.456, 55.14,225.868l0-10.477 c0-11.575, 9.379-20.966, 20.966-20.966l 13.834,0 c 2.26-8.146, 5.48-15.862, 9.61-23.038
			l-12.8-12.79c-8.187-8.187-8.187-21.468,0-29.656l 7.414-7.414c 8.187-8.187, 21.468-8.187, 29.646,0l 12.873,12.873
			c 7.152-4.067, 14.838-7.236, 22.943-9.442l0-13.428 c0-11.564, 9.391-20.966, 20.976-20.966l 10.477,0 c 11.575,0, 20.966,9.391, 20.966,20.966l0,13.428 
			c 8.104,2.206, 15.812,5.386, 22.943,9.442l 12.873-12.873C 256.070,113.354, 269.339,113.354, 277.536,121.542z M 185.852,162.658
			c-31.842,0-57.66,25.808-57.66,57.66c0,31.842, 25.818,57.66, 57.66,57.66s 57.66-25.818, 57.66-57.66
			C 243.51,188.466, 217.692,162.658, 185.852,162.658z M 185.852,247.17c-14.482,0-26.214-11.732-26.214-26.204s 11.732-26.204, 26.214-26.204
			c 14.472,0, 26.204,11.732, 26.204,26.204S 200.324,247.17, 185.852,247.17z M 317.209,50.196c-7.028,0-12.716-5.688-12.716-12.716
			c0-7.018, 5.688-12.706, 12.716-12.706c 7.018,0, 12.716,5.688, 12.716,12.706C 329.924,44.506, 324.226,50.196, 317.209,50.196z M 370.436,50.038
			l-6.629,0 c-1.057,3.912-2.562,7.632-4.506,11.094l 5.96,5.96c 3.972,3.972, 3.972,10.416,0,14.378l-3.596,3.596c-3.972,3.972-10.406,3.972-14.378,0
			l-5.856-5.846c-3.576,2.082-7.444,3.701-11.524,4.822l0,6.817 c0,5.614-4.56,10.174-10.174,10.174l-5.082,0 
			c-5.614,0-10.174-4.56-10.174-10.174l0-6.817 c-4.090-1.118-7.948-2.74-11.524-4.822l-5.856,5.846c-3.972,3.972-10.416,3.972-14.378,0
			l-3.596-3.596c-3.972-3.962-3.972-10.406,0-14.378l 5.96-5.96c-1.954-3.452-3.452-7.183-4.506-11.094l-6.629,0 
			c-5.614,0-10.174-4.56-10.174-10.174l0-5.082 c0-5.614, 4.56-10.174, 10.174-10.174l 6.712,0 c 1.088-3.942, 2.656-7.686, 4.654-11.168
			l-6.202-6.202c-3.972-3.972-3.972-10.406,0-14.388l 3.596-3.596c 3.962-3.962, 10.406-3.962, 14.378,0l 6.242,6.252
			c 3.472-1.966, 7.195-3.512, 11.126-4.58l0-6.514 c0-5.614, 4.56-10.174, 10.174-10.174l 5.082,0 c 5.614,0, 10.174,4.56, 10.174,10.174l0,6.514 
			c 3.932,1.068, 7.656,2.603, 11.114,4.58l 6.252-6.252c 3.972-3.962, 10.406-3.962, 14.378,0l 3.596,3.596c 3.972,3.984, 3.972,10.416,0,14.388
			l-6.202,6.202c 1.988,3.482, 3.566,7.226, 4.654,11.168l 6.712,0 c 5.614,0, 10.174,4.56, 10.174,10.174L 380.567,39.864 
			C 380.61,45.488, 376.050,50.038, 370.436,50.038z M 317.209,9.204c-15.446,0-27.96,12.518-27.96,27.972c0,15.446, 12.518,27.96, 27.96,27.96
			s 27.96-12.518, 27.96-27.96C 345.172,21.722, 332.654,9.204, 317.209,9.204z" data-tags="settings, cogs, gears, options, generate" />
<glyph unicode="&#xe006;" d="M 384.362,120.761l-20.231,0 c-3.285-11.903-7.991-23.195-14.027-33.662l 18.703-18.687
	c 11.964-11.964, 11.964-31.37,0-43.334l-10.833-10.833c-11.964-11.964-31.37-11.964-43.334,0L 295.815,33.054c-10.436-5.944-21.682-10.574-33.524-13.798
	l0-19.619 c0-16.915-13.706-30.636-30.636-30.636l-15.311,0 c-16.915,0-30.652,13.706-30.652,30.636l0,19.619 c-11.827,3.224-23.088,7.869-33.524,13.798
	l-18.81-18.81c-11.949-11.964-31.354-11.964-43.319,0L 79.191,25.078c-11.964,11.964-11.964,31.37,0,43.334l 18.703,18.687
	c-6.036,10.482-10.742,21.759-14.042,33.662L 63.636,120.761 C 46.706,120.761, 33,134.467, 33,151.382l0,15.326 c0,16.915, 13.706,30.636, 30.636,30.636l 19.986,0 
	C 86.785,209.125, 91.308,220.341, 97.176,230.746l-17.984,17.969c-11.964,11.964-11.964,31.37,0,43.334l 10.833,10.818c 11.964,11.964, 31.37,11.964, 43.319,0
	l 17.618-17.618c 10.788,6.28, 22.431,11.17, 34.716,14.516L 185.677,320.363 C 185.693,337.293, 199.429,350.999, 216.344,350.999l 15.311,0 c 16.915,0, 30.636-13.706, 30.636-30.636
	l0-20.582 c 12.316-3.362, 23.944-8.251, 34.716-14.531l 17.618,17.618c 11.964,11.964, 31.37,11.964, 43.334,0l 10.833-10.818
	c 11.964-11.964, 11.964-31.37,0-43.334L 350.823,230.746c 5.868-10.406, 10.39-21.621, 13.569-33.417l 19.986,0 c 16.915,0, 30.636-13.721, 30.636-30.636l0-15.326 
	C 414.999,134.467, 401.293,120.761, 384.362,120.761z M 223.999,242.817c-46.527,0-84.254-37.726-84.254-84.254s 37.726-84.254, 84.254-84.254
	s 84.254,37.726, 84.254,84.254S 270.527,242.817, 223.999,242.817z M 223.999,121.235c-21.147,0-38.307,17.129-38.307,38.292c0,21.147, 17.159,38.292, 38.307,38.292
	s 38.292-17.144, 38.292-38.292C 262.291,138.364, 245.147,121.235, 223.999,121.235z" data-tags="cog, gear, settings, options" />
<glyph unicode="&#xf0c7;" d="M 96,0l 192,0 l0,96 l-192,0 l0-96 zM 320,0l 32,0 l0,224 q0,3.5 -2.5,9.625t-5,8.625l-70.25,70.25q-2.5,2.5 -8.5,5t-9.751,2.5l0-104 q0-10 -7-17t-17-7l-144,0 q-10,0 -17,7t-7,17l0,104 l-32,0 l0-320 l 32,0 l0,104 q0,10 7,17t 17,7l 208,0 q 10,0 17-7t 7-17l0-104 zM 224,232l0,80 q0,3.25 -2.375,5.625t-5.625,2.375 l-48,0 q-3.25,0 -5.625-2.375t-2.375-5.625l0-80 q0-3.25 2.375-5.625t 5.625-2.375l 48,0 q 3.25,0 5.625,2.375t 2.375,5.625zM 384,224l0-232 q0-10 -7-17t-17-7l-336,0 q-10,0 -17,7t-7,17l0,336 q0,10 7,17t 17,7l 232,0 q 10,0 22-5t 19-12l 70-70q 7-7 12-19t 5-22z" horiz-adv-x="384" data-tags="save, disk, floppy, store" />
<glyph unicode="&#xe066;" d="M 291.614,253.723l-52.218-78.592l-37.951,38.25l-37.969-61.402l-28.467,28.185L 104.185,118.478
			l 242.022,0 L 291.614,253.723z M 33,351l0-382 l 382,0 L 415,351 L 33,351 z M 381.783,85.261L 66.217,85.261 L 66.217,317.783 l 315.565,0 L 381.783,85.261 z M 140.807,216.951c 13.769,0, 24.913,11.144, 24.913,24.913s-11.144,24.913-24.913,24.913
			c-13.752,0-24.913-11.144-24.913-24.913S 127.055,216.951, 140.807,216.951z" data-tags="picture, images, photos, polaroid" />
<glyph unicode="&#xe067;" d="M 386.675,109.601l-18.246-68.131l-0.514-0.139l-19.938-74.413l-128.886,34.524l-1.54-0.403
	l-135.708,36.353l-0.236,0.887L 45.492,47.973l 6.835,25.524l 0.443-0.124L 119.723,323.243L 119.28,323.368l 7.057,26.302l 237.157-63.556l 0.223,0.777
	l 65.317-17.497L 386.44,110.503L 386.675,109.601z M 395.673,250.149L 145.789,317.101l-49.33-184.124l 249.856-66.938L 395.673,250.149z M 171.785,196.159
	l 16.554-28.353l 43.078,40.555l 21.947-38.349l 58.024,51.147l 14.517-118.668L 134.267,153.873L 171.785,196.159z M 184.167,224.056
	c-10.885,2.926-17.359,14.128-14.434,25.012c 2.911,10.898, 14.115,17.372, 25.012,14.447c 10.885-2.926, 17.359-14.128, 14.434-25.012
	C 206.268,227.605, 195.064,221.13, 184.167,224.056z M 302.198,319.735l-5.74-1.54l-52.616,14.1l 77.615,20.797l 12.007-44.796l-30.364,8.139L 302.198,319.735
	z M 52.312,252.769l 17.22-64.263l-14.1-52.603L 18.968,272.026L 97.553,293.089l-8.139-30.364L 52.312,252.769z M 100.021-30.446L 85.906,22.213l 105.33-28.229
	L 100.021-30.446z" data-tags="pictures, images, photos, polaroid" />
<glyph unicode="&#xe068;" d="M 325.059,196.685c0,0, 16.757,12.741, 4.019,25.482c-12.77,12.741-25.165-3.702-25.165-3.702
	l-99.649-99.662c0,0-30.071-38.763-52.85-15.301s 15.301,52.85, 15.301,52.85l 139.544,139.557c0,0, 39.236,43.226, 76.099,6.362
	c 36.863-36.876-6.479-76.199-6.479-76.199L 186.948,37.125c0,0-60.455-69.837-116.435-13.854s 14.527,115.749, 14.527,115.749L 228.513,282.493
	c0,0, 16.087,13.411, 4.019,25.482s-25.466-4.019-25.466-4.019L 42.484,139.361c0,0-62.128-68.164, 7.265-137.528
	c 69.393-69.393, 137.541-7.278, 137.541-7.278l 226.236,226.251c0,0, 45.242,49.947-8.709,103.924s-103.924,8.709-103.924,8.709L 134.884,167.414
	c0,0-49.902-40.523-4.647-85.765c 45.255-45.255, 85.092,5.32, 85.092,5.32L 325.059,196.685z" data-tags="attachment, paperclip" />
<glyph unicode="&#xe007;" d="M 252,288L 196,344L0,344L0-20L 196-20L 196,92L 112,92L 224,204L 336,92L 252,92L 252-20L 448-20L 448,288 z" data-tags="folder-upload, upload" />
<glyph unicode="&#xe069;" d="M 117.84,262.673l 292.93,0 c 30.162,0, 30.162,31.28, 1.174,31.28L 209.474,293.953 
			c-11.601,0-17.388,17.388-17.388,17.388S 183.966,336.849, 167.724,336.849L 16.926,336.849 c-22.027,0-16.241-25.508-16.241-25.508s 33.643-286.11, 35.963-303.51
			S 56.956-14.701, 56.956-14.701l 39.429,253.025C 99.293,256.872, 112.039,262.086, 117.84,262.673z M 470.438,251.674L 127.121,251.674 c-10.245,0-18.562-8.303-18.562-18.548
			l-35.949-229.222c0-10.259, 8.317-18.562, 18.562-18.562l 343.317,0 c 10.231,0, 18.562,8.303, 18.562,18.562l 35.949,229.222
			C 489,243.371, 480.711,251.674, 470.438,251.674z" horiz-adv-x="489" data-tags="folder, directory, open, category" />
<glyph unicode="&#xe06a;" d="M 359.026,127.564L 359.026,314.036 c0,18.428-14.934,33.39-33.39,33.39L 33.376,347.428 
			C 14.934,347.442, -0.014,332.48, -0.014,314.036l0-186.472 c0-18.442, 14.948-33.39, 33.39-33.39l 55.686,0 l0-76.712l 85.18,76.712l 151.378,0 
			C 344.094,94.174, 359.026,109.122, 359.026,127.564z M 414.624,274.12l-41.784,0 c0,0,0-148.914,0-162.908s-18.158-31.988-32.152-31.988
			s-163.444-0.822-163.444-0.822c0-18.442, 14.948-29.658, 33.39-29.658l 64.348,0 l 83.954-76.19l-0.104,76.19l 55.79,0 
			c 18.458,0, 33.39,11.214, 33.39,29.658L 448.014,241.656 C 448.014,260.082, 433.080,274.12, 414.624,274.12z" data-tags="chat, comments, bubble, talk" />
<glyph unicode="&#xe06b;" d="M 351.563,199.659c0,72.251-78.714,130.821-175.782,130.821C 78.7,330.481,0,271.91,0,199.659
			c0-43.421, 28.425-81.889, 72.181-105.684c-0.126-0.378-34.859-63.579-34.859-63.579s 106.062,40.456, 106.356,40.623
			c 10.408-1.441, 21.137-2.168, 32.103-2.168C 272.848,68.851, 351.563,127.421, 351.563,199.659z M 481,158.784
			c0,72.237-74.097,130.29-154.309,130.807c 114.987-114.539-20.437-236.576-130.807-236.576c0,0, 12.268-25.040, 109.335-25.040
			c 10.952,0, 21.697,0.756, 32.103,2.182c 0.294-0.196, 106.37-40.623, 106.37-40.623s-34.748,63.187-34.859,63.565
			C 452.575,76.895, 481,115.377, 481,158.784z" horiz-adv-x="481" data-tags="comments, bubbles, chat, talk" />
<glyph unicode="&#xe06c;" d="M 392.733,350.515L 55.264,350.515 c-21.297,0-38.558-17.279-38.558-38.558l0-215.346 
			c0-21.279, 17.261-38.558, 38.558-38.558l 64.303,0 l 0.017-88.583l 98.361,88.583l 174.805,0 c 21.314,0, 38.558,17.279, 38.558,38.558L 431.308,311.957 
			C 431.291,333.236, 414.047,350.515, 392.733,350.515z M 120.534,195.025c-9.536,0-17.244,7.725-17.244,17.244c0,9.536, 7.708,17.244, 17.244,17.244c 9.519,0, 17.244-7.708, 17.244-17.244
			C 137.778,202.75, 130.051,195.025, 120.534,195.025z M 189.509,195.749c-9.536,0-17.244,7.725-17.244,17.244c0,9.536, 7.708,17.244, 17.244,17.244c 9.519,0, 17.244-7.708, 17.244-17.244
			C 206.753,203.474, 199.029,195.749, 189.509,195.749z M 258.832,195.387c-9.519,0-17.244,7.708-17.244,17.244c0,9.519, 7.725,17.244, 17.244,17.244c 9.536,0, 17.244-7.725, 17.244-17.244
			C 276.076,203.112, 268.351,195.387, 258.832,195.387z M 327.463,195.025c-9.536,0-17.244,7.725-17.244,17.244c0,9.536, 7.708,17.244, 17.244,17.244c 9.519,0, 17.244-7.708, 17.244-17.244
			C 344.708,202.75, 336.983,195.025, 327.463,195.025z" data-tags="chat, comment, talk" />
<glyph unicode="&#xe06d;" d="M 223.997,351.138c-123.654,0-223.907-74.611-223.907-166.652c0-55.312, 36.209-104.318, 91.95-134.63
			c-0.159-0.48-44.407-80.991-44.407-80.991s 135.13,51.534, 135.502,51.75c 13.257-1.835, 26.926-2.761, 40.879-2.761
			c 123.654,0, 223.907,74.611, 223.907,166.635C 447.907,276.524, 347.651,351.138, 223.997,351.138z M 116.509,166.681c-9.837,0-17.819,7.982-17.819,17.819c0,9.854, 7.982,17.819, 17.819,17.819
			s 17.819-7.965, 17.819-17.819C 134.328,174.666, 126.363,166.681, 116.509,166.681z M 187.413,165.934c-9.837,0-17.819,7.982-17.819,17.819c0,9.854, 7.982,17.819, 17.819,17.819
			c 9.854,0, 17.819-7.965, 17.819-17.819C 205.235,173.916, 197.267,165.934, 187.413,165.934z M 259.425,165.934c-9.837,0-17.819,7.982-17.819,17.819c0,9.854, 7.982,17.819, 17.819,17.819
			c 9.854,0, 17.819-7.965, 17.819-17.819C 277.244,173.916, 269.279,165.934, 259.425,165.934z M 330.704,165.934c-9.837,0-17.819,7.982-17.819,17.819c0,9.854, 7.982,17.819, 17.819,17.819
			c 9.854,0, 17.819-7.965, 17.819-17.819C 348.523,173.916, 340.558,165.934, 330.704,165.934z" data-tags="chat, comment, talk" />
<glyph unicode="&#xe06e;" d="M 0.21,154.948c 2.344-41.168, 34.552-77.703, 79.869-86.246c 52.702-9.921, 96.329,22.945, 105.537,71.906
		c 9.22,48.976-19.442,95.459-72.136,105.383c-4.211,0.793-8.349,0.885-12.487,1.162c 0.15,22.276, 63.772,95.582, 105.182,133.916
		l-29.755,0 C 17.649,300.962-2.418,178.609, 0.21,154.948zM 448,381.068l-29.749,0 C 259.481,300.962, 239.407,178.609, 242.043,154.948c 2.331-41.168, 34.544-77.703, 79.864-86.246
		c 52.704-9.921, 96.313,22.945, 105.536,71.906c 9.223,48.976-19.449,95.459-72.144,105.383c-4.198,0.793-8.337,0.885-12.487,1.162
		C 342.972,269.428, 406.597,342.734, 448,381.068z" data-tags="quote, left" />
<glyph unicode="&#xe06f;" d="M 447.79,165.054c-2.332,41.168-34.549,77.704-79.866,86.245c-52.704,9.921-96.328-22.943-105.538-71.904
		c-9.216-48.974, 19.442-95.456, 72.139-105.383c 4.202-0.794, 8.343-0.886, 12.49-1.163c-0.154-22.28-63.781-95.582-105.187-133.918
		l 29.755,0 C 430.35,19.041, 450.421,141.395, 447.79,165.054zM0-61.068l 29.755,0 C 188.52,19.041, 208.596,141.395, 205.958,165.055c-2.329,41.168-34.545,77.705-79.862,86.244
		C 73.387,261.22, 29.775,228.359, 20.558,179.398c-9.224-48.974, 19.441-95.457, 72.14-105.383c 4.198-0.794, 8.338-0.887, 12.49-1.163
		C 105.035,50.571, 41.408-22.731,0-61.068z" data-tags="quote, right" />
<glyph unicode="&#xe00d;" d="M 209.62,336.436c-21.887-12.534-39.572-23.325-53.069-32.374c-13.511-9.057-27.236-21.001-41.198-35.841
		c-13.041-13.923-23.045-28.541-30.028-43.85c-6.982-15.317-11.868-35.036-14.663-59.159l 33.519,0 c 28.859,0, 51.551-7.102, 68.085-21.295
		c 16.517-14.208, 24.786-35.036, 24.786-62.497c0-19.546-7.331-37.828-21.994-54.812c-14.662-17.002-34.808-25.488-60.399-25.488
		c-40.039,0-68.668,13.127-85.891,39.375c-17.229,26.249-25.836,60.761-25.836,103.511c0,30.2, 6.511,57.728, 19.553,82.583
		c 13.025,24.854, 28.858,47.044, 47.48,66.564c 19.081,19.975, 39.331,36.933, 60.75,50.878c 21.406,13.945, 39.333,25.32, 53.772,34.157
		L 209.62,336.436z M 467.984,336.436c-21.889-12.534-39.572-23.325-53.073-32.374c-13.51-9.057-27.231-21.001-41.195-35.841
		c-13.51-14.381-23.631-29.124-30.373-44.2c-6.751-15.080-11.525-34.687-14.315-58.808l 33.517,0 c 28.859,0, 51.551-7.102, 68.085-21.295
		c 16.515-14.208, 24.786-35.036, 24.786-62.497c0-19.546-7.331-37.828-21.993-54.812c-14.663-17.002-34.809-25.488-60.4-25.488
		c-40.041,0-68.67,13.127-85.889,39.375c-17.233,26.249-25.837,60.761-25.837,103.511c0,30.2, 6.512,57.728, 19.546,82.583
		c 13.026,24.854, 28.862,47.044, 47.481,66.564c 19.081,19.975, 39.335,36.933, 60.749,50.878c 21.413,13.945, 39.335,25.32, 53.774,34.157
		L 467.984,336.436z" horiz-adv-x="472" data-tags="quote, left" />
<glyph unicode="&#xe00f;" d="M 261.505-22.309c 21.604,12.375, 39.063,23.025, 52.381,31.953c 13.336,8.938, 26.884,20.731, 40.668,35.378
		c 12.87,13.744, 22.747,28.173, 29.64,43.284c 6.891,15.119, 11.717,34.583, 14.475,58.396l-33.086,0 c-28.486,0-50.885,7.010-67.205,21.020
		c-16.306,14.024-24.469,34.583-24.469,61.694c0,19.296, 7.235,37.339, 21.71,54.106c 14.475,16.782, 34.358,25.161, 59.621,25.161
		c 39.525,0, 67.783-12.958, 84.781-38.87c 17.005-25.911, 25.502-59.978, 25.502-102.177c0-29.811-6.427-56.982-19.299-81.519
		c-12.857-24.534-28.485-46.438-46.869-65.704c-18.837-19.72-38.822-36.455-59.964-50.221
		c-21.133-13.762-38.827-24.994-53.078-33.716L 261.505-22.309z M 6.474-22.309c 21.606,12.375, 39.063,23.025, 52.387,31.953
		c 13.335,8.938, 26.879,20.731, 40.665,35.378c 13.335,14.196, 23.328,28.747, 29.983,43.626c 6.666,14.886, 11.376,34.241, 14.13,58.052
		l-33.084,0 c-28.486,0-50.885,7.010-67.205,21.020c-16.302,14.024-24.468,34.583-24.468,61.694c0,19.296, 7.234,37.339, 21.709,54.106
		c 14.476,16.782, 34.359,25.161, 59.622,25.161c 39.526,0, 67.785-12.958, 84.779-38.87c 17.010-25.911, 25.503-59.978, 25.503-102.177
		c0-29.811-6.428-56.982-19.296-81.519c-12.858-24.534-28.489-46.438-46.87-65.704c-18.837-19.72-38.829-36.455-59.964-50.221
		c-21.134-13.762-38.829-24.994-53.079-33.716L 6.474-22.309z" horiz-adv-x="472" data-tags="quote, right" />
<glyph unicode="&#xe072;" d="M 337.523-32.574L 114.478-32.574 c-13.692,0-24.783,11.066-24.783,24.733L 89.695,290.754 c0,13.655, 11.091,24.721, 24.783,24.721l 61.957,0 l0-25.762 
	L 126.869,289.715 c-6.841,0-12.391-5.527-12.391-12.367l0-272.822 c0-6.853, 5.552-12.367, 12.391-12.367l 198.263,0 c 6.853,0, 12.391,5.514, 12.391,12.367L 337.523,277.347 c0,6.841-5.539,12.367-12.391,12.367l-49.566,0 
	L 275.566,315.475 l 61.957,0 c 13.679,0, 24.783-11.079, 24.783-24.721l0-298.595 C 362.306-21.508, 351.203-32.574, 337.523-32.574z M 176.434,215.526l 136.306,0 l0-12.367 L 176.434,203.161 L 176.434,215.526 z M 176.434,178.428l 136.306,0 l0-12.367 
	L 176.434,166.060 L 176.434,178.428 z M 176.434,141.315l 136.306,0 l0-12.367 L 176.434,128.948 L 176.434,141.315 z M 176.434,104.214l 136.306,0 L 312.74,91.849 L 176.434,91.849 L 176.434,104.214 z M 312.74,17.672L 176.434,17.672 L 176.434,30.015 l 136.306,0 L 312.74,17.672 z M 176.434,67.116l 136.306,0 l0-12.367 L 176.434,54.748 
	L 176.434,67.116 z M 139.261,215.775l 12.391,0 l0-12.367 L 139.261,203.408 L 139.261,215.775 z M 139.261,178.675l 12.391,0 l0-12.367 L 139.261,166.309 L 139.261,178.675 z M 139.261,141.586l 12.391,0 l0-12.367 L 139.261,129.221 L 139.261,141.586 z M 139.261,104.488l 12.391,0 l0-12.367 L 139.261,92.12 L 139.261,104.488 z
	 M 151.652,17.909L 139.261,17.909 l0,12.367 l 12.391,0 L 151.652,17.909 z M 139.261,67.375l 12.391,0 l0-12.367 L 139.261,55.008 L 139.261,67.375 z M 300.348,276.592c 6.853,0, 12.391-5.539, 12.391-12.379c0-6.828,0-23.953,0-23.953L 139.261,240.26 
	c0,0,0,17.124,0,23.953c0,6.841, 5.539,12.379, 12.391,12.379l 37.174,0 c0,0, 0.149,17.583, 0.149,37.682c0,20.866, 16.11,38.315, 37.026,38.315
	s 37.583-18.339, 37.583-38.438C 263.584,292.502, 263.175,276.592, 263.175,276.592L 300.348,276.592 z M 226,315.475c-6.853,0-12.391-5.527-12.391-12.355c0-6.841, 5.539-12.367, 12.391-12.367
	s 12.391,5.527, 12.391,12.367C 238.392,309.95, 232.853,315.475, 226,315.475z" data-tags="clipboard, list, board" />
<glyph unicode="&#xe073;" d="M 344-32L 104-32 c-13.26,0-24,10.728-24,23.952L 80,292.12 c0,13.236, 10.74,23.952, 24,23.952l 72,0 L 176,292.12 L 116,292.12 
	c-6.624,0-12-5.352-12-11.976l0-276.216 c0-6.612, 5.376-11.976, 12-11.976l 216,0 c 6.636,0, 12,5.364, 12,11.976L 344,280.144 c0,6.624-5.364,11.976-12,11.976l-60,0 
	L 272,316.072 l 72,0 c 13.248,0, 24-10.728, 24-23.952l0-300.168 C 368-21.272, 357.248-32, 344-32z M 332,280.144l0-276.216 L 116,3.928 L 116,280.144 l 12,0 l0-48.66 l 192,0 L 320,280.144 L 332,280.144 z M 164,195.556l-12,0 
	l0-11.976 l 12,0 L 164,195.556 z M 164,171.604l-12,0 l0-11.976 l 12,0 L 164,171.604 z M 164,147.652l-12,0 l0-11.976 l 12,0 L 164,147.652 z M 164,123.7l-12,0 l0-11.976 l 12,0 L 164,123.7 z M 164,99.748l-12,0 l0-11.976 
	l 12,0 L 164,99.748 z M 164,75.784l-12,0 l0-11.976 l 12,0 L 164,75.784 z M 164,51.832l-12,0 l0-11.976 l 12,0 L 164,51.832 z M 296,195.556L 176,195.556 l0-11.976 l 120,0 L 296,195.556 z M 296,171.604L 176,171.604 l0-11.976 l 120,0 
	L 296,171.604 z M 296,147.652L 176,147.652 l0-11.976 l 120,0 L 296,147.652 z M 296,123.7L 176,123.7 l0-11.976 l 120,0 L 296,123.7 z M 296,99.748L 176,99.748 l0-11.976 l 120,0 L 296,99.748 z M 296,75.784L 176,75.784 l0-11.976 l 120,0 
	L 296,75.784 z M 296,51.832L 176,51.832 l0-11.976 l 120,0 L 296,51.832 z M 296,280.144c 6.636,0, 12-5.352, 12-11.976c0-6.612,0-23.952,0-23.952L 140,244.216 c0,0,0,17.34,0,23.952
	c0,6.624, 5.364,11.976, 12,11.976l 36,0 c0,0, 0.144,15.288, 0.144,34.752C 188.144,335.104, 203.744,352, 224,352s 36.396-17.76, 36.396-37.236
	C 260.396,293.812, 260,280.144, 260,280.144L 296,280.144 z M 224,316.072c-6.636,0-12-5.352-12-11.976c0-6.612, 5.364-11.976, 12-11.976s 12,5.364, 12,11.976
	C 236,310.72, 230.636,316.072, 224,316.072z" data-tags="clipboard, list, board" />
<glyph unicode="&#xe070;" d="M 126.86,267.652c0-6.598,0-23.91,0-23.91l 168.128,0 c0,0,0,17.312,0,23.91
		c0,6.61-5.338,11.962-11.95,11.962l-35.872,0 c0,0, 0.408,13.652, 0.408,34.576c0,19.424-16.844,37.168-37.024,37.168s-35.728-16.868-35.728-37.060
		c0-19.424-0.144-34.684-0.144-34.684L 138.82,279.614 C 132.21,279.614, 126.86,274.262, 126.86,267.652z M 210.552,315.472c 6.598,0, 11.962-5.35, 11.962-11.95
		c0-6.61-5.362-11.962-11.962-11.962s-11.962,5.35-11.962,11.962C 198.59,310.122, 203.952,315.472, 210.552,315.472zM 318.91,279.614l0-118.784 c0,0, 10.318,11.386, 23.898,16.844L 342.808,291.562 
		c0,13.208-11.458,23.91-24.654,23.91l-59.038,0 L 259.116,291.562 l 47.82,0 C 313.546,291.562, 318.91,286.212, 318.91,279.614zM 185.886-8.078L 114.898-8.078 c-6.598,0-11.95,5.338-11.95,11.95L 102.949,279.614 
		c0,6.598, 5.35,11.95, 11.95,11.95l 48.576,0 L 163.474,315.472 L 102.949,315.472 c-13.208,0-23.91-10.714-23.91-23.91l0-299.64 C 79.038-21.286, 89.74-32, 102.949-32l 108.946,0 
		C 207.216-24.106, 198.854-14.988, 185.886-8.078zM 318.91,3.872c0-6.61-5.362-11.95-11.962-11.95l-32.74,0 
		c-6.022-8.062-11.698-16.076-16.916-23.922l 60.874,0 c 13.196,0, 24.654,10.714, 24.654,23.922l0,73.53 c-7.918-6.514-15.932-13.868-23.898-21.954L 318.922,3.872 zM 368.962,100.856c-13.472,29.944-5.758,54.263-3.84,82.336
		c-78.93-39.29-128.982-157.198-128.982-157.198l-30.796,58.018l-63.524-37.419c 26.958-9.346, 65.456-39.29, 98.184-78.594
		C 263.086,9.174, 334.314,93.358, 368.962,100.856z" data-tags="clipboard" />
<glyph unicode="&#xe017;" d="M 272,256L 272,352 L 104,352 L 32,280l0-216 l 144,0 l0-96 l 240,0 L 416,256 L 272,256 z M 104,318.058L 104,280 L 65.942,280 L 104,318.058z M 56,88L 56,256 l 72,0 L 128,328 l 120,0 l0-72 l-72-72l0-96 L 56,88 z
	 M 248,222.058L 248,184 l-38.058,0 L 248,222.058z M 392-8L 200-8 L 200,160 l 72,0 l0,72 l 120,0 L 392-8 z" data-tags="copy, duplicate, files, pages, papers, documents" />
<glyph unicode="&#xe021;" d="M 200,208L 344,208L 344,184L 200,184zM 200,160L 344,160L 344,136L 200,136zM 200,112L 344,112L 344,88L 200,88zM 200,64L 296,64L 296,40L 200,40zM 392,280l-72,0 L 320,328 c0,13.2-10.8,24-24,24L 56,352 C 42.8,352, 32,341.2, 32,328l0-264 c0-13.2, 10.8-24, 24-24l 72,0 l0-48 c0-13.2, 10.8-24, 24-24l 240,0 
		c 13.2,0, 24,10.8, 24,24L 416,256 C 416,269.2, 405.2,280, 392,280z M 128,256l0-180 L 68,76 L 68,316 l 216,0 l0-36 L 152,280 C 138.8,280, 128,269.2, 128,256z M 380,4L 164,4 
		L 164,244 l 216,0 L 380,4 z" data-tags="copy, new, papers" />
<glyph unicode="&#xe071;" d="M 108.766,282.96L 108.766,336.298 l 336.010,0 l0-246.756 l-53.336,0 l 1.096-53.604l-54.434,0 l0-52.224 L 3.224-16.282 L 3.224,230.738 l 52.506,0 L 55.73,284.074 L 108.766,282.96z M 426.544,319.16l-300.64,0 l0-36.202 
	l 266.652,1.096l-1.096-177.396l 35.086,0 L 426.544,319.16 z M 374.32,265.824L 72.85,265.824 L 72.85,230.738 l 265.272,0 l0-176.564 L 374.32,54.172 L 374.32,265.824 z M 20.344,213.6L 20.344,0.836 l 300.64,0 L 320.984,213.6 L 20.344,213.6 z" data-tags="stack, papers" />
<glyph unicode="&#xe074;" d="M 3-11.2l 325.28,0 L 328.28,228.48 L 3,228.48 L 3-11.2 z M 53.299,245.6L 345.4,245.6 l0-205.44 l 34.24,0 L 379.64,279.84 L 54.36,279.84 L 53.299,245.6z M 105.72,331.2L 104.659,296.96L 396.76,296.96 l0-205.44 l 34.24,0 L 431,331.2 L 105.72,331.2 z" data-tags="stack, papers" />
<glyph unicode="&#xe075;" d="M 182.98,311.172L 101.836,332.914C 94.374,334.916, 86.702,330.478, 84.7,323.016L 1.358,11.992
			c-2.002-7.476, 2.436-15.148, 9.912-17.164L 92.4-26.914c 7.462-2.002, 15.148,2.436, 17.15,9.898l 83.342,311.038
			C 194.88,301.484, 190.456,309.17, 182.98,311.172z M 108.92,34.798c-6.006-22.414-29.022-35.7-51.436-29.694s-35.7,29.022-29.694,51.436
			s 29.022,35.714, 51.436,29.694C 101.64,80.228, 114.926,57.198, 108.92,34.798z M 125.006,94.802l-81.13,21.742L 87.346,278.818l 81.144-21.756
			L 125.006,94.802z M 265.132,62c-11.606,0-21-9.408-21-21s 9.394-21, 21-21c 11.592,0, 21,9.408, 21,21S 276.724,62, 265.132,62z
			 M 151.354,247.178L 97.244,261.668L 93.632,248.144l 54.096-14.49L 151.354,247.178z M 140.462,206.606l 3.64,13.524L 90.006,234.62L 86.38,221.096
			L 140.462,206.606z M 73.57,65.108c-11.2,3.010-22.722-3.654-25.718-14.854c-3.010-11.214, 3.64-22.722, 14.854-25.718
			c 11.2-3.010, 22.722,3.64, 25.718,14.854C 91.42,50.59, 84.77,62.098, 73.57,65.108z M 419.132,258l-56,0 l0-14 l 56,0 L 419.132,258 z M 419.132,202l-56,0 l0-14 l 56,0 L 419.132,202 z M 419.132,230
			l-56,0 l0-14 l 56,0 L 419.132,230 z M 391.132,62c-11.606,0-21-9.408-21-21s 9.394-21, 21-21c 11.592,0, 21,9.408, 21,21S 402.724,62, 391.132,62z M 433.132,328
			l-84,0 c-7.742,0-14-6.258-14-14l0-322 c0-7.728, 6.258-14, 14-14l 84,0 c 7.728,0, 14,6.272, 14,14L 447.132,314 C 447.132,321.742, 440.846,328, 433.132,328z M 391.132-1
			c-23.198,0-42,18.816-42,42c0,23.198, 18.802,42, 42,42c 23.184,0, 42-18.802, 42-42C 433.132,17.816, 414.316-1, 391.132-1z M 433.132,104l-84,0 L 349.132,272 l 84,0 L 433.132,104 z
			 M 293.132,258l-56,0 l0-14 l 56,0 L 293.132,258 z M 293.132,202l-56,0 l0-14 l 56,0 L 293.132,202 z M 307.132,328l-84,0 c-7.742,0-14-6.258-14-14l0-322 c0-7.728, 6.258-14, 14-14l 84,0 c 7.728,0, 14,6.272, 14,14L 321.132,314 
			C 321.132,321.742, 314.846,328, 307.132,328z M 265.132-0.132c-23.198,0-42,18.816-42,42c0,23.198, 18.802,42, 42,42c 23.184,0, 42-18.802, 42-42
			C 307.132,18.684, 288.316-0.132, 265.132-0.132z M 307.132,104l-84,0 L 223.132,272 l 84,0 L 307.132,104 z M 293.132,230l-56,0 l0-14 l 56,0 L 293.132,230 z M 79.128,194.062l 54.082-14.49l 3.64,13.524
			l-54.096,14.49L 79.128,194.062z" data-tags="archive" />
<glyph unicode="&#xe076;" d="M 238.88,166.852l-120.97,0 l0-13.7 l 120.97,0 L 238.88,166.852 z M 238.88,121.488l-120.97,0 l0-14.652 l 120.97,0 L 238.88,121.488 z
			 M 163.756,348.776l0-45.606 L 117.908,303.17 l0-45.606 L 73.256,257.564 l0-286.368 L 284.486-28.804 l0,45.832 l 44.654,0 l0,44.426 l 45.606,0 l0,287.306 L 163.756,348.76 z M 269.832-14.136L 87.908-14.136 L 87.908,243.88 l 181.924,0 L 269.832-14.136 z
			 M 314.486,30.758L 284.486,30.758 l0,226.82 L 132.562,257.58 L 132.562,288.532 l 181.924,0 L 314.486,30.758 z M 360.092,76.124l-30.954,0 L 329.138,303.186 l-150.744,0 L 178.394,334.138 L 360.092,334.138 L 360.092,76.124 z M 238.88,31l-120.97,0 L 117.908,16.348 l 120.97,0 L 238.88,31 z
			 M 238.88,76.592l-120.97,0 l0-14.652 l 120.97,0 L 238.88,76.592 z M 239.106,212.684l-120.97,0 l0-15.122 l 120.97,0 L 239.106,212.684 z" data-tags="files, stack, papers" />
<glyph unicode="&#xe078;" d="M 302.621,350.566L 80.705,350.566 l0-381.132 l 159.216,0 l0,31.844 L 112.548,1.278 L 112.548,318.722 l 159.216,0 l0-47.764 l 63.686,0 l0-175.138 l 31.844,0 L 367.295,287.867 L 302.621,350.566z
			 M 335.452,63.977l-31.844,0 l0-31.844 l-31.844,0 l0-31.844 l 31.844,0 l0-30.856 l 31.844,0 l0,31.844 l 31.844,0 l0,30.856 l-31.844,0 L 335.452,63.977 z" data-tags="file, new, add" />
<glyph unicode="&#xe077;" d="M 303.034,351.566L 79.95,351.566 l0-383.132 l 160.048,0 l0,32.012 L 111.964,0.446 L 111.964,319.554 l 160.048,0 l0-48.018 l 64.018,0 l0-176.055 l 32.012,0 L 368.050,288.538 L 303.034,351.566z
			 M 272.018,15.456l 96.030,0.99l0,31.016 l-96.030,0 L 272.018,15.456 z" data-tags="file, remove" />
<glyph unicode="&#xe079;" d="M 144.416,175.916l 15.916,0 l0,15.916 l-15.916,0 L 144.416,175.916 z M 144.416,128.166l 15.916,0 l0,15.916 l-15.916,0 L 144.416,128.166 z M 144.416,223.666l 15.916,0 l0,15.916 l-15.916,0 L 144.416,223.666 z M 144.416,80.416l 15.916,0 l0,15.916 l-15.916,0 L 144.416,80.416 z
			 M 144.416,32.666l 15.916,0 l0,15.916 l-15.916,0 L 144.416,32.666 z M 176.25,128.166l 127.334,0 l0,15.916 l-127.334,0 L 176.25,128.166 z M 176.25,223.666l 127.334,0 l0,15.916 l-127.334,0 L 176.25,223.666 z M 302.596,351L 80.75,351 l0-382 l 286.5,0 L 367.25,287.334 L 302.596,351z M 335.416,1.82L 112.584,1.82 L 112.584,319.166 l 159.166,0 l0-46.763 l 63.666,0 L 335.416,1.82 z
			 M 176.25,80.416l 127.334,0 l0,15.916 l-127.334,0 L 176.25,80.416 z M 176.25,175.916l 127.334,0 l0,15.916 l-127.334,0 L 176.25,175.916 z M 176.25,32.666l 127.334,0 l0,15.916 l-127.334,0 L 176.25,32.666 z" data-tags="file, list" />
<glyph unicode="&#xe07a;" d="M 333.5,245.552c0,8.65-7.008,15.643-15.643,15.643l-46.929,0 c0,0, 0.517,18.834, 0.517,46.209
			c0,25.419-21.055,48.618-47.444,48.618s-46.741-22.073-46.741-48.478c0-25.419-0.188-46.365-0.188-46.365l-46.929,0 c-8.65,0-15.643-6.993-15.643-15.643
			c0-8.635,0-30.316,0-30.316l 219,0 C 333.5,215.236, 333.5,236.917, 333.5,245.552z M 224,277.807c-8.65,0-15.643,7.008-15.643,15.643c0,8.65, 6.993,15.643, 15.643,15.643
			c 8.635,0, 15.643-6.993, 15.643-15.643C 239.643,284.815, 232.635,277.807, 224,277.807z M 411.714,245.552l-62.571,0.97l 0.328-48.555L 98.857,197.966 l0,46.601 l-62.571,0.97c-17.27,0-31.286-14.016-31.286-31.286
			l0-219 c0-17.27, 14.016-31.286, 31.286-31.286l 375.429,0 c 17.27,0, 31.286,14.016, 31.286,31.286l0,219 C 443,231.536, 428.984,245.552, 411.714,245.552z M 130.143,154.619
			c 18.897,0, 34.227-20.133, 34.227-44.974S 149.039,64.673, 130.143,64.673s-34.227,20.133-34.227,44.974S 111.246,154.619, 130.143,154.619z M 62.362,11.722
			c0,0, 3.708,29.753, 12.139,35.368c 8.416,5.615, 32.694,9.354, 32.694,9.354s 15.737-16.817, 22.432-16.817c 6.679,0, 22.417,16.817, 22.417,16.817
			s 24.278-3.723, 32.71-9.354c 9.901-6.601, 12.373-35.368, 12.373-35.368L 62.362,11.722 z M 380.429,26.552l-140.786,0 l0,15.643 l 140.786,0 L 380.429,26.552 z M 380.429,57.838l-140.786,0 l0,15.643 l 140.786,0 L 380.429,57.838 z
			 M 380.429,89.123l-140.786,0 l0,15.643 l 140.786,0 L 380.429,89.123 z M 380.429,120.409l-140.786,0 l0,15.643 l 140.786,0 L 380.429,120.409 z" data-tags="profile, card, id, vcard" />
<glyph unicode="&#xe07b;" d="M 411.714,19.214l-46.929,0 l0,15.643 c 8.65,0, 15.643,7.008, 15.643,15.643c0,8.65-6.993,15.643-15.643,15.643l-31.286,0 c-8.65,0-15.643-6.993-15.643-15.643
	c0-8.635, 6.993-15.643, 15.643-15.643l0-15.643 L 130.143,19.214 l0,15.643 c 8.65,0, 15.643,7.008, 15.643,15.643c0,8.65-6.993,15.643-15.643,15.643L 98.857,66.143 c-8.65,0-15.643-6.993-15.643-15.643c0-8.635, 6.993-15.643, 15.643-15.643l0-15.643 L 36.286,19.214 
	c-17.27,0-31.286,14.016-31.286,31.286L 5,269.5 c0,17.27, 14.016,31.286, 31.286,31.286l 375.429,0 c 17.27,0, 31.286-14.016, 31.286-31.286l0-219 C 443,33.23, 428.984,19.214, 411.714,19.214z M 130.143,256.798
	c-18.897,0-34.227-20.133-34.227-44.974S 111.246,166.852, 130.143,166.852s 34.227,20.133, 34.227,44.974S 149.039,256.798, 130.143,256.798z M 184.736,149.238
	c-8.431,5.615-32.71,9.354-32.71,9.354s-15.737-16.817-22.417-16.817c-6.695,0-22.432,16.817-22.432,16.817s-24.278-3.723-32.694-9.354
	c-8.431-5.6-12.154-35.368-12.154-35.368l 134.763,0 C 197.109,113.885, 194.638,142.653, 184.736,149.238z M 380.429,238.214l-140.786,0 l0-15.643 l 140.786,0 L 380.429,238.214 z M 380.429,206.929l-140.786,0 l0-15.643 l 140.786,0 L 380.429,206.929 z
	 M 380.429,175.643l-140.786,0 l0-15.643 l 140.786,0 L 380.429,175.643 z M 380.429,144.357l-140.786,0 l0-15.643 l 140.786,0 L 380.429,144.357 z" data-tags="profile, card, id, vcard" />
<glyph unicode="&#xe07c;" d="M 411.714,277.321l-30.629,0 L 381.086,323.28 L 317.857,324.25l 0.328-46.929L 128.187,277.321 l 1.299,46.929L 67.571,323.28l0-46.929 L 36.286,277.321
			c-17.27,0-31.286-14.016-31.286-31.286l0-219 c0-17.27, 14.016-31.286, 31.286-31.286l 375.429,0 c 17.27,0, 31.286,14.016, 31.286,31.286L 443,246.036 C 443,263.305, 428.984,277.321, 411.714,277.321z M 333.5,308.607l 31.286,0 l0-62.571 l-31.286,0 L 333.5,308.607 z M 130.143,202.048
			c 18.897,0, 34.227-20.133, 34.227-44.974S 149.039,112.102, 130.143,112.102s-34.227,20.133-34.227,44.974S 111.246,202.048, 130.143,202.048z M 83.214,308.607l 31.286,0 l0-62.571 L 83.214,246.036 L 83.214,308.607 z
			 M 62.362,59.135c0,0, 3.708,29.753, 12.139,35.368c 8.416,5.615, 32.694,9.354, 32.694,9.354s 15.737-16.817, 22.432-16.817
			c 6.679,0, 22.417,16.817, 22.417,16.817s 24.278-3.723, 32.71-9.354c 9.901-6.601, 12.373-35.368, 12.373-35.368L 62.362,59.135 z M 380.429,73.964l-140.786,0 l0,15.643 l 140.786,0 L 380.429,73.964 z M 380.429,105.25
			l-140.786,0 l0,15.643 l 140.786,0 L 380.429,105.25 z M 380.429,136.536l-140.786,0 l0,15.643 l 140.786,0 L 380.429,136.536 z M 380.429,167.821l-140.786,0 l0,15.643 l 140.786,0 L 380.429,167.821 z" data-tags="profile, card, id, vcard" />
<glyph unicode="&#xe07d;" d="M 383.923,131.824l0,43.615 l 29.077,0 l0-43.615 L 383.923,131.824 z M 383.923,232.692l 29.077,0 l0-43.615 l-29.077,0 L 383.923,232.692 z M 383.923,290.846l 29.077,0 l0-43.615 l-29.077,0 L 383.923,290.846 z M 340.308-29L 78.615-29 
	c-16.050,0-29.077,13.026-29.077,29.077l 7.269,0 C 68.846,0.077, 78.615,9.847, 78.615,21.885S 68.846,43.692, 56.808,43.692L 49.538,43.692 l0,14.538 l 7.269,0 C 68.846,58.231, 78.615,68.001, 78.615,80.038S 68.846,101.846, 56.808,101.846L 49.538,101.846 l0,14.538 l 7.269,0 
	C 68.846,116.385, 78.615,126.154, 78.615,138.192S 68.846,160, 56.808,160L 49.538,160 l0,14.538 l 7.269,0 C 68.846,174.538, 78.615,184.308, 78.615,196.346S 68.846,218.154, 56.808,218.154L 49.538,218.154 l0,14.538 l 7.269,0 C 68.846,232.692, 78.615,242.462, 78.615,254.5
	S 68.846,276.308, 56.808,276.308L 49.538,276.308 L 49.538,319.923 c0,16.050, 13.026,29.077, 29.077,29.077l 261.692,0 c 10.729,0, 20.005-5.874, 25.050-14.538L 78.615,334.462 C 70.576,334.462, 64.077,327.963, 64.077,319.923c0-8.025, 6.499-14.538, 14.538-14.538l 290.769,0 l0-305.308 
	C 369.385-15.974, 356.358-29, 340.308-29z M 216.731,253.599c-17.562,0-31.81-18.711-31.81-41.798s 14.233-41.798, 31.81-41.798s 31.81,18.711, 31.81,41.798
	S 234.293,253.599, 216.731,253.599z M 267.47,149.998c-7.836,5.219-30.4,8.694-30.4,8.694s-14.626-15.629-20.834-15.629
	c-6.222,0-20.848,15.629-20.848,15.629s-22.564-3.46-30.385-8.694c-7.836-5.205-11.296-32.871-11.296-32.871l 125.249,0 
	C 278.97,117.141, 276.673,143.877, 267.47,149.998z M 64.077,254.5C 64.077,250.487, 60.82,247.231, 56.808,247.231l-14.538,0 C 38.257,247.231, 35,250.487, 35,254.5S 38.257,261.769, 42.269,261.769l 14.538,0 
	C 60.82,261.769, 64.077,258.513, 64.077,254.5z M 42.269,203.615l 14.538,0 C 60.82,203.615, 64.077,200.359, 64.077,196.346S 60.82,189.077, 56.808,189.077l-14.538,0 C 38.257,189.077, 35,192.334, 35,196.346S 38.257,203.615, 42.269,203.615z M 42.269,145.462
	l 14.538,0 C 60.82,145.462, 64.077,142.205, 64.077,138.192S 60.82,130.923, 56.808,130.923l-14.538,0 C 38.257,130.923, 35,134.18, 35,138.192S 38.257,145.462, 42.269,145.462z M 42.269,87.308l 14.538,0 C 60.82,87.308, 64.077,84.051, 64.077,80.038
	S 60.82,72.769, 56.808,72.769l-14.538,0 C 38.257,72.769, 35,76.026, 35,80.038S 38.257,87.308, 42.269,87.308z M 42.269,29.154l 14.538,0 C 60.82,29.154, 64.077,25.897, 64.077,21.885S 60.82,14.615, 56.808,14.615l-14.538,0 
	C 38.257,14.615, 35,17.872, 35,21.885S 38.257,29.154, 42.269,29.154z" data-tags="address book, phone book, contacts" />
</font>
</defs>
</svg>
